<svg width="192" height="97" viewBox="0 0 192 97" fill="none" xmlns="http://www.w3.org/2000/svg">
<g clip-path="url(#clip0_247_5355)">
<path d="M165.948 94.5847C121.966 93.7265 77.9826 92.8682 34.0004 92.01C29.2222 91.9165 24.5926 90.4636 20.7866 87.8362C14.7091 83.6405 6.65308 76.3102 2.86569 65.0737C-1.10326 53.3001 1.69436 43.4081 2.86569 39.4799C7.90972 22.5699 23.8752 5.19242 47.0983 0.47961C68.3976 -3.84337 76.0479 22.3779 112.775 27.9012C117.686 28.6401 118.726 28.4134 128.189 29.7291C153.811 33.2923 166.677 34.7412 173.09 38.8693C184.291 46.0802 191.018 59.0959 191.185 71.7754C191.187 71.9306 191.188 72.0857 191.188 72.2399C191.193 84.7901 179.749 94.8532 165.949 94.5837L165.948 94.5847Z" fill="#EAF4FE" fill-opacity="0.1"/>
<path d="M33.5007 73.5413L34.1044 73.4966C34.076 73.1843 31.3746 42.1507 37.7103 29.4414L37.1591 29.2136C33.8091 35.9323 32.9943 47.6333 32.9003 56.2663C32.7986 65.6034 33.4942 73.4627 33.5007 73.5413Z" fill="#00B4AA"/>
<path d="M30.6611 74.8053L31.2659 74.7765C31.2616 74.6979 30.8011 66.8237 29.3345 57.582C27.9783 49.0375 25.4585 37.5394 21.156 31.2852L20.6431 31.5775C28.7822 43.4088 30.6436 74.4931 30.6611 74.8053Z" fill="#00B4AA"/>
<path d="M27.003 73.5244L27.6078 73.5115C27.6034 73.3474 27.1266 56.9604 21.5751 47.5815L21.0425 47.8421C26.524 57.1036 26.9986 73.3603 27.003 73.5234V73.5244Z" fill="#00B4AA"/>
<path d="M35.8377 73.9373C35.8421 73.7543 36.3167 55.4749 41.8048 45.0577L41.2591 44.8201C35.7141 55.3456 35.2373 73.7413 35.2329 73.9263L35.8377 73.9373Z" fill="#00B4AA"/>
<path d="M38.494 30.5652C38.494 30.5652 28.5186 26.2143 43.8005 17.6977C59.0824 9.182 48.6291 23.2279 47.519 24.7773C46.1585 26.6738 42.429 30.8396 38.494 30.5652Z" fill="#00B4AA"/>
<path d="M26.7932 36.2574C26.7932 36.2574 19.5345 43.8502 14.5561 28.1932C9.57766 12.5362 21.701 25.4256 23.0496 26.8109C24.6999 28.5065 28.1286 32.8812 26.7932 36.2574Z" fill="#00B4AA"/>
<path d="M24.8747 51.2482C24.8747 51.2482 19.6677 58.1329 13.9445 45.6374C8.22131 33.1418 19.5551 42.7444 20.8106 43.7717C22.3472 45.0297 25.6282 48.3473 24.8747 51.2482Z" fill="#00B4AA"/>
<path d="M36.6645 48.6337C36.6645 48.6337 41.8715 55.5184 47.5947 43.0229C53.3179 30.5273 41.9842 40.1299 40.7286 41.1572C39.1909 42.4152 35.911 45.7328 36.6645 48.6337Z" fill="#00B4AA"/>
<path d="M37.5327 28.4777C38.0117 27.9168 38.493 27.3579 38.984 26.805C39.4707 26.2501 39.9629 25.6992 40.4627 25.1542C41.4601 24.0622 42.4718 22.9813 43.525 21.9341C44.5705 20.8809 45.6533 19.8586 46.8005 18.8979C47.3736 18.4186 47.9664 17.9552 48.5909 17.5325C49.2143 17.1099 49.8716 16.7171 50.601 16.4585C49.8595 16.6882 49.188 17.0721 48.5471 17.4778C47.9095 17.8915 47.3069 18.347 46.7218 18.8194C45.5548 19.7681 44.4688 20.7934 43.4123 21.8416C42.3668 22.8977 41.3518 23.9797 40.3719 25.0866C39.3941 26.1944 38.4394 27.3201 37.5327 28.4767V28.4777Z" fill="#00B4AA"/>
<path d="M23.6354 36.1721C23.0995 34.8375 22.5089 33.5218 21.8898 32.2171C21.2697 30.9123 20.6081 29.6245 19.9092 28.3535C19.1972 27.0886 18.4513 25.8365 17.6037 24.6402C17.1783 24.0435 16.7299 23.4587 16.2366 22.9058C15.7379 22.3598 15.2042 21.8268 14.5557 21.426C15.1834 21.8517 15.7007 22.3897 16.1787 22.9476C16.6577 23.5065 17.093 24.0952 17.5053 24.6968C18.3288 25.9002 19.0747 27.1482 19.7736 28.4152C20.4823 29.6792 21.1418 30.966 21.7838 32.2598C22.1053 32.9062 22.4192 33.5566 22.7254 34.209C23.0371 34.8604 23.3379 35.5147 23.6343 36.1721H23.6354Z" fill="#00B4AA"/>
<path d="M22.4205 50.925C21.7949 49.9265 21.1245 48.9499 20.4344 47.9873C19.7432 47.0246 19.0181 46.0809 18.2678 45.155C17.5066 44.2361 16.7202 43.3322 15.8595 42.4869C15.4275 42.0652 14.9802 41.6565 14.5012 41.2786C14.0189 40.9076 13.5103 40.5506 12.9307 40.3159C13.4939 40.5785 13.9882 40.9424 14.452 41.3283C14.9179 41.7141 15.3542 42.1288 15.7731 42.5575C16.612 43.4137 17.3961 44.3137 18.1464 45.2366C18.9054 46.1535 19.6272 47.0962 20.3381 48.045C20.6947 48.5193 21.0446 48.9977 21.3902 49.478C21.7402 49.9563 22.0803 50.4407 22.4205 50.925Z" fill="#00B4AA"/>
<path d="M39.0737 49.3796C39.3625 48.8685 39.6523 48.3573 39.9509 47.8511C40.2461 47.343 40.5447 46.8368 40.851 46.3346C41.4612 45.3291 42.0824 44.3287 42.743 43.3511C43.3948 42.3686 44.0828 41.405 44.8297 40.4811C45.2027 40.0197 45.5942 39.5692 46.0186 39.1445C46.4407 38.7209 46.8957 38.3161 47.4294 38.0068C46.8771 38.2903 46.4068 38.689 45.965 39.0988C45.5275 39.5155 45.1239 39.961 44.7379 40.4174C43.969 41.3334 43.2789 42.3 42.6151 43.2795C41.9632 44.2661 41.3387 45.2665 40.7503 46.2848C40.1619 47.3032 39.5965 48.3315 39.0759 49.3796H39.0737Z" fill="#00B4AA"/>
<path d="M23.7683 91.5952H39.7993L41.803 74.531H21.7646L23.7683 91.5952Z" fill="#00B4AA"/>
<path d="M22.3716 91.989C22.4777 92.3779 22.9261 92.6961 23.3669 92.6961H40.1985C40.6393 92.6961 41.0877 92.3779 41.1938 91.989L41.6072 90.5003C41.7133 90.1115 41.4409 89.8062 41.0002 89.8062H22.5663C22.1255 89.8062 21.8521 90.1115 21.9593 90.5003L22.3727 91.989H22.3716Z" fill="#00B4AA"/>
<path d="M20.8436 75.5403C20.9092 76.138 21.5042 76.5955 22.1658 76.5955H41.4025C42.0641 76.5955 42.6591 76.139 42.7247 75.5403L42.8855 74.0884C42.9511 73.4907 42.4644 73.0173 41.8028 73.0173H21.7644C21.1028 73.0173 20.6161 73.4907 20.6817 74.0884L20.8425 75.5403H20.8436Z" fill="#00B4AA"/>
<path d="M166.211 96.8748C167.139 90.8791 168.211 86.0867 168.986 82.9243C171.526 72.5589 171.927 66.0173 174.009 56.1212C174.18 55.3098 174.334 53.9364 173.82 52.3591C173.82 52.3591 172.882 49.5856 169.217 47.343C164.962 44.7395 148.797 43.6287 127.055 45.1482C126.391 45.2417 124.828 45.549 123.532 46.7155C121.565 48.4877 121.868 51.298 121.964 52.3582C122.39 57.1157 123.677 73.6667 125.642 96.2473C139.165 96.4561 152.688 96.665 166.21 96.8738L166.211 96.8748Z" fill="#69ADEA"/>
<path d="M161.59 96.2891C162.49 90.4615 163.524 85.8044 164.27 82.7305C166.717 72.6554 167.118 66.2978 169.129 56.6792C169.294 55.8906 169.444 54.555 168.962 53.0225C168.962 53.0225 168.079 50.3265 164.606 48.1476C160.572 45.6177 145.22 44.5377 124.563 46.0145C123.932 46.105 122.446 46.4033 121.212 47.538C119.338 49.2604 119.618 51.9923 119.704 53.0225C120.093 57.6468 121.262 73.7325 123.055 95.6795C135.9 95.8824 148.744 96.0862 161.59 96.2891Z" fill="#9BC7F8"/>
<path d="M104.904 9.7857C100.768 10.0194 99.1099 10.6787 97.8861 11.6265C93.9128 14.7034 94.5416 20.7886 94.7538 22.8412C95.2558 27.6932 97.1041 27.9975 97.6258 32.0898C98.4012 38.169 94.7177 40.6124 94.0265 45.6226C92.9175 53.6609 100.468 61.3919 104.267 64.1227C123.27 77.7818 172.279 55.3485 171.384 41.0261C170.89 33.1161 154.864 22.7089 143.161 24.5606C139.19 25.1891 135.302 27.2944 132.278 25.4278C128.998 23.403 131.347 19.5494 128.309 15.3806C123.467 8.73753 110.888 9.44758 104.903 9.7857H104.904Z" fill="#353535"/>
<path d="M104.123 68.3344C103.417 70.3174 102.366 73.0064 100.857 76.1042C99.2008 79.5033 97.6007 82.7891 94.7419 86.3871C92.8903 88.7171 89.9133 91.9323 85.3592 95.0708C84.691 95.3025 83.6444 95.587 82.344 95.6039C81.06 95.6208 78.6659 95.6536 77.569 94.1569C76.8964 93.24 76.9675 91.9522 77.569 90.3481C79.8373 84.3017 94.2333 60.9733 95.6638 58.6602C96.7597 58.9287 98.8202 59.587 100.69 61.2498C103.763 63.9826 104.074 67.4364 104.125 68.3334L104.123 68.3344Z" fill="#F09469"/>
<path d="M104.374 69.9335C104.057 69.9882 103.52 67.6323 101.275 65.2873C98.9582 62.8688 94.916 60.4412 93.4844 59.3463C94.7476 55.625 96.5587 51.5556 99.1813 47.3868C99.7303 46.5146 100.29 45.6773 100.857 44.8728C101.558 44.2413 102.747 43.3532 104.459 42.8162C105.098 42.6163 105.694 42.5009 106.218 42.4353C104.977 53.8737 104.828 60.844 104.961 65.2107C104.999 66.424 105.13 69.8022 104.375 69.9335H104.374Z" fill="#4F2671"/>
<path d="M105.966 96.5943C119.295 96.7295 132.624 96.8648 145.953 97.001C145.074 79.7837 144.081 70.3948 143.161 64.9073C142.82 62.8726 141.778 57.1296 142.323 49.5208C142.465 47.5548 142.677 45.9576 142.827 44.9502C140.664 43.6713 137.208 41.9479 132.625 40.9723C131.367 40.7048 129.327 40.3448 126.221 40.2275C118.498 39.9351 110.986 41.396 105.968 42.6649C104.599 51.5008 103.231 60.3367 101.863 69.1726C101.853 69.5466 101.844 70.1015 101.863 70.7727C102.01 76.1141 103.601 80.0392 104.04 81.2087C105.143 84.1385 106.197 88.8384 105.968 96.5952L105.966 96.5943Z" fill="#5B2D82"/>
<path d="M109.355 40.9715C109.432 41.2997 109.52 41.7949 109.503 42.3936C109.47 43.6168 109.029 44.5118 108.899 44.7972C108.052 46.642 108.064 49.4305 108.312 50.8914C108.38 51.2921 109.076 55.0184 112.417 56.9089C117.116 59.5681 123.086 56.354 123.894 55.9184C128.569 53.4004 130.044 49.16 130.427 47.8443C131.34 44.7246 130.802 42.0763 130.427 40.7606C129.513 40.7159 127.788 40.516 125.987 39.5414C124.134 38.539 123.176 37.2422 122.636 36.4944C121 34.226 118.606 29.9089 118.546 28.6748C117.292 29.001 117.881 31.5638 116.353 32.4568C111.735 35.1558 109.956 39.2958 109.353 40.9715H109.355Z" fill="#F8B68C"/>
<path opacity="0.44" d="M110.64 40.3677C111.113 41.1444 111.152 41.8803 111.042 42.6947C111.066 42.5466 111.09 42.3994 111.113 42.2512C111.086 42.4411 111.073 42.6311 111.073 42.82C111.089 42.8807 111.107 42.9414 111.125 43.001C111.217 43.1621 111.317 43.3193 111.424 43.4734C111.803 43.8831 112.223 44.26 112.668 44.6111C114.151 45.6255 115.797 46.434 117.487 47.1301C117.728 47.2236 117.968 47.3161 118.21 47.4066C118.94 47.4632 119.67 47.4831 120.401 47.4394C120.73 47.3847 121.053 47.3121 121.371 47.2216C122.128 46.9004 122.843 46.5046 123.531 46.073C123.588 46.0302 123.642 45.9864 123.697 45.9417C123.996 45.5081 124.242 45.0437 124.512 44.5962C123.221 42.0314 122.407 39.2847 121.301 36.6513C120.774 35.5027 120.167 34.3859 119.4 33.3546C118.981 32.8793 118.524 32.4367 118.025 32.031C118.012 32.022 118 32.0131 117.988 32.0051C117.729 31.8341 117.496 31.6541 117.288 31.4622C117.107 31.8619 116.851 32.217 116.445 32.4546C112.808 34.5798 110.933 37.5991 110.005 39.6049C110.26 39.8416 110.478 40.1012 110.64 40.3667V40.3677Z" fill="#D68D65"/>
<path d="M141.317 68.6386C141.449 70.2447 141.613 71.5564 141.736 72.4474C142.461 77.6784 143.115 77.9121 144.165 83.7208C144.391 84.9679 144.499 85.7247 145.003 86.7679C145.492 87.7802 146.613 90.1003 149.192 90.8054C151.054 91.3146 152.745 90.7269 153.464 90.4245C154.163 90.1441 155.157 89.627 155.893 88.6723C156.978 87.2651 156.914 85.668 156.731 83.7974C156.291 79.3332 155.474 76.1797 155.474 76.1797C154.936 74.1052 154.167 71.0423 153.296 67.1917C149.303 67.674 145.31 68.1563 141.317 68.6386Z" fill="#F8B68C"/>
<path d="M109.318 91.4908C116.384 90.3382 123.741 88.9569 131.35 87.3011C135.926 86.3056 140.367 85.2604 144.67 84.1784C145.814 84.1058 147.928 84.1138 150.282 85.0168C153.549 86.2678 155.275 88.4716 155.895 89.3587C155.843 90.0528 155.676 90.9339 155.225 91.8727C153.883 94.6622 151.043 95.8257 150.198 96.138C149.528 96.3409 148.857 96.5447 148.188 96.7476C136.097 96.6969 124.006 96.6462 111.915 96.5954C111.209 96.5298 108.926 96.2842 108.35 95.1733C107.762 94.0396 108.893 92.0378 109.318 91.4918V91.4908Z" fill="#F8B68C"/>
<path d="M111.104 91.5155C109.786 91.4559 108.3 91.3067 106.692 91.0073C103.617 90.4345 101.099 89.4967 99.2085 88.6206C98.8651 88.542 98.3292 88.4665 97.7003 88.5699C96.4776 88.7708 95.7207 89.5743 95.3544 89.9413C94.393 90.9039 92.9341 92.1361 90.552 93.8008C90.4514 93.8645 90.12 94.0912 89.9932 94.5119C89.9133 94.7764 89.9604 95.0081 89.9932 95.1722C90.073 95.571 90.2688 95.8783 90.4405 96.0861C94.2891 96.1508 98.1378 96.4014 101.988 96.467C105.64 96.5287 109.294 96.4054 112.947 96.467C113.19 96.289 113.602 95.935 113.841 95.3751C114.273 94.3597 113.895 93.229 113.199 92.506C112.434 91.7134 111.42 91.5533 111.104 91.5155Z" fill="#F8B68C"/>
<path d="M140.952 72.2993C142.621 72.4027 144.477 72.4167 146.481 72.2685C151.894 71.8697 156.302 70.4516 159.432 69.124C158.03 65.8462 156.479 62.455 154.765 58.9734C152.825 55.0332 150.84 51.3109 148.848 47.8094C148.062 46.4271 146.639 45.4336 144.973 45.1611C144.961 45.1591 144.949 45.1571 144.937 45.1551C144.861 45.1432 144.784 45.1323 144.708 45.1223C139.803 44.4849 135.734 48.5881 136.718 53.0612L140.951 72.2993H140.952Z" fill="#4F2671"/>
<path d="M81.5884 95.4518C82.3737 95.2658 83.7812 94.9167 85.1068 93.8526C87.0885 92.2605 87.515 90.1691 87.62 89.5108C89.6247 84.6846 91.2784 80.4998 92.5624 77.1703C93.9677 73.5256 95.8937 68.406 98.0078 62.3925C101.014 53.839 100.42 54.7947 101.61 51.9564C102.276 50.3673 103.32 48.0193 104.124 44.6441C104.54 42.8948 104.758 41.4319 104.877 40.4544C104.771 40.4842 104.616 40.5339 104.44 40.6155C103.874 40.877 103.701 41.1853 103.509 41.2668C102.821 41.5612 101.263 39.6339 100.856 39.1337C98.8772 36.6952 98.7547 35.3557 98.734 34.9698C98.7132 34.6049 98.7383 34.3035 98.7624 34.1066C98.8236 34.0161 98.9221 33.8859 99.0697 33.7516C99.4219 33.4284 99.7806 33.3299 99.9633 33.2434C100.284 33.0913 100.64 32.7024 100.773 31.6433C100.128 31.8581 99.3902 32.064 98.5666 32.2271C98.0548 32.3285 97.5692 32.4021 97.1142 32.4558C96.9469 32.6079 96.7796 32.7601 96.6111 32.9133C96.5455 33.0445 96.4482 33.2653 96.388 33.5477C96.2896 34.0082 96.3454 34.3731 96.3596 34.4875C96.4132 34.8913 96.4296 35.656 96.248 37.2551C95.4945 38.186 94.7399 39.1168 93.9863 40.0486C93.7534 40.3469 93.4559 40.8104 93.3159 41.42C93.084 42.4304 93.4209 43.2618 93.6232 43.7809C94.0683 44.9275 94.5682 46.3864 95.1587 48.4022C95.1883 48.5245 95.2167 48.7115 95.1872 48.9352C95.1609 49.1301 95.0997 49.2853 95.0472 49.3927C90.7283 57.4837 86.4093 65.5748 82.0904 73.6668C79.3945 80.2383 77.8491 83.5618 76.9808 85.0167C76.8845 85.1778 76.0971 86.4876 75.6399 88.3174C75.3829 89.3497 75.3971 89.8787 75.4168 90.1452C75.4923 91.1894 75.9068 91.9144 76.4777 92.887C77.4095 94.4742 80.4521 95.7203 81.5873 95.4518H81.5884Z" fill="#F8B68C"/>
<path opacity="0.44" d="M104.439 40.7367C103.874 40.9982 103.701 41.3065 103.509 41.3881C102.825 41.6805 101.282 39.781 100.864 39.2659C99.507 39.956 97.9857 40.1102 96.4655 40.2623C96.2052 40.2971 95.946 40.3389 95.689 40.3926C96.1407 41.8018 96.5486 43.2239 96.9073 44.6599C98.2624 50.0917 98.9175 55.7045 98.4472 61.2547C100.956 54.0497 100.483 54.7677 101.609 52.0767C102.275 50.4875 103.318 48.1396 104.122 44.7643C104.539 43.015 104.757 41.5522 104.876 40.5746C104.771 40.6044 104.614 40.6542 104.438 40.7357L104.439 40.7367Z" fill="#D68D65"/>
<path d="M94.2376 41.7162C94.9288 41.6576 95.0305 41.2707 95.9503 40.8023C96.3692 40.5885 97.2015 40.1778 98.1847 40.2941C98.5576 40.3389 98.8518 40.4473 99.041 40.5308C99.1034 40.9714 99.1646 41.4109 99.227 41.8515C99.2499 41.94 99.3002 42.0653 99.4173 42.118C99.5277 42.1677 99.706 42.1558 100.045 41.9281C101.217 41.1414 101.706 39.96 101.706 39.96C101.962 39.3404 102.209 38.7448 102.028 37.98C101.827 37.1317 101.224 36.6056 100.967 36.4057L98.2448 35.1865C98.0852 35.2134 97.9397 35.2382 97.78 35.2651C97.138 35.9025 96.4851 36.5857 95.83 37.3197C94.791 38.4832 93.1702 41.2299 93.2982 41.5064C93.4064 41.5372 94.0768 41.7302 94.2376 41.7172V41.7162Z" fill="#F8B78D"/>
<path opacity="0.44" d="M102.029 37.979C101.921 37.5236 101.697 37.1626 101.474 36.8931C101.503 37.0343 101.452 37.1884 101.337 37.3147C101.07 37.6071 100.783 37.8826 100.518 38.1769C100.516 38.1799 100.513 38.1829 100.511 38.1849C100.466 38.2475 100.421 38.3092 100.371 38.3669C100.214 38.5976 100.108 38.8452 99.9284 39.069C99.7709 39.2659 99.4931 39.3504 99.2514 39.2181C98.1041 38.5886 97.0695 39.1356 96.0797 39.7184C95.9397 39.8009 95.8041 39.8069 95.6893 39.7661C95.6663 39.8158 95.6444 39.8665 95.6226 39.9163C95.6838 40.2375 95.7374 40.5597 95.7768 40.8948C95.8314 40.864 95.8894 40.8332 95.9518 40.8013C96.3706 40.5875 97.2029 40.1768 98.1861 40.2932C98.5591 40.3379 98.8533 40.4463 99.0425 40.5299L99.2284 41.8505C99.2514 41.939 99.3017 42.0643 99.4187 42.117C99.5292 42.1668 99.7074 42.1548 100.046 41.9271C101.219 41.1405 101.708 39.959 101.708 39.959C101.964 39.3395 102.211 38.7438 102.029 37.979Z" fill="#D68D65"/>
<path d="M119.038 25.415C119.094 26.6779 119.083 28.6182 118.66 30.9383C118.022 34.4339 117.169 39.1089 113.44 41.0252C111.432 42.0565 108.882 42.138 107.158 41.6219C101.563 39.9492 98.7209 30.2352 99.878 17.6272C100.711 16.8138 103.402 14.3962 107.8 13.7548C113.342 12.9462 117.438 15.5657 118.226 16.0918C118.497 19.1995 118.767 22.3072 119.038 25.415Z" fill="#F8B68C"/>
<path d="M99.48 15.497C99.2842 17.7117 101.708 19.4252 101.841 19.5177C105.443 21.9939 109.413 19.1 113.14 21.5613C113.47 21.7791 114.319 22.9158 116.016 25.1892C117.281 26.8818 118.008 28.5604 118.845 29.7618C119.91 31.2923 120.919 32.1326 120.919 32.1326C120.919 32.1326 122.748 30.3992 123.258 29.7966C125.319 27.3591 123.334 22.6732 121.749 18.9349C120.161 15.1868 119.367 13.3132 117.929 12.1655C113.704 8.79427 106.892 9.34621 102.826 11.6971C101.789 12.2968 99.6528 13.531 99.4789 15.496L99.48 15.497Z" fill="#353535"/>
<path d="M88.5418 96.8479H49.3368C47.856 96.8479 46.6562 95.7569 46.6562 94.4104H88.5418V96.8479Z" fill="#048FC9"/>
<path d="M85.1712 94.9943H46.9287C46.3971 94.9943 45.9258 94.684 45.7606 94.2246L35.2876 65.1521C35.0273 64.4301 35.619 63.6873 36.4556 63.6873H74.6971C75.2286 63.6873 75.7 63.9975 75.8651 64.457L86.3382 93.5294C86.5984 94.2514 86.0068 94.9943 85.1701 94.9943H85.1712Z" fill="#42B4E4"/>
<path d="M85.7476 94.4104H115.795C115.795 95.7569 114.595 96.8479 113.115 96.8479H88.4282C86.9473 96.8479 85.7476 95.7569 85.7476 94.4104Z" fill="#048FC9"/>
</g>
<defs>
<clipPath id="clip0_247_5355">
<rect width="190.374" height="97" fill="white" transform="translate(0.812988)"/>
</clipPath>
</defs>
</svg>
