<svg width="164" height="105" viewBox="0 0 164 105" fill="none" xmlns="http://www.w3.org/2000/svg">
<g clip-path="url(#clip0_245_5128)">
<path d="M16.999 96.8614C58.0613 96.8573 98.6179 97.4346 139.685 97.4254C147.821 97.4234 154.779 91.5825 156.147 83.5914C156.505 81.4951 156.899 79.3225 157.303 77.1377C159.649 64.4786 162.303 62.3456 162.938 55.7188C164.169 42.848 156.526 26.1358 142.278 19.119C127.85 12.0137 113.02 17.9869 106.593 20.5749C95.1095 25.2002 87.8801 32.6567 84.2643 37.003C77.4089 41.7596 71.43 43.9801 67.5701 45.1132C53.2645 49.3129 46.3825 44.9503 28.9639 48.8568C20.9907 50.6446 16.5536 51.6403 12.2697 54.887C4.49572 60.7778 1.74229 70.6605 0.993401 79.4712C0.197513 88.8255 7.57812 96.8624 16.999 96.8614Z" fill="#EAF4FE" fill-opacity="0.1"/>
<path d="M121.307 2.23779C106.866 2.23779 95.1582 13.9042 95.1582 28.2951C95.1582 42.686 106.866 54.3525 121.307 54.3525C135.748 54.3525 147.456 42.686 147.456 28.2951C147.456 13.9042 135.748 2.23779 121.307 2.23779Z" fill="#69418E"/>
<path d="M121.307 56.5913C105.651 56.5913 92.9126 43.8976 92.9126 28.2951C92.9126 12.6927 105.651 0 121.307 0C136.963 0 149.703 12.6937 149.703 28.2961C149.703 43.8986 136.964 56.5923 121.307 56.5923V56.5913ZM121.307 4.47558C108.126 4.47558 97.4039 15.1606 97.4039 28.2951C97.4039 41.4297 108.126 52.1147 121.307 52.1147C134.488 52.1147 145.21 41.4297 145.21 28.2951C145.21 15.1606 134.488 4.47558 121.307 4.47558Z" fill="#00B4AA"/>
<path d="M122.753 28.296C122.753 29.0912 122.106 29.7356 121.308 29.7356C120.51 29.7356 119.862 29.0912 119.862 28.296C119.862 27.5009 120.509 26.8564 121.308 26.8564C122.107 26.8564 122.753 27.5009 122.753 28.296Z" fill="#5B2D82"/>
<path d="M121.579 5.74316H120.98V8.72722H121.579V5.74316Z" fill="#67ADEB"/>
<path d="M121.878 47.8213H121.28V50.8054H121.878V47.8213Z" fill="#67ADEB"/>
<path d="M101.813 28.125H98.8188V28.7216H101.813V28.125Z" fill="#67ADEB"/>
<path d="M144.038 27.8267H141.044V28.4233H144.038V27.8267Z" fill="#67ADEB"/>
<path d="M121.579 10.5181H120.98V27.8268H121.579V10.5181Z" fill="#67ADEB"/>
<path d="M129.291 19.3993L120.933 27.7837L121.358 28.2042L129.716 19.8198L129.291 19.3993Z" fill="#67ADEB"/>
<path d="M122.589 96.5773C122.632 96.3645 122.666 96.0845 122.642 95.7588C122.599 95.1784 122.393 94.7376 122.25 94.4851H86.8859C86.6703 94.6735 86.3495 95.0043 86.1227 95.5032C85.7161 96.3961 85.8785 97.2258 85.949 97.5129C98.1632 97.2014 110.376 96.8888 122.59 96.5773H122.589Z" fill="#42B4E4"/>
<path d="M122.746 104.194C122.678 102.035 122.674 99.8068 122.746 97.513C122.76 97.0508 122.778 96.5916 122.798 96.1355H84.9213C84.7313 96.9795 84.5658 97.909 84.4524 98.917C84.2419 100.785 84.2603 102.464 84.3737 103.882C97.1641 103.986 109.955 104.09 122.745 104.194H122.746Z" fill="#C7E2FA"/>
<path d="M123.581 103.648H83.731V105H123.581V103.648Z" fill="#797979"/>
<path d="M98.9051 43.1858C99.0777 44.5104 99.1717 46.2157 98.9572 48.1766C98.6762 50.7453 97.9661 52.8171 97.3398 54.2587C98.2399 53.9961 99.6693 53.4544 101.044 52.2836C104.277 49.5296 104.625 45.4908 104.749 44.0695C104.856 42.8305 104.878 40.6487 103.966 38.0393C103.793 37.9925 101.768 37.4885 100.158 38.8711C98.9469 39.9106 98.4565 41.5996 98.9051 43.1858Z" fill="#353535"/>
<path d="M75.862 83.6148C76.4444 84.6838 77.0911 85.7843 77.8093 86.9073C79.6606 89.7997 81.6141 92.2473 83.4786 94.2896C83.8924 94.8913 84.8324 96.0723 86.4701 96.7503C87.1577 97.0354 88.1324 97.4396 89.2522 97.1667C91.1392 96.7065 91.979 94.6775 92.1394 94.2896C92.3907 93.6828 92.8924 92.1668 91.7573 88.3632C90.8276 85.2488 89.5505 83.1128 87.8616 80.2876C87.5623 79.7877 86.2453 77.6008 84.2449 74.8804C83.9834 74.5251 83.7341 74.1922 83.4991 73.8847C82.9218 73.1283 81.8113 73.0509 81.1278 73.7137C79.9763 74.8316 79.1059 75.8782 78.4714 76.7171C76.1665 79.7673 75.9223 81.4951 75.8631 82.0896C75.7997 82.7259 75.8273 83.2584 75.8631 83.6148H75.862Z" fill="#EC9569"/>
<path d="M75.3745 86.6477C76.1356 86.5774 76.4922 85.1287 77.3044 83.1648C78.5866 80.0646 80.6085 76.6326 83.8779 73.1833C82.8756 70.8091 81.7671 68.3605 80.539 65.8529C79.8841 64.5152 79.2221 63.215 78.557 61.9536C77.57 61.9536 76.7568 62.1338 76.105 62.37C70.8106 64.28 69.8584 72.0542 69.792 72.664C72.6711 84.3682 74.3569 86.7424 75.3745 86.6487V86.6477Z" fill="#950566"/>
<path d="M19.8648 99.1765C21.6772 95.3179 23.2854 92.284 24.351 90.3384C27.1248 85.2754 28.1751 84.019 34.0549 74.3257C38.0374 67.7599 37.9189 67.7375 38.9589 66.4232C41.0411 63.7924 44.7232 59.2455 51.167 56.3378C53.7968 55.1507 58.3719 53.1553 64.2097 53.9463C67.0643 54.3332 72.1696 55.0245 74.9568 59.3535C77.6325 63.5083 76.4065 68.271 76.1041 69.3349C73.6347 76.2672 71.1653 83.1985 68.6959 90.1307C68.2801 90.6163 67.8622 91.101 67.4433 91.5866C65.0138 94.4027 62.5781 97.175 60.1394 99.9045C46.7145 99.6622 33.2886 99.4189 19.8638 99.1765H19.8648Z" fill="#B51E84"/>
<path d="M65.2538 54.1029C64.8584 54.4308 64.2659 55.0243 63.9491 55.9223C63.6283 56.8325 63.7009 57.7457 64.1055 59.0937C64.6337 60.854 65.2875 61.8873 66.9754 64.6566C69.0412 68.0479 69.2404 68.4348 70.0016 68.8675C70.212 68.9876 72.5772 70.2857 74.7493 69.0751C76.4718 68.1151 77.3975 65.9547 76.9929 63.7199C78.6623 62.8535 80.3317 61.9871 82.0012 61.1207C81.8806 58.8198 81.7917 56.4629 81.7406 54.05C81.709 52.5737 81.6916 51.1179 81.6885 49.6833C81.1583 50.6231 80.1969 51.9934 78.5581 52.9067C77.093 53.7232 75.4399 53.7914 72.1931 53.8942C68.7623 54.0032 66.2775 54.0734 65.2548 54.1019L65.2538 54.1029Z" fill="#F9B68C"/>
<path opacity="0.44" d="M81.7397 54.051C81.7244 53.3566 81.7131 52.6674 81.705 51.9822C81.4056 52.3833 81.0245 52.7172 80.575 52.9412C80.2011 53.1275 79.8414 53.3342 79.493 53.5623C78.9168 54.0275 78.3906 54.5447 77.9043 55.1037C76.7723 56.6044 75.8998 58.2751 75.1315 59.9855C74.6033 61.2204 74.165 62.4809 73.9136 63.7983C73.7103 65.6604 73.7277 67.6895 72.6192 69.2696C72.5446 69.3754 72.4669 69.4772 72.3862 69.574C73.1218 69.6249 73.9484 69.52 74.7494 69.0741C76.4719 68.114 77.3976 65.9536 76.993 63.7189C78.6624 62.8525 80.3318 61.9861 82.0013 61.1196C81.8807 58.8187 81.7918 56.4618 81.7407 54.0489L81.7397 54.051Z" fill="#D68D65"/>
<path d="M79.9733 54.7098C79.771 56.1901 79.9028 57.5879 80.0173 59.3024C80.1715 61.6105 80.2768 63.1834 81.2698 64.4489C83.2059 66.9188 87.2027 66.5452 87.8433 66.476C89.4494 65.3113 91.0688 64.0824 92.6953 62.7843C93.0641 62.4901 93.4289 62.1959 93.7905 61.9006C94.1553 62.0829 94.521 62.2641 94.8858 62.4463C95.0053 62.4758 95.1964 62.5023 95.3813 62.4198C95.6847 62.2855 95.7981 61.9403 95.8513 61.7703C96.2671 60.4345 96.4755 59.7667 96.6339 59.0927C96.7524 58.5887 96.972 57.8638 97.4165 57.0127C97.9028 56.3418 98.4044 55.5629 98.8775 54.6731C99.6713 53.1806 100.161 51.7919 100.678 49.8901C101.742 45.9734 102.276 44.0156 101.93 43.1319C100.928 40.5683 95.8809 39.6042 89.7743 40.2904C85.2493 41.7473 81.8205 43.981 81.1483 45.0042C80.0704 47.188 80.6262 49.941 79.9733 54.7087V54.7098Z" fill="#F9B68C"/>
<path d="M85.2869 48.2285C86.6672 48.7253 88.8443 49.329 91.5477 49.3199C93.4664 49.3138 97.5766 49.3005 101.095 46.4081C103.058 44.7944 104.169 42.8345 104.8 41.2616C104.803 40.8798 104.789 40.3178 104.696 39.6499C103.965 34.4189 99.5955 31.1579 98.2264 30.1357C96.4988 28.8458 90.7569 24.5606 84.349 26.3922C77.2789 28.4141 74.7942 36.3421 73.7582 39.6489C72.6415 43.2143 72.8735 45.6445 72.9756 46.459C73.3996 49.8472 74.9475 52.2734 75.8455 53.4778C76.1735 53.5745 77.0869 53.7944 78.1412 53.4259C79.4878 52.9545 80.0947 51.8621 80.2285 51.6065C80.4022 51.3296 80.5759 51.0517 80.7506 50.7747C80.768 49.5449 80.7853 48.314 80.8027 47.0831C81.2063 46.1475 82.0594 45.5244 82.9421 45.5234C84.1497 45.5213 85.3175 46.687 85.2899 48.2264L85.2869 48.2285Z" fill="#353535"/>
<path d="M86.5397 27.8228C85.3239 27.1529 83.5267 26.203 81.2964 25.1717C78.3734 23.8196 75.3094 22.605 74.019 22.208C67.7704 20.2878 57.2348 23.4399 51.872 30.5523C47.1539 36.8096 50.1638 41.1946 44.8286 45.9145C41.7585 48.6318 35.9165 51.4662 31.6816 48.9556C28.7811 47.236 27.9382 43.7826 27.691 42.4835C26.8174 43.077 25.6691 44.0748 25.1081 45.603C23.6982 49.4432 26.9788 53.9656 29.3338 56.0528C36.8636 62.7264 50.2701 58.0991 52.811 57.2226C55.2232 56.3897 62.1879 53.986 67.7581 47.8652C70.7741 44.5502 71.5966 42.1068 75.7405 39.365C78.5287 37.5202 80.4515 37.1089 82.7053 34.7642C84.9847 32.3931 86.0217 29.691 86.5397 27.8238V27.8228Z" fill="#353535"/>
<path d="M51.0627 86.3534C50.888 89.4607 50.8185 92.7227 50.889 96.1272C50.9115 97.1942 50.9462 98.2459 50.9932 99.2813C51.1833 99.5908 51.451 99.938 51.828 100.252C52.8772 101.126 54.186 101.195 55.4447 101.153C59.5733 101.013 61.6381 100.944 62.9918 99.2467C64.5356 97.3113 64.0636 94.6785 63.896 93.9088C63.8153 91.9449 63.7336 89.9809 63.6529 88.017C61.9354 87.5314 59.9411 87.0794 57.7057 86.7688C55.2332 86.4257 52.9927 86.328 51.0627 86.3524V86.3534Z" fill="#F8B68C"/>
<path d="M51.2189 100.398C51.4794 100.797 51.8921 101.008 52.2365 101.126C53.3756 101.214 55.0655 101.311 57.1139 101.308C60.3465 101.302 61.8709 101.049 68.9307 100.321C74.3384 99.7639 74.3772 99.8168 77.617 99.4371C80.7525 99.0696 83.3905 98.7071 85.3378 98.4231C85.6198 98.419 86.1562 98.3732 86.7201 98.0596C87.5845 97.5791 87.9278 96.7982 88.0248 96.5518C88.0769 96.3227 88.1679 95.775 87.9206 95.1743C87.4905 94.1277 86.4116 93.8314 86.2767 93.7968C81.623 93.188 76.7557 92.6718 71.6861 92.2808C68.5649 92.0396 65.5142 91.8573 62.5391 91.726C61.1976 91.6354 59.0112 91.6903 56.6613 92.7308C55.8093 93.1086 54.0928 93.8925 52.6962 95.6772C52.45 95.9918 50.2094 98.8547 51.2178 100.399L51.2189 100.398Z" fill="#F8B68C"/>
<path d="M86.4875 98.6826C87.4785 99.1031 88.3418 99.1815 88.913 99.2283C90.66 99.3729 92.1425 99.0003 93.1131 98.6562C93.5054 98.479 94.1256 98.2224 94.9133 98.0066C96.3763 97.6045 98.5811 96.9987 100.6 97.8508C101.343 98.1644 101.698 98.5218 102.582 98.6042C103.381 98.6786 104.06 98.477 104.512 98.2927C104.13 98.143 103.667 97.9221 103.182 97.5912C102.85 97.3642 102.573 97.13 102.347 96.9152C102.769 96.9722 103.243 97.0618 103.756 97.2013C104.345 97.3621 104.86 97.5556 105.295 97.747C105.485 97.8508 106.089 98.1502 106.885 98.0331C107.633 97.9231 108.107 97.5108 108.268 97.3571C107.998 97.0801 107.728 96.8022 107.46 96.5253C107.543 96.5517 108.113 96.7207 108.529 96.3949C108.619 96.3247 108.687 96.2433 108.738 96.1608C106.25 94.5298 104.951 93.7479 104.225 93.3539C103.958 93.2083 103.061 92.7318 101.981 91.9245C101.836 91.8165 101.719 91.7249 101.642 91.6648C100.822 91.5243 99.5752 91.3747 98.0682 91.4572C95.7991 91.5803 94.2512 92.1586 92.7994 92.6005C91.1045 93.1167 88.6095 93.7306 85.3391 94.0299C85.2421 94.0431 84.2858 94.1928 83.826 95.0694C83.589 95.5224 83.8127 96.4744 84.2786 97.2359C84.5882 97.7419 85.0817 98.1552 85.3391 98.31C85.7958 98.5849 86.3026 98.6042 86.4865 98.6826H86.4875Z" fill="#F8B68C"/>
<path opacity="0.44" d="M52.7705 92.5802C55.574 90.3332 58.8576 88.4202 62.4182 87.6872C61.0011 87.3298 59.4247 87.0081 57.7062 86.7688C55.2337 86.4257 52.9932 86.328 51.0632 86.3524C50.9212 88.8814 50.8497 91.5142 50.8661 94.2417C51.4842 93.6655 52.1166 93.1035 52.7705 92.5791V92.5802Z" fill="#D68D65"/>
<path d="M47.2549 86.3362C46.2567 84.9852 47.0577 83.4764 48.5596 77.4461C49.2022 74.8632 49.5363 73.2118 50.5416 69.5436C51.2977 66.7886 51.6675 65.687 52.5758 64.449C53.0815 63.7598 54.4281 61.9252 56.593 61.2257C59.418 60.3125 62.8324 61.5922 65.358 64.2933C65.497 71.8659 65.6359 79.4396 65.7759 87.0122C65.7749 87.5233 65.6829 88.235 65.2017 88.7797C64.3915 89.698 62.9652 89.5911 61.0281 89.4038C54.2943 88.7501 51.9475 88.1322 50.9074 87.844C47.8086 86.9858 47.4511 86.6009 47.2559 86.3362H47.2549Z" fill="#950566"/>
<path d="M86.3821 74.3266C86 77.2191 85.6689 79.5648 85.4431 81.1367C84.7259 86.1234 84.352 88.2645 84.1385 91.6904C84.0342 93.3692 84.0067 94.7467 83.9995 95.6416C84.4215 96.1344 85.3011 97.0018 86.6773 97.3745C88.7799 97.9436 91.0665 97.0955 92.3119 95.5378C92.7798 94.9524 93.0199 94.368 93.1466 93.9781C93.4367 90.3383 93.4776 85.8882 92.834 80.8771C92.3977 77.4848 91.7275 74.4529 90.9909 71.8313C90.7201 71.7172 90.245 71.5635 89.6688 71.6236C88.9066 71.703 88.405 72.1112 87.8952 72.5246C87.5008 72.8453 86.898 73.4165 86.3821 74.3266Z" fill="#F8B68C"/>
<path d="M79.9397 77.1334C79.8345 77.4572 79.6291 78.0833 79.2613 78.8489C78.9221 79.5555 78.7249 79.7998 78.5574 80.4341C78.444 80.8627 78.3581 81.2038 78.5308 81.3962C78.7474 81.6365 79.3114 81.5733 79.9397 81.2404C80.0296 81.0582 80.2094 80.6906 80.4352 80.2264C81.4712 78.0986 81.6694 77.6424 82.1833 77.1588C82.6236 76.7455 82.7595 76.8157 83.6443 76.2751C84.7957 75.5706 85.6182 74.807 86.1484 74.2481C86.3395 74.4212 86.5305 74.5942 86.7226 74.7683C87.1027 74.8172 87.9772 74.8732 88.8876 74.4049C90.5233 73.5619 90.8359 71.7609 90.8696 71.545C90.7419 70.8955 90.4252 69.7888 89.5394 68.79C88.0099 67.0654 85.8522 66.8658 84.7395 66.763C82.6931 66.5736 81.1259 67.1366 80.3831 67.4126C79.0539 67.9073 78.069 68.5742 77.4356 69.0761C77.126 69.1606 76.6846 69.2838 76.1574 69.4396C74.2265 70.0097 72.792 70.4333 71.3842 71.0777C70.48 71.4911 69.2611 72.1437 67.9146 73.1832C68.123 73.3654 68.3324 73.5466 68.5408 73.7289C71.0736 73.1699 71.5405 73.0528 71.5405 73.0528C73.1312 72.6548 74.1202 72.3239 74.5667 72.1691C75.0173 72.0134 75.1378 71.9411 75.428 71.8576C75.7161 71.7741 76.1002 71.6937 76.5753 71.6753C76.0778 71.9156 75.4208 72.2679 74.6975 72.7668C74.3021 73.0396 73.5859 73.5334 72.9238 74.2226C72.3966 74.7704 71.5374 75.8221 70.9673 77.5244C70.8539 77.8359 70.7415 78.1484 70.6281 78.46C70.811 78.5139 71.1206 78.576 71.4894 78.5119C72.2281 78.3826 72.6429 77.843 72.742 77.7066C73.0321 77.1141 73.5236 76.2935 74.3327 75.4973C75.5363 74.3133 76.8338 73.7838 77.5674 73.5476C77.3916 73.905 77.1423 74.4069 76.8369 75.0035C76.5099 75.6419 76.1156 76.3983 75.2196 78.0446C74.7496 78.908 74.1519 79.9994 73.4459 81.2679C73.5276 81.4135 73.6737 81.61 73.9159 81.7098C74.3695 81.8961 74.9917 81.6701 75.4024 81.1121C76.0287 80.2111 76.655 79.3101 77.2803 78.4091C77.8371 77.8634 78.3929 77.3177 78.9497 76.771C79.3931 76.4767 79.8365 76.1815 80.2799 75.8872C80.2135 76.1896 80.1073 76.6233 79.9407 77.1354L79.9397 77.1334Z" fill="#F8B68C"/>
<path opacity="0.44" d="M75.023 60.229C75.023 60.229 75.0189 60.2372 75.0179 60.2413C74.9484 60.3981 74.88 60.5548 74.8115 60.7116L75.024 60.228L75.023 60.229Z" fill="#D68D65"/>
</g>
<defs>
<clipPath id="clip0_245_5128">
<rect width="162.132" height="105" fill="white" transform="translate(0.934082)"/>
</clipPath>
</defs>
</svg>
