<svg width="166" height="105" viewBox="0 0 166 105" fill="none" xmlns="http://www.w3.org/2000/svg">
<g clip-path="url(#clip0_247_5301)">
<path d="M1.77383 98.3139C6.66189 93.2709 10.1412 89.9704 10.8357 89.2825C19.0409 81.1574 16.3252 63.692 21.2407 46.7998C22.6725 41.8801 27.0862 26.7075 40.036 16.6946C55.6237 4.64013 80.1725 2.69237 96.424 12.0108C108.195 18.7592 107.419 26.7217 119.247 30.0746C132.339 33.7856 139.95 25.9203 149.454 31.0779C156.424 34.8599 158.774 42.5832 161.538 52.1517C162.978 57.1401 164.559 64.0916 165.2 72.767C166.37 88.6023 153.856 102.129 137.926 102.351C93.3621 102.975 48.7977 103.597 4.23429 104.22C1.16473 104.263 -0.432488 100.591 1.70043 98.3892C1.72453 98.3641 1.74972 98.339 1.77383 98.3128V98.3139Z" fill="#EAF4FE" fill-opacity="0.1"/>
<path d="M137.962 55.8429C135.241 55.0372 133.835 54.9793 130.996 54.75C128.659 54.5611 125.493 54.0305 122.552 53.8646C125.191 53.4835 127.861 53.1473 130.522 53.3329C133.184 53.5185 135.866 54.262 137.962 55.844V55.8429Z" fill="#00B4AA"/>
<path d="M146.741 64.0107C146.218 64.0872 145.697 64.1647 145.174 64.2411C145.686 64.1167 146.206 64.0337 146.741 64.0107Z" fill="#00B4AA"/>
<path d="M111.511 69.7153C112.157 69.1727 112.804 68.6301 113.449 68.0864C113.044 68.605 112.796 69.236 112.744 69.8835C113.067 68.7797 113.78 67.784 114.739 67.0983C114.67 67.4662 114.601 67.8342 114.532 68.2032C114.943 67.3658 115.81 66.7992 116.728 66.5142C117.646 66.2292 118.625 66.1889 119.589 66.1506C118.25 66.4181 116.976 66.9771 115.89 67.773C117.53 67.3079 119.183 66.8396 120.885 66.6878C122.589 66.536 124.365 66.7206 125.872 67.4957C123.744 67.4684 121.578 67.4466 119.541 68.0307C117.503 68.6148 115.575 69.9108 114.808 71.8127C116.309 69.9403 118.498 68.5864 120.896 68.046C119.816 68.7917 118.882 69.7328 118.159 70.805C118.859 69.7863 120.029 69.0756 121.289 68.902C120.621 69.1858 120.049 69.676 119.682 70.282C121.288 68.7032 123.686 67.8997 125.968 68.1781C126.525 68.2458 127.07 68.379 127.594 68.5668C127.594 68.5668 131.114 71.5365 133.467 74.0989C133.651 74.4057 133.826 74.7147 133.988 75.0236C133.083 74.9134 132.165 74.9298 131.252 74.9472C130.058 74.9701 128.914 74.5804 127.758 74.8719C126.602 75.1634 125.513 75.6514 124.431 76.1373C123.348 76.6231 122.248 77.1199 121.35 77.8776C120.451 78.6353 119.767 79.7042 119.769 80.8506C120.321 79.762 121.198 78.8285 122.269 78.1877C121.868 78.786 121.561 79.4399 121.354 80.1223C120.947 80.4116 120.568 80.7337 120.239 81.1006C119.682 81.7207 119.269 82.4773 119.163 83.2885C119.787 82.6203 120.595 82.1105 121.483 81.8266C121.213 82.1138 120.942 82.402 120.671 82.6891C121.699 82.2197 122.728 81.7502 123.755 81.2807C123.879 81.2239 124.002 81.1683 124.125 81.1115C124.134 81.1573 124.142 81.2043 124.152 81.2501C124.154 81.1977 124.159 81.1453 124.165 81.0929C124.558 80.9139 124.953 80.737 125.35 80.5667C126.383 80.1256 127.438 79.7336 128.511 79.3919C128.769 79.7893 129.058 80.166 129.359 80.5361C128.74 80.5634 128.127 80.6497 127.534 80.8189C126.137 81.2185 124.846 82.14 124.314 83.4414C125.102 82.5297 126.208 81.8757 127.411 81.6082C126.261 82.1683 125.196 82.8889 124.26 83.7405C125.053 83.294 125.846 82.8463 126.64 82.3998C125.821 82.8802 125.121 83.5451 124.615 84.3257C125.542 83.3147 126.723 82.5199 128.029 82.0275C127.616 82.3419 127.203 82.6553 126.791 82.9697C125.976 83.5899 125.096 84.3192 124.994 85.3116C125.386 85.0529 125.779 84.7941 126.171 84.5354C126.048 84.912 125.925 85.2887 125.802 85.6654C126.218 84.8487 126.752 84.0866 127.383 83.4086C127.238 83.8694 127.092 84.3301 126.945 84.7897C127.363 83.972 128.056 83.3191 128.736 82.6837C129.026 82.4129 129.321 82.1389 129.683 81.9675C129.904 81.8626 130.156 81.8026 130.4 81.8113C130.481 81.914 130.561 82.0177 130.64 82.1214C130.107 82.6979 129.879 83.5287 130.071 84.2799C130.84 83.5298 131.408 82.5909 131.706 81.5788C131.857 81.5962 131.967 81.736 131.997 81.879C132.026 82.022 131.992 82.1694 131.961 82.3125C131.708 83.5036 131.661 84.7352 131.823 85.9405C132.648 84.9677 133.117 83.7231 133.13 82.4697C133.133 82.3037 133.127 82.1334 133.185 81.9773C133.243 81.8212 133.383 81.6792 133.557 81.6727C134.023 81.6519 133.944 82.1836 133.937 82.4457C133.915 83.258 134.321 83.7482 134.764 84.365C135.229 85.0146 135.527 85.7822 135.627 86.5639C135.899 85.5988 135.54 84.5561 135.757 83.5779C135.791 83.4239 135.84 83.2743 135.895 83.1269C136.142 83.6346 136.373 84.1456 136.607 84.6402C137.149 85.7789 137.284 87.1971 137.27 88.42C136.87 91.3143 136.35 98.4361 136.35 98.4361C137.244 98.3127 139.76 98.4361 140.426 97.8694C140.982 97.3967 140.342 95.2994 140.241 94.5766C140.058 93.2752 139.864 91.9748 139.687 90.6723C138.823 83.6237 139.966 78.8089 139.966 78.8089C140.524 77.5239 141.167 76.2727 141.89 75.0662C142.966 75.8741 143.96 76.7825 144.854 77.7739C144.139 76.7607 143.679 75.5826 143.525 74.3675C144.049 75.8425 145.645 76.6723 146.673 77.8787C146.042 76.5249 145.534 75.1197 145.157 73.6818C145.956 74.8555 146.792 76.0598 147.98 76.8677C147.796 76.4943 147.738 76.0783 147.781 75.67C147.81 75.3981 147.928 75.1481 148.001 74.8839C148.072 74.624 148.12 74.3587 148.144 74.0923C148.191 73.5617 148.131 73.0202 147.992 72.5147C147.761 71.6751 147.307 70.8847 146.656 70.2558C146.626 70.2252 146.591 70.1957 146.553 70.175C146.931 69.9293 147.321 69.7011 147.722 69.4893C147.752 69.4741 147.783 69.4588 147.812 69.4435C148.169 71.115 148.692 72.768 149.566 74.2539C150.074 75.1186 150.715 75.9648 150.815 76.9539C151.185 75.3501 150.55 73.708 149.925 72.1784C151.025 73.1949 152.125 74.2114 153.226 75.2278C153.001 73.9963 152.733 72.7243 151.972 71.709C152.881 72.3149 153.789 72.9198 154.697 73.5257C154.256 73.0901 154.005 72.483 154.017 71.876C154.476 72.8193 155.099 73.6884 155.853 74.4373C155.589 73.4755 155.231 72.5376 154.783 71.6402C155.372 72.4055 156.016 73.1305 156.712 73.8085C156.032 72.6894 155.617 71.4229 155.509 70.1313C156.623 71.5223 157.953 72.7538 159.44 73.7746C158.753 72.9962 158.413 72.0005 157.974 71.0724C157.536 70.1444 156.924 69.2088 155.951 68.7993C157.024 69.2153 158.053 69.7372 159.017 70.353C158.938 70.0407 158.72 69.7645 158.43 69.6062C159.444 70.0647 160.359 70.7231 161.103 71.5277C160.972 70.8814 160.579 70.3049 160.094 69.8376C159.609 69.3703 159.034 69.0002 158.464 68.6334C158.24 68.4893 158.015 68.3462 157.787 68.2098C158.728 68.4871 159.653 68.8321 160.569 69.1749C159.049 67.3876 156.427 66.5328 154.084 67.0612C152.32 67.4586 150.462 66.6976 148.696 67.0863C148.749 66.3548 149.462 65.7936 150.21 65.6364C150.957 65.4792 151.734 65.6342 152.481 65.7893C151.886 65.287 151.037 65.1265 150.251 65.2204C149.464 65.3143 148.727 65.6375 148.036 66.0087C146.771 66.6867 145.542 67.6267 145.114 68.9533C144.935 69.5079 144.908 70.0964 144.785 70.6641C144.712 71.0037 144.595 71.3465 144.408 71.6402C144.262 71.7515 144.116 71.864 143.971 71.9775C144.575 69.64 145.447 67.3658 146.569 65.2117C147.226 65.1102 147.882 65.0086 148.54 64.9071C147.242 64.2891 145.592 64.9027 144.678 65.9792C143.764 67.0557 143.436 68.4772 143.245 69.8529C142.859 70.2732 142.939 70.9371 143.075 71.4819C143.156 71.8083 143.244 72.1457 143.189 72.4776C143.178 72.5431 143.16 72.6097 143.135 72.673C142.946 72.8401 142.763 73.0137 142.587 73.1927C142.576 73.1949 142.565 73.1982 142.554 73.2003C142.599 72.5529 142.644 71.9044 142.687 71.257C142.777 69.9588 142.867 68.6585 143.057 67.3702C143.105 67.0448 143.163 66.7118 143.343 66.4323C143.62 66.0032 144.133 65.7794 144.618 65.5785C144.146 65.6724 143.673 65.7663 143.201 65.8602C141.987 67.3865 141.353 69.3278 141.441 71.2449C140.929 69.9392 140.416 68.6323 139.905 67.3265C139.406 67.3942 139.007 67.7938 138.835 68.2469C138.663 68.7 138.682 69.2 138.757 69.6771C138.924 70.7656 139.363 71.816 140.024 72.7156C139.601 72.8936 139.177 73.0715 138.755 73.2495C138.436 73.0562 138.117 72.863 137.799 72.6697C137.529 72.506 137.251 72.3575 136.966 72.2265C136.926 70.7132 136.914 69.1083 136.941 67.4138C139.821 67.0481 142.316 65.1407 145.096 64.4649C143.111 64.7575 141.126 65.0501 139.141 65.3416C143.035 63.1689 147.535 62.0062 152.041 62.0095C150.564 61.8042 149.054 61.8097 147.579 62.0258C148.783 61.2769 150.229 60.8904 151.663 60.9329C151.243 60.827 150.823 60.7211 150.403 60.6152C152.453 60.5072 154.51 60.553 156.552 60.7528C154.339 59.7527 151.834 59.3553 149.402 59.6184C152.151 58.7887 155.189 58.8673 157.887 59.8368C155.282 58.6183 152.551 57.4043 149.653 57.4065C145.441 57.4097 141.677 59.9634 137.51 60.5421C138.764 60.3532 140.032 60.244 141.301 60.2156C139.957 60.993 138.615 61.7714 137.272 62.5499C137.977 62.4112 138.68 62.2715 139.385 62.1328C139.011 63.1569 138.117 63.9932 137.041 64.3317C137.245 60.8642 137.792 57.984 138.482 55.6268C141.399 55.6934 144.322 55.522 147.242 55.3932C144.124 55.9631 141.055 56.7885 138.084 57.8606C144.241 57.2088 150.41 56.6706 156.587 56.2459C155.971 55.8408 155.291 55.5417 154.578 55.331C155.407 55.3724 156.235 55.4369 157.062 55.5308C156.597 54.8953 155.76 54.6038 154.955 54.5198C154.15 54.4357 153.333 54.5198 152.526 54.4532C151.588 54.3756 150.68 54.095 149.743 54.0088C148.577 53.9007 147.406 54.095 146.251 54.2883C143.666 54.7217 141.08 55.1552 138.494 55.5897C138.722 54.8134 138.966 54.095 139.218 53.4312C143.232 53.4553 147.245 53.4793 151.259 53.5044C153.001 53.5153 154.759 53.5273 156.463 53.8734C155.611 53.2959 154.623 52.9039 153.594 52.7347C152.549 52.5633 151.468 52.6178 150.439 52.3722C149.72 52.1997 149.043 51.8842 148.317 51.739C147.307 51.537 146.258 51.6767 145.244 51.8612C143.219 52.2314 141.234 52.7794 139.254 53.3362C139.595 52.4464 139.951 51.6571 140.304 50.9594C142.063 51.1177 143.843 50.7378 145.601 50.9201C146.551 51.0184 147.489 51.2815 148.444 51.2389C149.719 51.1832 150.896 50.5915 152.005 49.9844C152.633 49.6405 153.297 49.2759 154.021 49.2857C154.66 49.2944 155.249 49.5958 155.81 49.8895C155.546 49.4178 155.138 49.0204 154.649 48.7594C155.505 48.5717 156.292 48.1098 156.859 47.4668C154.224 48.6 151.231 48.5564 148.373 48.9494C145.632 49.3261 142.973 50.1155 140.33 50.9092C140.634 50.3098 140.937 49.7803 141.225 49.3174C141.227 49.3206 141.229 49.3239 141.232 49.3272C141.235 49.3163 141.237 49.3043 141.24 49.2922C141.321 49.1623 141.4 49.0389 141.479 48.9199C141.548 49.1077 141.823 49.1339 142.037 49.1197C144.674 48.9505 147.31 48.7802 149.946 48.611C151.411 48.5171 152.885 48.421 154.308 48.076C153.239 48.2933 152.088 48.112 151.147 47.5792C152.572 47.8423 154.054 47.8238 155.472 47.5235C153.646 47.2768 151.821 47.03 149.994 46.7822C151.067 46.649 152.137 46.435 153.191 46.221C151.526 45.8651 149.957 45.0233 148.25 45.0059C147.08 44.9939 145.947 45.3738 144.87 45.8105C145.657 44.6696 146.923 43.8409 148.318 43.5516C147.024 43.2634 145.603 43.3638 144.458 44.0101C143.313 44.6554 142.501 45.8924 142.581 47.1632C142.836 46.6632 143.46 46.4219 144.04 46.4121C144.296 46.4077 144.549 46.4394 144.798 46.4863C143.957 46.7254 143.188 47.1938 142.444 47.6535L143.204 47.4013C143.627 47.362 144.051 47.3226 144.474 47.2844C143.603 47.6687 142.732 48.0542 141.86 48.4385C141.832 48.4505 141.803 48.4647 141.775 48.48C142.636 47.2506 143.266 46.7003 143.266 46.7003C142.553 47.2866 141.916 47.9559 141.347 48.6852C141.433 47.7987 141.224 46.8859 140.839 46.0693C140.362 45.0539 139.63 44.1674 138.852 43.3398C138.631 43.104 138.307 42.8507 138.006 42.9839C137.729 43.1072 137.695 43.473 137.762 43.759C137.876 44.2471 138.161 44.6805 138.44 45.103C139.313 46.4241 140.186 47.7452 141.06 49.0662C140.573 49.7355 140.138 50.4506 139.752 51.1952C139.741 50.8131 139.842 50.4288 139.886 50.0456C139.939 49.5848 139.88 49.0619 139.514 48.7594C139.28 48.5662 138.965 48.5007 138.677 48.3926C137.194 47.838 136.309 46.1086 134.729 45.9306C134.574 45.9131 134.406 45.9153 134.28 46.0027C134.016 46.1861 134.114 46.589 134.3 46.8444C134.71 47.4067 135.376 47.7343 135.987 48.0913C137.421 48.9265 138.685 50.0281 139.688 51.3175C139.329 52.0217 139.011 52.7521 138.731 53.4946C137.905 51.9224 136.309 50.8743 134.78 49.8971C133.959 49.3719 133.129 48.8424 132.213 48.4854C131.355 48.1502 130.427 47.969 129.62 47.5301C129.115 47.255 128.674 46.887 128.178 46.5977C127.683 46.3084 127.103 46.0955 126.529 46.1817C128.591 47.5596 130.653 48.9385 132.667 50.3808C134.523 51.7095 136.438 53.1375 138.72 53.5175C138.09 55.1901 137.646 56.9261 137.335 58.578C134.913 57.2547 132.429 55.9336 129.692 55.4358C127.955 55.1202 126.173 55.1486 124.414 54.987C122.654 54.8255 120.852 54.4477 119.432 53.4389C120.506 54.2282 121.663 54.9128 122.881 55.4773C121.952 55.5133 120.981 55.593 120.054 55.629C121.627 55.7109 123.092 56.4053 124.441 57.1859C125.79 57.9666 127.088 58.8542 128.559 59.3946C131.24 60.3783 134.31 60.1414 136.925 61.2518C136.833 62.0247 136.767 62.753 136.72 63.4179C136.551 63.1438 136.278 62.9255 135.917 62.6667C134.429 61.5968 132.621 61.0301 130.864 60.5072C126.967 59.3477 123.038 58.2875 119.082 57.3279C121.317 58.4742 123.553 59.6206 125.787 60.767C123.757 60.2637 121.727 59.7615 119.698 59.2581C120.954 59.9099 122.308 60.3685 123.595 60.9624C126.164 62.147 128.559 63.8972 131.357 64.3022C131.049 64.264 130.741 64.2258 130.432 64.1865C130.919 64.5315 131.404 64.8765 131.89 65.2215C131.519 65.2019 131.142 65.1899 130.762 65.18C130.713 65.1298 130.685 65.1014 130.685 65.1014C130.685 65.1014 130.702 65.1287 130.732 65.1789C129.683 65.1527 128.617 65.1375 127.601 64.989C127.069 64.9104 126.686 64.74 126.119 64.8296C125.5 64.9267 124.913 65.1757 124.28 65.1931C123.581 65.2128 122.93 64.9486 122.258 64.8121C121.527 64.6625 120.769 64.6134 120.023 64.5861C119.033 64.5501 118.037 64.5446 117.05 64.6483C115.955 64.7641 115.337 64.9573 114.501 65.6342C113.063 66.797 111.811 68.1715 110.808 69.6957C111.257 69.3692 111.707 69.0439 112.156 68.7174C111.828 68.9631 111.594 69.3223 111.507 69.7132L111.511 69.7153ZM136.938 61.1841C135.079 59.7178 133.158 58.2515 130.887 57.496C133.048 57.8181 135.187 58.2821 137.283 58.8815C137.14 59.6763 137.027 60.4493 136.938 61.1841ZM138.506 64.0435C138.064 64.181 137.61 64.3262 137.263 64.621C137.168 64.7007 137.085 64.7935 137.015 64.8962C137.024 64.7073 137.034 64.5206 137.045 64.3361C137.532 64.2389 138.02 64.1417 138.507 64.0446L138.506 64.0435ZM136.966 66.3068C136.97 66.1474 136.973 65.988 136.978 65.8264C136.978 65.8002 136.98 65.7751 136.98 65.7499C137.54 65.4399 138.169 65.2434 138.813 65.1811C138.295 65.6823 137.658 66.0688 136.966 66.3057V66.3068ZM154.873 67.6486C155.062 67.6617 155.25 67.6813 155.438 67.7043C155.715 67.7741 155.988 67.8637 156.25 67.975C155.925 67.963 155.6 67.9728 155.277 68.0012C155.15 67.8757 155.015 67.7567 154.871 67.6486H154.873ZM154.038 68.3331C154.27 68.3823 154.499 68.4434 154.724 68.5166C154.921 68.7786 155.077 69.0679 155.186 69.3736C154.74 69.0996 154.35 68.7436 154.038 68.3331ZM153.188 68.2076C153.351 68.2218 153.513 68.2425 153.674 68.2676C153.714 68.5122 153.753 68.7567 153.792 69.0013C153.638 68.7065 153.432 68.4379 153.187 68.2065L153.188 68.2076ZM151.571 68.2316C151.674 68.2196 151.777 68.2087 151.881 68.201C152.039 68.189 152.196 68.1814 152.354 68.1792C152.335 68.3877 152.317 68.5963 152.298 68.8037C152.094 68.5733 151.846 68.3801 151.571 68.2316ZM149.674 68.6563C150.05 68.5329 150.431 68.4303 150.818 68.3517C150.874 68.7076 150.93 69.0635 150.985 69.4195C150.651 69.0362 150.181 68.7699 149.674 68.6563ZM148.081 69.3103C148.381 69.1629 148.687 69.0253 149 68.9009C149.117 69.1815 149.235 69.461 149.352 69.7416C148.928 69.5974 148.504 69.4544 148.081 69.3103ZM123.672 77.7062C123.141 78.1724 122.74 78.7674 122.495 79.4159C122.406 79.4651 122.315 79.5153 122.226 79.5666C121.967 79.7162 121.714 79.8745 121.469 80.0437C121.949 79.1113 122.804 78.3372 123.672 77.7062ZM124.551 77.9114C124.446 78.132 124.359 78.3591 124.287 78.5916C124.081 78.6691 123.877 78.7521 123.674 78.8395C123.937 78.5065 124.23 78.1942 124.551 77.9114ZM125.964 78.0697C126.49 77.7695 127.073 77.5653 127.677 77.4693C127.697 77.5621 127.72 77.656 127.746 77.7488C127.146 77.8186 126.55 77.9267 125.964 78.0708V78.0697ZM127.764 75.5761C127.624 75.9637 127.571 76.3665 127.586 76.7705C127.256 76.8338 126.933 76.931 126.625 77.062C127.004 76.5664 127.385 76.0707 127.764 75.5761ZM130.982 79.6922C131.279 80.0252 131.576 80.3592 131.873 80.6922C131.587 80.6508 131.3 80.6147 131.011 80.5874C131.007 80.2883 130.997 79.9902 130.982 79.6911V79.6922ZM131.183 78.4737C131.068 78.465 130.967 78.4606 130.879 78.4595C130.861 78.299 130.841 78.1374 130.819 77.9769C130.949 78.1364 131.07 78.3023 131.183 78.4737ZM131.792 79.6572C131.517 79.548 131.24 79.4465 130.96 79.3504C130.942 79.0807 130.918 78.8111 130.888 78.5414C131.026 78.5709 131.16 78.6047 131.29 78.6408C131.488 78.9639 131.656 79.3046 131.792 79.6572ZM136.597 72.0649C136.07 71.852 135.524 71.6926 134.963 71.5921C134.347 70.3322 133.765 69.1716 133.647 68.7611C133.529 68.3473 132.935 67.582 132.311 66.8592C132.513 66.8745 132.715 66.8832 132.917 66.8832C134.171 66.8821 135.523 66.571 136.626 67.1103C136.628 67.1693 136.629 67.2009 136.629 67.2009C136.629 67.2009 136.611 69.7645 136.597 72.066V72.0649ZM137.099 75.4331C137.443 75.2835 137.823 75.2071 138.201 75.2223C137.765 75.3981 137.393 75.7082 137.139 76.0903C137.126 75.8741 137.111 75.6547 137.099 75.4331ZM137.706 73.9264C137.481 74.0519 137.259 74.1851 137.042 74.326C137.026 73.9679 137.012 73.6032 136.999 73.2342C137.251 73.4504 137.487 73.6807 137.706 73.9275V73.9264ZM140.097 74.1535C139.351 74.4679 138.545 74.826 137.754 74.6393C138.344 74.5367 138.933 74.4341 139.523 74.3314C139.646 74.3096 139.784 74.279 139.85 74.1764C139.92 74.0672 139.872 73.9166 139.776 73.8259C139.679 73.7364 139.548 73.6927 139.42 73.6523C139.783 73.5705 140.123 73.3925 140.391 73.1447C140.363 73.3172 140.431 73.5006 140.567 73.6174C141.09 73.5661 141.657 73.5541 142.194 73.6152C142.148 73.6687 142.104 73.7233 142.058 73.7779C141.417 73.66 140.714 73.8925 140.097 74.1524V74.1535ZM138.614 76.9103C139.494 76.0205 140.464 75.2136 141.506 74.504C140.72 75.634 140.132 76.8983 139.555 78.1462C139.53 78.1997 139.506 78.2543 139.483 78.3099C139.438 78.2433 139.395 78.1757 139.354 78.108C139.107 77.7095 138.861 77.3099 138.614 76.9114V76.9103ZM137.309 78.3765C137.368 78.3023 137.427 78.2291 137.487 78.156C137.841 78.7521 138 79.4541 137.871 80.1311C138.335 79.381 138.427 78.4289 138.115 77.6101C138.1 77.5697 138.083 77.5293 138.066 77.49C138.174 77.371 138.285 77.2531 138.396 77.1363C138.738 77.8929 138.729 78.8002 138.58 79.6299C138.389 80.6933 137.999 81.7294 137.967 82.8081C137.952 83.3442 138.024 83.8814 138.045 84.4174C137.781 82.7808 137.516 80.7599 137.309 78.3776V78.3765ZM135.2 72.0791C135.692 72.3084 136.159 72.5868 136.591 72.9088C136.587 73.5672 136.583 74.1699 136.581 74.6404C136.519 74.6852 136.456 74.73 136.395 74.7758C136.145 74.0705 135.68 73.0704 135.2 72.0791ZM135.82 76.8666C135.795 76.8502 135.769 76.836 135.744 76.8207C135.744 76.8196 135.744 76.8186 135.744 76.8164C135.764 76.8109 135.784 76.8055 135.803 76.8C135.809 76.8229 135.814 76.8448 135.82 76.8666ZM134.259 79.7336C134.657 79.4378 135.14 79.2467 135.639 79.1834C135.659 79.2576 135.676 79.3286 135.692 79.3941C136.074 81.0209 136.612 83.068 136.612 83.068C135.952 81.4674 135.108 80.4193 134.259 79.7336ZM134.008 77.9497C134.339 77.7073 134.649 77.43 134.982 77.2007C135.028 77.3197 135.073 77.4354 135.115 77.5501C134.89 77.7247 134.687 77.93 134.51 78.1505C134.373 78.3209 134.249 78.501 134.133 78.6855C134.119 78.4366 134.076 78.1898 134.008 77.9507V77.9497ZM135.332 78.1647C135.367 78.2685 135.4 78.3689 135.431 78.4661C135.065 78.9093 134.672 79.3308 134.254 79.7304C134.191 79.6791 134.128 79.631 134.065 79.5841C134.106 79.3919 134.131 79.1954 134.137 78.9978C134.49 78.6659 134.894 78.3842 135.332 78.1647ZM133.69 80.5328C133.77 80.4007 133.839 80.2643 133.897 80.1234C134.224 80.44 134.512 80.7872 134.771 81.1552C134.419 80.9368 134.057 80.7294 133.69 80.5339V80.5328ZM133.421 79.1648C133.162 79.0196 132.909 78.9039 132.666 78.8111C132.548 78.1254 132.287 77.4627 131.884 76.8841C132.142 77.1035 132.377 77.3492 132.585 77.6134C132.555 77.6385 132.525 77.6647 132.495 77.6887C132.539 77.6822 132.584 77.6745 132.628 77.6669C132.975 78.12 133.242 78.6287 133.421 79.1648ZM133.596 79.8494C133.635 80.071 133.661 80.2959 133.668 80.5208C133.357 80.356 133.042 80.2009 132.722 80.0535C132.744 79.7806 132.743 79.5044 132.72 79.2314C133.038 79.4148 133.329 79.6223 133.595 79.8483L133.596 79.8494ZM133.872 76.6242C133.839 76.6395 133.807 76.6537 133.776 76.6701C133.667 76.7257 133.565 76.7902 133.468 76.86C133.368 76.729 133.26 76.6046 133.139 76.4899C133.387 76.5172 133.632 76.562 133.872 76.6242ZM134.704 76.9114C134.721 76.919 134.739 76.9266 134.756 76.9343C134.483 77.2007 134.211 77.466 133.938 77.7324C133.892 77.6035 133.837 77.4769 133.776 77.3535C134.098 77.2313 134.408 77.0839 134.704 76.9114ZM125.225 65.9825C127.365 65.5632 129.501 66.4847 131.671 66.7893C132.388 68.058 133.354 69.8507 134.06 71.4797C133.794 71.4611 133.526 71.4546 133.255 71.4611C133.557 71.5146 133.853 71.5867 134.145 71.6751C134.263 71.9535 134.374 72.2276 134.472 72.4918C134.862 73.5312 135.172 74.5007 135.411 75.3272C135.241 75.2726 135.067 75.2267 134.893 75.1852C134.154 74.171 133.024 72.6948 131.829 71.3902C131.753 69.212 130.209 67.1322 128.067 66.3843C128.836 67.0776 129.381 67.9947 129.609 68.9817C128.149 67.9816 126.688 66.9815 125.228 65.9814L125.225 65.9825Z" fill="#00B4AA"/>
<path d="M134.136 71.259C133.44 69.6551 132.494 67.8941 131.781 66.6287C132.021 66.6833 132.27 66.7389 132.521 66.7957C133.094 67.4704 133.614 68.1561 133.723 68.5404C133.836 68.9378 134.386 70.0383 134.981 71.2524C134.564 71.3507 134.22 71.4555 134.22 71.4555C133.929 71.367 133.632 71.295 133.331 71.2415C133.601 71.2349 133.87 71.2415 134.136 71.2601V71.259Z" fill="#00B4AA"/>
<path d="M111.586 69.4947C112.232 68.9521 112.878 68.4095 113.523 67.8658C113.118 68.3844 112.871 69.0154 112.819 69.6629C113.141 68.5591 113.854 67.5633 114.814 66.8777C114.745 67.2456 114.676 67.6136 114.607 67.9826C115.018 67.1452 115.884 66.5785 116.803 66.2936C117.721 66.0086 118.701 65.9682 119.665 65.93C118.326 66.1975 117.052 66.7554 115.965 67.5524C117.605 67.0873 119.258 66.6189 120.961 66.4672C122.664 66.3154 124.441 66.4999 125.947 67.2751C123.82 67.2478 121.654 67.226 119.617 67.8101C117.579 68.3942 115.651 69.6901 114.884 71.5921C116.385 69.7196 118.574 68.3658 120.972 67.8254C119.892 68.5711 118.958 69.5122 118.235 70.5843C118.935 69.5657 120.105 68.8549 121.365 68.6813C120.697 68.9652 120.126 69.4554 119.758 70.0614C121.364 68.4826 123.762 67.6791 126.044 67.9575C126.6 68.0252 127.146 68.1584 127.669 68.3462C127.669 68.3462 131.189 71.3158 133.542 73.8783C133.726 74.1851 133.902 74.4951 134.064 74.803C133.159 74.6928 132.241 74.7091 131.327 74.7266C130.133 74.7495 128.99 74.3598 127.834 74.6513C126.678 74.9428 125.589 75.4308 124.507 75.9167C123.423 76.4025 122.323 76.8993 121.425 77.657C120.527 78.4147 119.842 79.4835 119.844 80.6299C120.397 79.5414 121.274 78.6079 122.344 77.967C121.943 78.5653 121.637 79.2193 121.43 79.9017C121.023 80.191 120.644 80.5131 120.314 80.8799C119.758 81.5001 119.345 82.2567 119.239 83.0679C119.863 82.3997 120.67 81.8899 121.559 81.606C121.288 81.8931 121.018 82.1814 120.747 82.4685C121.775 81.999 122.803 81.5296 123.831 81.0601C123.955 81.0033 124.077 80.9476 124.201 80.8909C124.21 80.9367 124.218 80.9837 124.227 81.0295C124.23 80.9771 124.235 80.9247 124.241 80.8723C124.634 80.6933 125.028 80.5164 125.426 80.3461C126.459 79.905 127.514 79.513 128.586 79.1713C128.845 79.5687 129.134 79.9454 129.434 80.3155C128.815 80.3428 128.203 80.429 127.609 80.5983C126.212 80.9979 124.922 81.9193 124.39 83.2208C125.177 82.3091 126.284 81.6551 127.487 81.3876C126.336 81.9477 125.271 82.6683 124.336 83.5199C125.129 83.0734 125.922 82.6257 126.715 82.1792C125.897 82.6596 125.197 83.3245 124.691 84.1051C125.618 83.0941 126.799 82.2993 128.104 81.8069C127.691 82.1213 127.278 82.4347 126.866 82.7491C126.051 83.3692 125.172 84.0986 125.07 85.091C125.462 84.8322 125.854 84.5735 126.246 84.3147C126.124 84.6914 126.001 85.0681 125.877 85.4447C126.294 84.6281 126.828 83.866 127.459 83.188C127.313 83.6487 127.168 84.1095 127.021 84.5691C127.438 83.7514 128.132 83.0985 128.812 82.4631C129.101 82.1934 129.397 81.9182 129.759 81.7468C129.98 81.642 130.232 81.582 130.476 81.5907C130.557 81.6933 130.637 81.7971 130.716 81.9008C130.183 82.4772 129.955 83.3081 130.146 84.0593C130.915 83.3092 131.484 82.3702 131.782 81.3582C131.933 81.3756 132.043 81.5154 132.072 81.6584C132.102 81.8014 132.068 81.9488 132.037 82.0918C131.784 83.283 131.737 84.5145 131.899 85.7199C132.724 84.7471 133.193 83.5024 133.206 82.2491C133.208 82.0831 133.203 81.9128 133.261 81.7567C133.319 81.6005 133.459 81.4586 133.632 81.452C134.099 81.4313 134.02 81.963 134.012 82.225C133.99 83.0373 134.397 83.5276 134.839 84.1444C135.305 84.794 135.603 85.5616 135.703 86.3433C135.974 85.3781 135.616 84.3355 135.833 83.3572C135.867 83.2033 135.915 83.0537 135.971 82.9063C136.163 83.3015 136.345 83.6957 136.528 84.0855V84.0876C136.528 84.0887 136.53 84.0898 136.53 84.0909C136.581 84.2001 136.632 84.3115 136.683 84.4195C136.683 84.4195 136.682 84.3835 136.679 84.3191C137.393 85.5921 137.322 88.3784 137.322 88.3784L138.332 88.6142L138.116 84.1957C138.116 84.1957 137.397 77.4179 137.177 76.4909C136.957 75.564 136.118 73.685 136.118 73.685C135.876 73.1249 135.577 72.4906 135.27 71.8585C135.467 71.9502 135.66 72.0528 135.849 72.1598C135.64 71.8574 135.188 71.5746 134.215 71.4545C134.333 71.7329 134.444 72.0069 134.543 72.2712C134.933 73.3105 135.243 74.2801 135.481 75.1065C135.312 75.052 135.137 75.0061 134.963 74.9646C134.224 73.9503 133.094 72.4742 131.899 71.1695C131.824 68.9914 130.279 66.9115 128.137 66.1637C128.906 66.8569 129.451 67.774 129.68 68.761C128.219 67.7609 126.758 66.7609 125.298 65.7608L122.638 65.8132L124.356 64.9736C123.657 64.9932 123.006 64.729 122.333 64.5926C121.603 64.443 120.845 64.3939 120.099 64.3666C119.108 64.3305 118.112 64.3251 117.125 64.4288C116.031 64.5445 115.413 64.7378 114.576 65.4147C113.139 66.5774 111.887 67.952 110.883 69.4762C111.332 69.1497 111.783 68.8244 112.232 68.4979C111.903 68.7436 111.67 69.1028 111.582 69.4936L111.586 69.4947ZM123.748 77.4856C123.216 77.9518 122.815 78.5468 122.571 79.1953C122.481 79.2444 122.39 79.2947 122.302 79.346C122.043 79.4956 121.79 79.6539 121.545 79.8231C122.024 78.8907 122.881 78.1166 123.748 77.4856ZM124.626 77.6908C124.522 77.9114 124.434 78.1385 124.362 78.371C124.156 78.4496 123.952 78.5315 123.75 78.6188C124.013 78.2859 124.305 77.9736 124.626 77.6908ZM126.039 77.8491C126.564 77.5489 127.149 77.3447 127.753 77.2486C127.772 77.3414 127.795 77.4353 127.822 77.5281C127.221 77.598 126.625 77.7061 126.039 77.8502V77.8491ZM127.839 75.3555C127.7 75.7431 127.646 76.1459 127.662 76.5499C127.332 76.6132 127.009 76.7104 126.701 76.8414C127.08 76.3457 127.46 75.8511 127.839 75.3555ZM135.19 77.3294C134.964 77.5041 134.762 77.7094 134.584 77.9299C134.447 78.1002 134.323 78.2804 134.207 78.4649C134.193 78.216 134.15 77.9692 134.082 77.7301C134.413 77.4877 134.723 77.2104 135.056 76.9812C135.102 77.1002 135.147 77.2159 135.19 77.3305V77.3294ZM135.507 78.2454C135.141 78.6887 134.747 79.1102 134.33 79.5097C134.266 79.4584 134.204 79.4104 134.141 79.3634C134.182 79.1713 134.206 78.9748 134.213 78.7772C134.566 78.4452 134.97 78.1636 135.408 77.9441C135.443 78.0478 135.476 78.1483 135.507 78.2454ZM135.895 76.646C135.87 76.6296 135.845 76.6154 135.82 76.6001C135.82 76.599 135.82 76.5979 135.82 76.5957C135.84 76.5903 135.859 76.5848 135.879 76.5794C135.885 76.6023 135.89 76.6241 135.895 76.646ZM136.58 82.0558C136.543 81.2468 136.498 80.2991 136.45 79.3307C136.559 80.0316 136.585 81.1049 136.58 82.0558ZM134.334 79.513C134.733 79.2172 135.215 79.0261 135.715 78.9628C135.734 79.037 135.752 79.108 135.767 79.1735C136.043 80.3472 136.399 81.7381 136.577 82.4227C136.577 82.4783 136.576 82.5329 136.575 82.5875C135.933 81.1332 135.136 80.1605 134.334 79.513ZM133.766 80.3122C133.846 80.1801 133.915 80.0436 133.973 79.9028C134.299 80.2194 134.587 80.5666 134.847 80.9345C134.494 80.7162 134.133 80.5087 133.766 80.3133V80.3122ZM132.797 79.834C132.819 79.5611 132.818 79.2848 132.795 79.0119C133.114 79.1953 133.404 79.4028 133.671 79.6288C133.711 79.8504 133.735 80.0753 133.743 80.3002C133.432 80.1353 133.116 79.9803 132.796 79.8329L132.797 79.834ZM131.257 78.252C131.142 78.2433 131.041 78.2389 130.954 78.2378C130.935 78.0773 130.915 77.9157 130.893 77.7552C131.024 77.9146 131.144 78.0806 131.257 78.252ZM131.866 79.4355C131.591 79.3263 131.314 79.2248 131.035 79.1287C131.016 78.859 130.992 78.5894 130.963 78.3197C131.101 78.3492 131.234 78.383 131.365 78.419C131.563 78.7422 131.73 79.0829 131.866 79.4355ZM131.947 80.4716C131.661 80.4301 131.374 80.3952 131.085 80.3668C131.082 80.0677 131.072 79.7696 131.057 79.4704C131.354 79.8045 131.65 80.1375 131.947 80.4705V80.4716ZM132.571 77.4692C132.615 77.4626 132.659 77.455 132.703 77.4473C133.051 77.9004 133.318 78.4092 133.496 78.9453C133.238 78.8001 132.985 78.6844 132.742 78.5916C132.623 77.9059 132.363 77.2432 131.959 76.6645C132.218 76.884 132.452 77.1296 132.661 77.3939C132.631 77.419 132.6 77.4452 132.571 77.4692ZM133.948 76.4036C133.915 76.4189 133.883 76.4331 133.851 76.4494C133.743 76.5051 133.641 76.5695 133.543 76.6394C133.444 76.5084 133.335 76.3839 133.215 76.2693C133.462 76.2966 133.708 76.3414 133.948 76.4036ZM134.779 76.6907C134.797 76.6984 134.814 76.706 134.832 76.7137C134.559 76.9801 134.286 77.2454 134.013 77.5118C133.967 77.3829 133.913 77.2563 133.851 77.1329C134.173 77.0106 134.483 76.8632 134.779 76.6907Z" fill="#00B4AA"/>
<path d="M146.741 64.0107C146.218 64.0872 145.697 64.1647 145.174 64.2411C145.686 64.1167 146.206 64.0337 146.741 64.0107Z" fill="#00B4AA"/>
<path d="M140.047 78.5873C140.605 77.3023 141.248 76.0511 141.971 74.8446C143.047 75.6526 144.042 76.5609 144.935 77.5523C144.22 76.5391 143.76 75.361 143.607 74.1459C144.13 75.6209 145.726 76.4507 146.754 77.6571C146.123 76.3044 145.615 74.8981 145.238 73.4602C146.037 74.6339 146.873 75.8382 148.061 76.6461C147.877 76.2727 147.819 75.8567 147.863 75.4484C147.891 75.1765 148.009 74.9265 148.082 74.6623C148.153 74.4025 148.201 74.1371 148.225 73.8707C148.272 73.3401 148.212 72.7986 148.073 72.2931C147.842 71.4535 147.388 70.6631 146.737 70.0342C146.707 70.0036 146.672 69.9741 146.635 69.9545C147.012 69.7088 147.402 69.4806 147.803 69.2688C147.833 69.2536 147.864 69.2383 147.893 69.223C148.25 70.8945 148.773 72.5475 149.647 74.0334C150.155 74.8981 150.796 75.7443 150.896 76.7334C151.266 75.1296 150.631 73.4875 150.006 71.9579C151.106 72.9744 152.206 73.9908 153.307 75.0073C153.083 73.7758 152.814 72.5038 152.053 71.4885C152.961 72.0944 153.87 72.6993 154.778 73.3052C154.337 72.8696 154.086 72.2625 154.098 71.6555C154.557 72.5988 155.18 73.4679 155.934 74.2169C155.67 73.255 155.312 72.3171 154.865 71.4197C155.453 72.185 156.098 72.91 156.794 73.588C156.114 72.4689 155.7 71.2024 155.591 69.9108C156.705 71.3018 158.035 72.5333 159.522 73.5541C158.835 72.7757 158.495 71.78 158.056 70.8519C157.618 69.9239 157.007 68.9882 156.033 68.5788C157.106 68.9948 158.135 69.5167 159.099 70.1324C159.02 69.8202 158.802 69.544 158.512 69.3857C159.526 69.8442 160.441 70.5026 161.185 71.3072C161.054 70.6609 160.661 70.0844 160.176 69.6171C159.692 69.1498 159.117 68.7797 158.546 68.4129C158.322 68.2688 158.098 68.1257 157.869 67.9893C158.81 68.2666 159.735 68.6116 160.651 68.9544C159.131 67.1671 156.509 66.3123 154.166 66.8407C152.402 67.2381 150.544 66.4771 148.778 66.8658C148.831 66.1343 149.544 65.5731 150.292 65.4159C151.039 65.2587 151.816 65.4137 152.563 65.5687C151.968 65.0665 151.119 64.906 150.333 64.9999C149.546 65.0938 148.809 65.417 148.118 65.7882C146.854 66.4662 145.624 67.4062 145.196 68.7328C145.018 69.2874 144.99 69.8759 144.868 70.4436C144.794 70.7832 144.677 71.126 144.491 71.4197C144.344 71.531 144.198 71.6435 144.054 71.757C144.657 69.4195 145.529 67.1453 146.651 64.9912C147.308 64.8897 147.964 64.7881 148.622 64.6866C147.325 64.0686 145.674 64.6822 144.76 65.7587C143.847 66.8352 143.518 68.2568 143.327 69.6324C142.942 70.0528 143.022 70.7166 143.157 71.2614C143.239 71.5878 143.326 71.9252 143.271 72.2571C143.26 72.3226 143.242 72.3892 143.218 72.4525C143.028 72.6196 142.845 72.7931 142.669 72.9722C142.658 72.9744 142.647 72.9777 142.636 72.9798C142.681 72.3324 142.726 71.6839 142.77 71.0365C142.859 69.7383 142.949 68.438 143.139 67.1497C143.187 66.8243 143.245 66.4913 143.425 66.2118C143.702 65.7827 144.216 65.5589 144.7 65.358C144.228 65.4519 143.756 65.5458 143.283 65.6397C142.07 67.166 141.435 69.1073 141.523 71.0244C141.011 69.7187 140.499 68.4118 139.987 67.106C139.489 67.1737 139.089 67.5733 138.917 68.0264C138.745 68.4795 138.765 68.9795 138.839 69.4566C138.987 70.4152 139.348 71.3411 139.884 72.1643L139.882 72.1665L139.979 72.3095C139.991 72.327 140.002 72.3455 140.014 72.363C140.014 72.363 140.016 72.363 140.017 72.3641L140.105 72.4951L140.388 72.9973C140.417 72.9744 140.445 72.9504 140.471 72.9253C140.444 73.0901 140.507 73.2648 140.631 73.3816C140.705 73.3707 140.779 73.3718 140.851 73.3816C141.316 73.3467 141.805 73.3423 142.273 73.3947C142.226 73.4482 142.182 73.5028 142.136 73.5574C142.136 73.5574 141.669 74.1765 141.533 74.3621C140.774 75.4724 140.197 76.7061 139.635 77.9246C139.617 77.965 139.599 78.0054 139.582 78.0458C139.585 78.0742 139.587 78.1036 139.591 78.1309C139.684 78.5076 139.793 78.8712 139.922 79.2315C139.997 78.8122 140.05 78.5873 140.05 78.5873H140.047ZM155.354 67.7796C155.226 67.6541 155.092 67.5351 154.948 67.427C155.138 67.4401 155.326 67.4597 155.513 67.4827C155.791 67.5525 156.063 67.6421 156.325 67.7534C156.001 67.7414 155.676 67.7512 155.352 67.7796H155.354ZM154.113 68.1115C154.346 68.1607 154.575 68.2218 154.799 68.295C154.996 68.557 155.153 68.8463 155.261 69.152C154.816 68.878 154.426 68.5221 154.113 68.1115ZM153.263 67.986C153.427 68.0002 153.589 68.0209 153.75 68.046C153.789 68.2906 153.829 68.5352 153.868 68.7797C153.714 68.4849 153.508 68.2164 153.262 67.986H153.263ZM151.646 68.01C151.749 67.998 151.852 67.9871 151.956 67.9794C152.114 67.9674 152.272 67.9598 152.43 67.9576C152.411 68.1661 152.392 68.3747 152.374 68.5821C152.17 68.3517 151.921 68.1585 151.646 68.01ZM149.75 68.4347C150.125 68.3113 150.507 68.2087 150.894 68.1301C150.95 68.486 151.006 68.8419 151.06 69.1979C150.726 68.8147 150.256 68.5483 149.75 68.4347ZM148.156 69.0887C148.456 68.9413 148.763 68.8037 149.075 68.6793C149.192 68.9599 149.311 69.2394 149.428 69.52C149.004 69.3758 148.58 69.2328 148.156 69.0887Z" fill="#00B4AA"/>
<path d="M137.343 90.6734L146.169 90.4998L144.984 104.322L137.446 104.47L129.908 104.618L128.518 90.847L137.343 90.6734Z" fill="#00B4AA"/>
<path d="M126.956 90.8775L147.732 90.4691L147.71 87.5508L126.934 87.9591L126.956 90.8775Z" fill="#00B4AA"/>
<path d="M100.874 63.4102C104.757 67.0513 108.018 69.5351 110.439 71.2154C111.994 72.2941 114.047 73.6283 114.803 76.1219C114.952 76.6121 115.47 78.4191 114.635 80.4149C114.573 80.5633 113.443 83.1585 111.055 83.8158C108.893 84.4108 106.749 83.1269 104.511 81.4182C101.667 79.2477 97.1095 75.2004 92.2598 68.0383C95.131 66.4956 98.0034 64.9529 100.875 63.4112L100.874 63.4102Z" fill="#F8B68C"/>
<path d="M47.4695 104.573C44.2246 94.7053 40.7377 84.5123 37.494 74.6436H36.0676C35.4717 72.4633 34.6161 68.1594 35.8157 63.0193C37.0152 57.8802 39.6433 54.5808 41.3534 52.4824C45.227 47.7298 49.7295 45.104 52.765 43.7011C54.3743 43.4128 56.6847 43.0635 59.4782 42.8647C64.3279 42.5186 70.5196 42.0776 76.9315 44.0351C84.0719 46.2155 88.6609 50.5084 94.972 56.4117C98.0536 59.2941 100.384 61.9155 101.936 63.7704C98.7197 67.0982 97.4084 70.1389 96.8179 71.9654C96.2636 73.6785 95.8429 75.8784 95.7268 76.4811C95.2798 78.8153 95.2546 79.8689 94.972 81.7501C94.7036 83.533 94.364 85.0014 93.3781 88.5236C91.4621 95.368 89.075 102.951 88.4276 104.998C74.6945 104.747 61.2036 104.821 47.4706 104.571L47.4695 104.573Z" fill="#B51E84"/>
<path d="M35.7041 81.2501C35.6154 80.2314 35.5288 79.144 35.76 77.7378C35.9276 76.7191 36.5728 73.6545 39.0048 71.3825C40.5922 69.8998 42.2902 69.3637 43.4799 68.9849C62.3891 62.9691 67.4799 61.4657 69.0442 60.1763C70.1342 59.2788 70.4289 58.4534 72.1773 56.9981C73.3111 56.0537 73.8786 55.582 74.5271 55.3811C76.3391 54.8199 78.128 55.7993 81.6314 57.7787C83.0161 58.5615 84.1225 59.2766 84.8762 59.7854C84.6779 60.1479 84.4435 60.3433 84.2605 60.4547C83.5057 60.9143 82.6787 60.0376 80.6805 59.507C79.7197 59.2515 79.229 59.1282 78.667 59.2843C77.8925 59.4994 77.7906 59.9645 76.7093 60.6228C75.8264 61.16 75.0387 61.3696 74.6958 61.4591C74.0933 61.6153 73.08 61.7954 71.7873 61.6262C71.3984 61.9439 70.8331 62.469 70.3325 63.2431C69.879 63.9452 69.6763 64.5478 69.6051 64.7487C69.2195 65.8438 68.4154 67.1889 66.8083 69.878C65.944 71.3235 64.0345 74.517 61.2147 77.9059C58.3763 81.3167 56.2303 83.8955 52.7116 85.9896C50.7057 87.184 46.6393 89.182 40.5725 89.3348C40.2066 89.3163 39.523 89.2333 38.7824 88.8326C38.0408 88.4308 37.5982 87.9024 37.3835 87.6065C36.747 86.2101 35.9462 84.0287 35.7052 81.2512L35.7041 81.2501Z" fill="#F8B68C"/>
<path d="M117.6 71.6052H75.1972C74.1469 71.6052 73.2954 72.4538 73.2954 73.5006C73.2954 74.5474 74.1469 75.3959 75.1972 75.3959H117.6C118.651 75.3959 119.502 74.5474 119.502 73.5006C119.502 72.4538 118.651 71.6052 117.6 71.6052Z" fill="#5B2D82"/>
<path d="M118.798 71.8837H85.9704C85.3504 71.8837 84.9144 71.2766 85.1138 70.6914L92.8337 48.076C92.9586 47.7103 93.3025 47.4646 93.6903 47.4646H126.518C127.138 47.4646 127.574 48.0716 127.374 48.6568L119.655 71.2723C119.53 71.638 119.186 71.8837 118.798 71.8837Z" fill="#42B4E4"/>
<path d="M92.0908 77.0685C93.0209 77.7028 94.468 78.7236 96.1748 80.0785C98.8938 82.2403 99.4503 83.0122 101.489 84.3715C103.887 85.9699 105.105 86.7822 106.971 86.9918C110.276 87.3619 112.839 85.5321 113.684 84.9294C114.727 84.1848 116.923 82.617 117.376 79.9672C117.441 79.584 117.871 77.075 116.425 75.897C116.121 75.6502 115.81 75.5214 115.586 75.4504H92.8182C92.713 75.4865 92.5509 75.5236 92.3701 75.4875C91.818 75.3762 91.5693 74.6742 91.3634 74.2986C91.0764 73.7756 90.4585 73.1336 88.9763 72.7002C88.8832 72.7624 88.7901 72.8236 88.697 72.8858C88.8821 73.2952 89.0968 73.5736 89.2568 73.7494C89.627 74.1599 89.9382 74.2844 90.04 74.6884C90.0587 74.7637 90.1222 75.0137 90.0116 75.2364C89.7574 75.7528 88.7704 75.7256 88.5568 75.7201C87.4547 75.6895 87.1271 75.1436 85.9834 74.9766C85.3755 74.8881 84.866 74.9537 84.5571 75.0137C84.4454 75.0661 84.3183 75.1447 84.315 75.2463C84.3084 75.4362 84.7423 75.5869 84.9953 75.683C84.9975 75.683 85.7424 76.064 87.2334 76.8261C87.5894 77.0084 88.0944 77.2803 88.6882 77.6526C88.8799 77.6482 89.0749 77.6395 89.2754 77.6242C90.3347 77.5467 91.2801 77.3316 92.0908 77.0663V77.0685Z" fill="#F8B68C"/>
<path d="M62.6673 27.8406C62.7024 28.892 62.6761 30.3593 62.388 32.0778C62.0418 34.1424 61.5445 37.1099 59.3677 39.8274C57.1362 42.6136 54.2398 43.7622 52.7104 44.2317C53.2396 45.3147 53.852 46.234 54.5005 47.019C61.3539 55.3123 75.8263 52.9114 78.2189 52.4824C79.7077 52.2542 80.5315 51.6439 80.9039 51.312C81.1723 51.0729 81.2819 50.9102 81.352 50.754C81.4889 50.4494 81.6686 49.7441 80.7922 48.3565C79.6868 46.6041 78.0929 45.6543 77.7719 45.4578C77.7719 45.4578 74.5654 42.9827 72.7371 39.1581C72.1039 37.8327 71.7862 36.6546 71.6186 35.8685C68.6356 33.1925 65.6515 30.5166 62.6684 27.8406H62.6673Z" fill="#F8B68C"/>
<path opacity="0.44" d="M61.8433 34.756C61.8509 34.78 63.0187 38.2574 66.0883 40.2171C69.7943 42.5842 75.5369 43.5067 75.7176 43.5024C74.7328 42.4204 73.5858 40.9355 72.7357 39.1581C72.1025 37.8327 71.7848 36.6546 71.6172 35.8685C68.6342 33.1925 65.6501 30.5166 62.6671 27.8406C62.7021 28.892 62.6758 30.3593 62.3877 32.0778C62.2563 32.8617 62.1029 33.7756 61.8444 34.7571L61.8433 34.756Z" fill="#D68D65"/>
<path d="M80.8056 13.1014C81.8255 16.8811 81.8211 19.8738 81.6283 21.911C81.3314 25.0379 80.4682 27.1975 79.4943 33.6795C79.342 34.6927 79.2303 35.5246 79.1601 36.064C78.7855 36.493 78.3944 36.826 78.011 37.0859C75.2087 38.9834 70.9013 38.4823 68.11 36.5968C66.8578 35.7506 65.8204 34.2385 63.7466 31.2153C62.753 29.7665 61.6718 27.9967 61.3902 27.5349C60.5314 26.1286 59.7897 24.8403 59.6057 24.5008C58.0293 21.5901 57.5232 14.6899 60.7702 11.0608C64.5485 6.83992 73.8448 6.56151 80.8056 13.1014Z" fill="#F8B68C"/>
<path d="M63.9896 24.9113C63.8231 24.9113 63.8341 24.5958 63.3816 24.1023C62.9401 23.6208 62.4559 23.4036 61.883 23.1459C61.1359 22.8107 60.7623 22.6426 60.5092 22.7616C59.8662 23.064 60.0261 24.6045 60.0754 25.0827C60.1521 25.8252 61.1512 27.1233 62.0692 28.4913C60.8236 27.9181 58.2788 26.8449 56.4888 25.1821C55.0647 23.8599 50.663 19.7701 51.5262 15.9073C52.0543 13.5458 54.2168 12.7575 53.9254 10.4167C53.7523 9.0301 52.9383 8.86415 52.9679 7.62933C53.0183 5.5975 55.2772 3.88776 56.9664 3.15953C58.4596 2.51537 58.8605 2.91715 61.3922 2.1922C63.1746 1.68124 64.0948 1.16264 64.9547 0.814356C68.3288 -0.55257 72.9726 -0.174809 76.5932 1.7795C77.6427 2.34614 80.6049 4.00021 82.2295 7.48194C83.7752 10.7944 83.2976 14.0207 82.9985 16.0471C82.7411 17.7907 82.2854 19.1914 81.9228 20.1347C81.7869 16.1814 80.3387 14.8112 79.6091 14.3057C78.449 13.5021 77.2067 13.5643 69.5985 14.0971C68.6432 14.1637 67.4514 14.2478 66.1302 14.3417C67.0493 15.1682 68.0835 16.3604 67.8687 17.557C67.6737 18.6466 66.6297 18.7012 65.6131 20.1904C64.1528 22.3303 64.4672 24.9135 63.9896 24.9113Z" fill="#353535"/>
<path opacity="0.44" d="M81.2642 58.3531C81.1765 58.3247 81.0889 58.2985 81.0002 58.2745C80.8413 58.269 80.6814 58.2701 80.5214 58.2767C79.4599 58.4939 78.4641 58.9197 77.43 59.2451C76.1548 59.6469 74.826 59.708 73.5037 59.827C73.3252 59.8598 73.1477 59.898 72.9724 59.9449C72.7566 60.0618 72.5496 60.1928 72.3458 60.3303C71.2963 61.1514 70.3586 62.0914 69.4986 63.1068C68.3867 64.5381 67.3964 66.0568 66.3907 67.5646C65.1725 69.39 63.8941 71.1773 62.6047 72.9526C61.2529 74.8152 59.8441 76.6385 58.3575 78.3973C57.2609 79.6944 56.1293 81.0122 54.8016 82.0822C52.3992 84.0179 49.6078 85.4984 46.5766 86.1753C45.1043 86.5039 43.5465 86.6939 42.0358 86.6033C40.1571 86.4908 38.5303 86.053 36.829 85.2953C36.6986 85.2374 36.5704 85.1752 36.4434 85.1119C36.7413 86.1054 37.0787 86.9439 37.38 87.6044C37.5947 87.9003 38.0362 88.4287 38.7789 88.8305C39.5195 89.2312 40.2031 89.3142 40.569 89.3328C46.6358 89.1799 50.7022 87.1819 52.7081 85.9875C56.2268 83.8923 58.3729 81.3135 61.2113 77.9039C64.0311 74.5149 65.9405 71.3214 66.8048 69.8759C68.413 67.1868 69.216 65.8428 69.6016 64.7466C69.6717 64.5458 69.8755 63.9431 70.329 63.2411C70.8286 62.467 71.3949 61.9418 71.7838 61.6241C73.0765 61.7933 74.0898 61.6132 74.6923 61.4571C75.0352 61.3686 75.824 61.1579 76.7059 60.6208C77.7871 59.9635 77.889 59.4984 78.6635 59.2822C79.2255 59.1261 79.7174 59.2506 80.677 59.5049C82.6763 60.0356 83.5023 60.9123 84.2571 60.4526C84.3053 60.4231 84.3567 60.3882 84.4104 60.3456C83.3314 59.732 82.3531 58.9383 81.2609 58.3509L81.2642 58.3531Z" fill="#D68D65"/>
<path opacity="0.44" d="M97.1226 76.1787C97.9081 76.4909 98.6837 76.8326 99.4987 77.0641C100.167 77.253 100.852 77.3807 101.539 77.4888C103.023 77.6984 104.508 77.8895 106.009 77.9375C107.562 77.9867 109.116 77.9212 110.661 77.7629C112.665 77.4735 114.649 76.9124 116.55 76.2092C116.596 76.1885 116.641 76.1677 116.687 76.1459C116.607 76.0575 116.52 75.9745 116.425 75.897C116.122 75.6502 115.811 75.5214 115.586 75.4504H95.1475C95.8091 75.6841 96.4708 75.9188 97.1226 76.1776V76.1787Z" fill="#D68D65"/>
</g>
<defs>
<clipPath id="clip0_247_5301">
<rect width="164.552" height="105" fill="white" transform="translate(0.724121)"/>
</clipPath>
</defs>
</svg>
