<svg width="192" height="108" viewBox="0 0 192 108" fill="none" xmlns="http://www.w3.org/2000/svg">
<g clip-path="url(#clip0_247_5331)">
<path d="M20.7957 104.351C69.2039 104.439 117.611 104.527 166.019 104.617C180.82 104.644 192.581 93.7533 191.18 81.0998C191.165 80.9654 191.149 80.8311 191.131 80.6957C189.503 68.1831 177.429 62.4658 156.569 47.6379C113.638 17.1211 115.782 6.5044 93.3369 1.76251C89.7386 1.00284 63.0931 -4.29064 43.8506 8.17128C40.9087 10.076 24.5684 23.728 15.8566 41.391C9.03821 55.2148 4.2529 71.0523 1.15969 83.4514C-1.52076 94.1947 8.00372 104.328 20.7957 104.351Z" fill="#EAF4FE" fill-opacity="0.1"/>
<path d="M52.8407 58.9693L52.1793 59.2886L49.6245 57.9091C49.7424 57.7175 49.8091 57.4995 49.8091 57.2672C49.8091 56.5053 49.0899 55.8877 48.2028 55.8877C47.3158 55.8877 46.5966 56.5053 46.5966 57.2672C46.5966 57.4489 46.6389 57.6217 46.7133 57.7814L45.3468 58.966L44.8225 58.5135L27.1054 73.6442L24.8467 75.5731L24.3378 74.1991H21.5843L22.7213 77.3886L20.9844 78.8716L22.4406 80.1289L23.4046 79.3054L31.9279 103.219H31.9266L32.8906 105.923H28.4283C26.3811 106.75 27.8938 107.998 27.8938 107.998H41.3178C41.3178 107.998 41.9895 106.826 40.1974 105.923H36.0748L35.2737 103.757C35.2737 103.757 35.2737 103.757 35.2749 103.757L25.5492 77.4734L25.6735 77.3677L27.8579 75.5026L46.2774 59.7708L45.7506 59.3161L47.0286 58.2085C47.2478 58.41 47.5337 58.5554 47.8593 58.6159V61.3771L46.9466 61.8186L48.5682 75.5037L66.6544 66.958L52.842 58.9704L52.8407 58.9693Z" fill="#5B2D82"/>
<path d="M55.2479 105.18C55.9157 104.818 56.4926 104.343 56.9412 103.785H58.8231C59.837 103.785 60.7267 103.168 60.9395 102.317L61.6573 99.4454C61.7958 98.8938 61.6381 98.3257 61.2241 97.8865C60.8113 97.4472 60.1973 97.195 59.5396 97.195H57.968V95.9443H41.388V100.947C41.388 102.731 42.4751 104.294 44.1095 105.18H38.1948V106.293C38.1948 106.369 38.2666 106.431 38.3551 106.431H62.1752C62.2637 106.431 62.3355 106.369 62.3355 106.293V105.18H55.244H55.2479ZM59.5422 97.9646C59.9281 97.9646 60.287 98.1121 60.5293 98.3698C60.7715 98.6274 60.8638 98.9599 60.7831 99.2836L60.0652 102.155C59.9409 102.654 59.4191 103.016 58.8244 103.016H57.4502C57.7847 102.385 57.9719 101.685 57.9719 100.947V97.9646H59.5435H59.5422Z" fill="#00B4AA"/>
<path d="M109.8 86.0367C108.694 88.6977 107.434 91.9974 106.888 93.4572C105.25 97.838 104.832 99.4708 103.287 101.721C101.997 103.601 100.585 104.946 99.6208 105.769C99.0388 105.916 97.8043 106.149 96.4135 105.769C94.2202 105.171 93.2498 103.486 93.01 103.071C91.4846 100.424 93.1511 97.2127 94.1881 95.2001C96.6199 90.4802 100.171 83.8479 103.123 77.9688C104.252 78.5402 106.37 79.3395 107.868 80.8082C109.59 82.496 109.304 84.9137 109.799 86.0367H109.8Z" fill="#EC9568"/>
<path d="M97.2646 75.9728C98.426 76.455 100.066 77.2246 101.846 78.3906C103.41 79.4145 106.037 81.1683 108.065 84.2378C108.727 85.2408 109.594 86.7888 110.159 88.8476C111.359 86.8802 112.559 84.9127 113.76 82.9442C117.217 77.349 118.439 72.4552 118.931 69.3395C119.593 65.1458 120.494 59.4384 116.64 56.5208C115.801 55.8856 114.938 55.5354 114.35 55.3406C113.3 55.6775 107.766 57.6691 103.877 62.3119C99.8079 67.1683 97.398 74.7056 97.2659 75.9739L97.2646 75.9728Z" fill="#4F2671"/>
<path d="M91.5037 102.847C91.8793 104.337 92.2331 105.315 93.1727 106.22C93.5573 106.59 94.6918 107.675 96.3147 107.738C98.0388 107.805 99.2989 106.648 100.046 105.967C102.792 103.463 102.888 99.9487 102.992 98.1244C103.27 93.1932 104.141 88.296 104.465 83.367C104.498 82.8605 104.444 83.7138 105.742 70.1267C106.298 64.3036 106.765 59.3614 107.116 55.6225C107.591 54.8903 108.279 53.611 108.49 51.9122C108.732 49.9756 108.239 48.432 107.9 47.6118C107.344 45.7445 105.317 44.5819 103.384 44.8285C101.87 45.0223 100.586 46.0572 100.144 47.4422C100.18 48.2118 100.289 49.0948 100.536 50.0559C101.062 52.0971 102.001 53.688 102.795 54.778C100.414 61.6657 98.108 68.8661 95.9211 76.367C93.8983 83.3086 92.1075 90.062 90.5205 96.6062C90.6974 99.21 91.1179 101.324 91.5024 102.847H91.5037Z" fill="#F8B68C"/>
<path opacity="0.44" d="M102.395 50.8804C102.504 51.4463 102.656 52.0012 102.865 52.5462C103.138 53.0505 103.456 53.536 103.812 54.0006C104.008 54.2043 104.215 54.4003 104.43 54.5885C104.963 54.4861 105.488 54.3529 106.003 54.1977C106.639 53.9544 107.254 53.6747 107.839 53.3499C107.99 53.2409 108.135 53.1253 108.276 53.0075C108.28 52.991 108.285 52.9745 108.289 52.958C108.272 52.5385 108.35 52.1411 108.503 51.7711C108.704 49.9006 108.23 48.411 107.899 47.6106C107.343 45.7433 105.316 44.5807 103.383 44.8273C102.487 44.9418 101.673 45.3525 101.064 45.9547C101.829 46.6956 102.301 47.6711 102.304 48.662C102.305 49.4029 102.323 50.1417 102.392 50.8793L102.395 50.8804Z" fill="#D68D65"/>
<path d="M108.131 64.3916C107.853 70.6044 108.514 76.1853 109.703 81.1451C110.587 84.8389 111.378 86.5817 112.583 90.9273C114.191 96.7261 115.175 102.263 115.725 107.456C132.482 107.306 149.24 107.157 165.997 107.006C163.2 100.086 160.236 93.0357 157.094 85.8672C153.904 78.5865 150.668 71.5017 147.407 64.6162C146.813 63.3831 146.03 62.0664 144.986 60.7375C140.387 54.8891 133.584 52.4428 130.126 51.4607C127.504 52.7521 124.084 54.146 119.914 55.171C117.518 55.76 115.288 56.1266 113.303 56.3512C112.415 57.0239 111.278 58.0335 110.271 59.4439C108.884 61.3827 108.355 63.2202 108.132 64.3916H108.131Z" fill="#5B2D82"/>
<path d="M124.784 76.9812C123.933 79.2866 123.082 81.591 122.232 83.8964C121.272 86.8756 120.312 89.856 119.352 92.8352C118.872 94.2786 118.392 95.7209 117.912 97.1642C117.861 97.6828 117.855 98.492 118.174 99.4135C118.975 101.726 121.186 102.905 122.036 103.292C122.237 103.385 125.331 104.746 128.713 103.685C129.397 103.472 129.927 103.21 130.285 103.01C132.259 97.9525 134.203 92.7989 136.111 87.5494C137.188 84.5867 138.235 81.6449 139.253 78.7229C137.247 77.7607 135.463 77.175 134.147 76.8116C131.562 76.0982 129.406 75.529 126.947 76.1367C125.996 76.3723 125.265 76.717 124.787 76.9801L124.784 76.9812Z" fill="#F8B68C"/>
<path d="M110.553 47.3574C111.699 48.1931 112.474 49.0551 113.008 49.8027C114.915 52.477 114.893 55.3285 114.873 57.8982C114.86 59.5188 113.905 65.9892 113.596 69.1986C113.493 70.2632 113.416 70.8489 113.792 71.0537C114.309 71.3366 115.373 70.73 115.952 70.2951C117.911 68.8231 119.614 63.5153 122.236 59.8381C123.899 57.5062 124.519 56.1608 126.655 53.513C127.181 52.859 127.634 52.3338 127.931 51.9947C125.838 50.3532 123.661 48.53 121.451 46.513C119.397 44.638 117.535 42.8005 115.855 41.0312C114.087 43.1396 112.32 45.248 110.553 47.3563V47.3574Z" fill="#F8B68C"/>
<path opacity="0.44" d="M113.007 49.8026C113.561 50.5788 113.951 51.3704 114.228 52.1653C114.788 51.9198 115.333 51.65 115.857 51.3506C116.342 51.0115 116.795 50.6459 117.216 50.2485C117.534 49.8642 117.82 49.4635 118.071 49.0451C118.18 48.7787 118.272 48.51 118.346 48.2359C118.391 47.6381 118.358 47.0424 118.289 46.4457C118.121 45.3491 117.943 44.2504 117.918 43.145C117.202 42.4316 116.513 41.7258 115.853 41.0322C114.085 43.1406 112.319 45.249 110.551 47.3573C111.697 48.193 112.473 49.055 113.006 49.8026H113.007Z" fill="#D68D65"/>
<path d="M100.145 25.8818C99.348 27.661 98.9929 29.3928 98.8365 32.3467C98.716 34.6136 98.707 37.7019 99.1634 41.3978C99.1634 41.3978 99.9146 45.0421 102.992 50.0834C103.072 50.2144 103.258 50.5084 103.614 50.7858C104.569 51.5301 105.9 51.4982 106.298 51.4883C108.492 51.4354 110.44 49.4493 111.503 48.3395C115.922 43.7286 118.13 41.4232 118.638 40.4972C120.511 37.0809 123.025 32.6858 120.831 28.3535C118.758 24.2601 113.785 22.7429 111.536 22.057C109.371 21.3965 105.873 20.3296 103.19 21.8038C101.575 22.6923 100.929 24.1313 100.147 25.8796L100.145 25.8818Z" fill="#F8B68C"/>
<path d="M113.368 38.3624C113.591 37.7272 113.923 36.4643 113.564 34.9329C113.446 34.4297 112.931 32.5195 111.077 31.1664C109.723 30.1778 108.399 30.028 106.429 29.6482C101.059 28.6133 98.2736 28.076 96.3482 26.331C94.7792 24.9096 93.2858 22.2376 94.4497 20.0345C95.9329 17.227 100.708 17.1169 101.192 17.1114C103.476 17.0861 105.384 17.8964 105.906 18.1232C107.681 18.8972 107.875 19.5292 109.309 19.9784C111.245 20.585 112.527 19.9442 114.35 19.8099C118.23 19.5237 122.503 21.6838 124.561 24.4197C126.739 27.3141 126.191 30.5213 125.936 32.0098C124.797 38.6652 118.366 42.4569 116.837 43.3102C116.655 43.1726 116.473 43.0349 116.291 42.8984C116.794 42.2224 117.484 41.1908 118.08 39.8443C118.717 38.4043 119.166 37.3561 118.604 36.8464C118.117 36.4049 117.051 36.5271 116.379 36.8464C115.523 37.2526 115.023 38.1147 115.114 39.0582C115.056 39.1793 114.868 39.5361 114.546 39.5834C114.134 39.6439 113.55 39.1881 113.368 38.3657V38.3624Z" fill="#353535"/>
<path d="M78.7054 97.7985C79.6963 97.9449 81.1859 98.1684 82.9908 98.4536C92.4794 99.9509 98.7901 100.946 105.985 102.691C110.654 103.823 115.446 104.573 120.089 105.779C121.674 106.191 125.296 107.159 128.252 105.715C129.581 105.065 130.056 104.28 130.15 104.118C131.312 102.112 129.675 99.5402 128.378 98.2851C126.448 96.419 123.491 96.2648 120.116 95.9907C118.134 95.83 116.642 95.9048 116.27 95.9224C110.56 96.1922 106.311 95.4138 99.1516 94.8776C95.188 94.5804 89.4784 94.2941 82.3203 94.424C81.8704 94.3745 81.1089 94.3403 80.2296 94.5638C79.5861 94.7279 78.872 94.9096 78.4759 95.4435C77.7606 96.408 78.6631 97.7379 78.7054 97.7996V97.7985Z" fill="#F8B68C"/>
<path d="M63.6484 103.85C63.6331 104.001 63.8023 104.118 63.9753 104.081C64.6278 103.94 65.4687 103.692 66.3584 103.242C67.1685 102.832 67.7774 102.376 68.2056 102.003C68.5299 102.113 69.0157 102.281 69.6016 102.494C70.9052 102.97 71.036 103.067 71.4283 103.113C72.4717 103.236 73.3498 102.767 73.7305 102.564C74.8599 101.96 75.347 101.074 75.5188 100.708C76.4648 98.9425 77.4955 98.2643 78.2864 97.9791C78.6671 97.8415 79.4221 97.64 79.8516 97.0301C80.1182 96.6503 80.19 96.211 80.2323 95.9489C80.3118 95.4568 80.299 94.8447 80.2464 94.5705C79.8477 94.5342 77.5031 95.1012 76.4148 95.5052C75.9713 95.6693 74.615 96.1636 73.1832 96.5335C72.4076 96.7339 71.7654 96.8572 71.3654 96.9277C70.8899 97.2789 70.4143 97.64 69.9374 98.0122C67.6851 99.7715 65.6943 101.558 63.9381 103.318C63.8638 103.385 63.6792 103.57 63.6497 103.847C63.6497 103.848 63.6497 103.85 63.6497 103.851L63.6484 103.85Z" fill="#F8B68C"/>
<path opacity="0.44" d="M130.008 81.8465C132.587 81.8608 135.297 82.0491 137.9 82.561C138.356 81.2784 138.807 79.9991 139.25 78.7241C137.244 77.7619 135.46 77.1762 134.144 76.8129C131.559 76.0994 129.403 75.5302 126.944 76.138C125.993 76.3736 125.262 76.7182 124.784 76.9813C124.148 78.7021 123.514 80.4229 122.878 82.1438C125.214 81.8179 127.621 81.8333 130.007 81.8454L130.008 81.8465Z" fill="#D68D65"/>
<path d="M120.96 78.2222C123.537 78.0427 126.642 78.0053 130.125 78.3345C134.978 78.7936 139.012 79.8175 142.039 80.8083C142.783 78.537 143.422 75.6811 143.478 72.3749C143.618 64.3136 140.227 58.1283 138.111 54.9465C137.387 54.0602 135.439 51.9353 131.958 50.8982C130.122 50.351 128.484 50.2916 127.376 50.3356C126.597 50.9356 125.486 51.9298 124.627 53.371C123.086 55.9583 123.273 58.4553 123.318 59.3306C123.478 62.5135 122.937 68.1174 120.962 78.22L120.96 78.2222Z" fill="#4F2671"/>
<path d="M80.4449 106.236H49.5781V107.778H80.4449C80.941 107.778 81.3422 107.433 81.3422 107.007C81.3422 106.581 80.941 106.236 80.4449 106.236Z" fill="#42B4E4"/>
<path d="M43.8173 106.236H26.2592C24.6261 106.236 23.1481 105.579 22.2072 104.433C21.265 103.287 21.0394 101.871 21.5867 100.55C25.0748 92.1252 28.7615 83.6301 32.5444 75.299C34.7095 70.5318 36.9541 65.7128 39.2153 60.9753C39.4038 60.5812 39.1846 60.1309 38.7256 59.9701C38.2667 59.8083 37.7424 59.9966 37.5553 60.3907C35.2889 65.1359 33.0417 69.9637 30.8728 74.7397C27.0835 83.0851 23.3903 91.5956 19.8959 100.035C19.1511 101.835 19.4588 103.762 20.7407 105.324C22.0238 106.885 24.0351 107.78 26.2592 107.78H43.8173V106.239V106.236Z" fill="#42B4E4"/>
<path d="M49.9191 94.8082C48.0296 95.2299 46.1003 94.2556 45.6094 92.6327L27.9167 34.0786C27.4257 32.4557 28.5602 30.7988 30.4497 30.3771C32.3392 29.9554 34.2685 30.9298 34.7594 32.5526L52.4521 91.1057C52.9431 92.7285 51.8086 94.3855 49.9191 94.8071V94.8082Z" fill="#42B4E4"/>
<path opacity="0.44" d="M128.176 102.381C126.094 102.747 123.868 102.72 121.758 102.604C117.135 102.352 112.554 101.623 107.977 101.024C104.38 100.599 100.745 100.524 97.1427 100.143C93.3291 99.7416 89.6129 98.9115 85.8261 98.3808C83.3598 98.1276 80.8357 98.2388 78.5181 97.4736C78.6129 97.6586 78.695 97.7797 78.7065 97.7973C79.6974 97.9437 81.187 98.1672 82.9919 98.4524C92.4805 99.9497 98.7912 100.945 105.986 102.69C110.655 103.822 115.447 104.572 120.09 105.778C121.676 106.19 125.297 107.158 128.253 105.713C129.582 105.064 130.057 104.279 130.151 104.117C130.595 103.35 130.63 102.501 130.431 101.674C129.723 102.003 128.959 102.244 128.177 102.382L128.176 102.381Z" fill="#D68D65"/>
</g>
<defs>
<clipPath id="clip0_247_5331">
<rect width="190.588" height="108" fill="white" transform="translate(0.706055)"/>
</clipPath>
</defs>
</svg>
