<svg width="32" height="32" viewBox="0 0 32 32" fill="none" xmlns="http://www.w3.org/2000/svg">
<path d="M28.8004 8.8775C28.7413 9.41865 28.3996 9.77941 28.0352 10.1422C25.9727 12.1925 23.9176 14.2477 21.8697 16.3076C21.7928 16.3725 21.711 16.4315 21.625 16.4839C21.7329 16.6002 21.7934 16.6697 21.8581 16.7345C22.9271 17.8057 24.003 18.8688 25.059 19.9531C25.2374 20.1354 25.3637 20.3622 25.4248 20.6099C25.5437 21.1648 25.1993 21.6544 24.6335 21.7383C23.9804 21.834 23.319 21.876 22.6611 21.9449L22.2032 21.9896C22.1509 22.5439 22.098 23.0912 22.0471 23.6358C22.0258 23.8589 22.0155 24.0826 21.9866 24.3036C21.9323 24.7167 21.7474 25.0396 21.3294 25.1773C21.1426 25.2472 20.9393 25.2601 20.7452 25.2143C20.5511 25.1684 20.3749 25.066 20.239 24.9198C19.5126 24.1988 18.7893 23.4749 18.0693 22.7484C17.6389 22.316 17.212 21.8802 16.7087 21.3714C16.64 21.4809 16.6035 21.5841 16.5327 21.655C14.0862 24.1065 11.638 26.558 9.18821 29.0094C8.56327 29.6352 7.97203 29.7667 7.15734 29.3901C6.65341 29.1703 6.17022 28.9055 5.7136 28.5991C4.43624 27.704 3.34862 26.6252 2.70925 25.1732C2.54631 24.7966 2.46381 24.3711 2.41019 23.9601C2.3545 23.5305 2.54081 23.1608 2.85225 22.8502C6.86401 18.8488 10.8739 14.846 14.882 10.8417C17.2429 8.483 19.6113 6.13321 21.9577 3.76208C22.4871 3.22713 23.0736 3.09287 23.7652 3.28014C24.6548 3.51905 25.4097 4.00993 26.1061 4.59239C27.1037 5.42614 27.9754 6.37212 28.4931 7.58798C28.6306 7.91569 28.6993 8.27646 28.7997 8.6207L28.8004 8.8775ZM16.2316 10.9368L20.9712 15.7403C21.0232 15.654 21.0821 15.572 21.1472 15.4952C23.1707 13.4821 25.1947 11.4701 27.2192 9.45927C27.8056 8.87681 27.8276 8.77079 27.4804 8.00588C27.3924 7.80988 27.2916 7.6199 27.1786 7.4372C26.5384 6.40132 25.6749 5.522 24.6514 4.86365C24.2602 4.61373 23.8064 4.45814 23.3733 4.27706C23.1341 4.17723 22.9416 4.26674 22.7546 4.45538C20.6586 6.56673 18.5574 8.67256 16.4509 10.7729C16.3818 10.8326 16.3085 10.8874 16.2316 10.9368ZM15.9442 20.6492L11.3229 16.0246L4.63699 22.7105C6.6816 23.7432 8.3364 25.2186 9.2872 27.4238L15.9442 20.6492ZM12.2317 15.1103L21.0008 23.8967C21.0695 23.2034 21.1486 22.4606 21.2125 21.717C21.2186 21.5568 21.2715 21.4019 21.3646 21.2714C21.4577 21.141 21.587 21.0407 21.7364 20.9831C21.9046 20.9193 22.081 20.8794 22.2602 20.8647C22.6865 20.8151 23.1148 20.7834 23.5424 20.74C23.7734 20.7166 24.003 20.685 24.2801 20.6505C21.3266 17.6749 18.4071 14.7326 15.5214 11.8235C14.3925 12.9499 13.2822 14.059 12.2317 15.1103ZM8.04284 28.5282C8.29515 28.4958 8.3584 28.4455 8.30684 28.2046C8.24359 27.9127 8.18103 27.6083 8.04628 27.3467C7.22128 25.7494 6.00579 24.5549 4.35099 23.8306C4.16638 23.7632 3.97433 23.7184 3.77899 23.6971C3.58787 23.6647 3.49368 23.7708 3.53356 23.9518C3.59887 24.2513 3.64218 24.5715 3.77624 24.8393C4.50186 26.3285 5.70316 27.5325 7.18966 28.2603C7.45297 28.3925 7.75753 28.4414 8.04284 28.5282Z" fill="white"/>
</svg>
