<svg width="51" height="61" viewBox="0 0 51 61" fill="none" xmlns="http://www.w3.org/2000/svg">
<path d="M34.7424 0.5C35.8181 0.943762 36.239 1.75003 36.1689 2.90475C36.1081 3.89696 36.1579 4.89543 36.1564 5.89077C36.1564 7.19236 35.6295 7.82207 34.3324 8.0627V18.9505C34.7191 18.9505 35.0418 18.9505 35.3645 18.9505C37.9663 18.977 39.625 20.6474 39.6312 23.2553C39.6312 24.8178 39.6312 26.3804 39.6312 28.0101H40.3031C41.9961 28.0101 43.6906 28.0101 45.3852 28.0101C48.503 28.0195 50.4984 30.0164 50.5 33.1368C50.5 40.4943 50.5 47.8528 50.5 55.2124C50.5 58.0249 49.2373 59.6812 46.5216 60.4297C46.4873 60.4391 46.4608 60.4766 46.4312 60.5H4.57735C4.16943 60.3834 3.76863 60.243 3.37699 60.0797C1.53746 59.2 0.52884 57.7187 0.521045 55.6796C0.492985 48.045 0.492985 40.4099 0.521045 32.7743C0.533517 30.0773 2.58817 28.0695 5.29134 28.0195C7.14022 27.9867 8.99221 28.0117 10.8427 28.0101H11.5348C11.5348 27.0585 11.5348 26.1835 11.5348 25.3085C11.5348 24.4334 11.5083 23.5897 11.5613 22.7318C11.686 20.6583 13.1997 19.138 15.27 18.9817C15.7377 18.9474 16.196 18.9817 16.7322 18.9817C16.7322 18.7083 16.7322 18.513 16.7322 18.3286C16.7494 17.0989 16.8071 15.8676 16.7728 14.6394C16.7385 13.4113 17.2966 12.5581 18.2506 11.8894C19.1283 11.2737 20.0091 10.6612 20.8712 10.0252C21.4152 9.62368 21.6865 8.70178 21.4573 8.08145C21.4106 7.95644 21.2562 7.85957 21.1346 7.77675C20.8524 7.5995 20.6219 7.35067 20.4664 7.05543C20.3109 6.7602 20.236 6.42904 20.2492 6.09546C20.2492 5.06106 20.3006 4.02197 20.2367 2.99069C20.165 1.82347 20.5485 0.982825 21.6397 0.507813L34.7424 0.5ZM2.40266 34.7618C2.39019 34.9181 2.37928 35.0009 2.37928 35.0743C2.37928 41.9089 2.37928 48.744 2.37928 55.5796C2.37928 57.4093 3.65291 58.6218 5.50959 58.6218H45.4366C47.4133 58.6218 48.6309 57.3968 48.6324 55.3983C48.6324 48.6992 48.6324 42.0006 48.6324 35.3025C48.6324 35.1462 48.609 34.9775 48.5919 34.754C48.2271 35.0056 47.9278 35.2228 47.6222 35.4197L33.606 44.7449C32.8047 45.2777 32.2716 45.2887 31.9161 44.7761C31.5607 44.2636 31.7696 43.7214 32.5818 43.1808C37.3043 40.0401 42.0221 36.8968 46.7352 33.7509C47.1725 33.463 47.5487 33.0913 47.842 32.6571C48.3877 31.818 48.1819 30.8586 47.3089 30.3992C46.7305 30.0955 46.0909 29.9273 45.4382 29.907C41.6017 29.8633 37.7636 29.8851 33.9256 29.8851H5.80734C5.49525 29.8778 5.18299 29.8877 4.87199 29.9148C3.60303 30.0601 2.81889 30.8805 2.92334 31.9461C3.00752 32.8133 3.60303 33.3165 4.26401 33.7571C8.96779 36.8895 13.6721 40.0198 18.3769 43.148C18.5777 43.2676 18.7681 43.404 18.9459 43.5558C19.1222 43.7012 19.2347 43.9101 19.2591 44.1376C19.2836 44.3652 19.2182 44.5933 19.0769 44.773C18.7978 45.1855 18.3863 45.2605 17.9404 45.0762C17.7487 44.9808 17.5665 44.8672 17.3963 44.7371C14.4126 42.7558 11.4304 40.7708 8.44971 38.7822L2.40266 34.7618ZM32.3978 8.08301H23.4262C23.3992 8.13236 23.3783 8.18483 23.3639 8.23926C23.3501 8.35592 23.3449 8.47342 23.3483 8.59084C23.4418 9.94868 22.8806 10.9596 21.7613 11.7065C20.9522 12.2487 20.1697 12.83 19.3653 13.3785C18.8586 13.7238 18.5983 14.1472 18.6232 14.7941C18.6591 15.7879 18.6139 16.7848 18.6061 17.7801C18.6061 18.1614 18.6061 18.5427 18.6061 18.9239H21.1908C21.1908 18.4552 21.1908 18.0051 21.1908 17.5614C21.1908 16.8223 21.5431 16.3957 22.1261 16.3973C22.7091 16.3989 23.0615 16.8207 23.0615 17.5614C23.0615 19.5521 23.0615 21.5433 23.0615 23.535C23.0615 24.3381 23.1706 24.4725 23.9843 24.4084C26.3934 24.2397 28.8009 24.0584 31.2068 23.8647C32.2513 23.7803 32.5319 23.4584 32.521 22.4209C32.482 18.9833 32.4321 15.5457 32.3963 12.1159C32.3854 10.7831 32.3978 9.45805 32.3978 8.08301ZM22.1542 2.40161V6.12515H34.2545V2.40161H22.1542ZM17.2155 27.9742H33.9069V24.4209C33.2053 25.3131 32.3791 25.7007 31.3596 25.7257C30.736 25.7413 30.1125 25.8303 29.4982 25.8819C27.5574 26.021 25.6181 26.1725 23.6772 26.285C22.798 26.335 21.9811 25.9991 21.6257 25.2022C21.2843 24.4334 20.801 24.3194 20.1026 24.3991C19.8108 24.4155 19.5183 24.4155 19.2265 24.3991H17.2155V27.9742ZM21.158 20.8255C19.3201 20.8255 17.5335 20.8177 15.7486 20.8255C14.2364 20.8349 13.4102 21.6646 13.4102 23.1912C13.3993 24.6147 13.4102 26.0382 13.4102 27.4616C13.4102 27.6304 13.4367 27.7991 13.4507 27.9663H15.3214C15.3214 26.7163 15.3214 25.5116 15.3214 24.3053C15.3214 22.9756 15.7782 22.5224 17.1126 22.5209H21.1658L21.158 20.8255ZM37.7574 27.9804C37.7574 26.2179 37.7917 24.5225 37.7418 22.824C37.7153 21.9084 37.2071 21.2052 36.317 20.9583C35.7183 20.7912 35.062 20.8333 34.3886 20.7802V22.449C35.5562 22.7615 35.8368 23.1287 35.8399 24.3241C35.8399 25.3366 35.8399 26.3554 35.8399 27.3632C35.8399 27.5679 35.8633 27.7726 35.8758 27.9773L37.7574 27.9804Z" fill="#00B4AA"/>
<path d="M29.4331 43.7824C29.4331 44.8762 29.4424 45.9699 29.4331 47.0637C29.4112 49.4778 27.765 51.2138 25.4796 51.2419C23.1179 51.2701 21.2565 49.5091 21.216 47.1247C21.1739 44.7808 21.1895 42.437 21.216 40.0932C21.2269 38.9119 22.0516 38.1213 23.2223 38.1135C24.6035 38.1041 25.9858 38.1041 27.369 38.1135C28.624 38.1135 29.3956 38.8791 29.4393 40.1448C29.4393 40.1838 29.4393 40.2229 29.4393 40.262C29.4372 41.4339 29.4351 42.6073 29.4331 43.7824ZM23.0695 40.0167C23.0695 42.3605 23.0695 44.6386 23.0695 46.9168C23.0695 48.3762 24.022 49.3622 25.397 49.3653C26.7346 49.3653 27.5608 48.4528 27.5639 46.9512C27.5639 44.8449 27.5639 42.7391 27.5639 40.6339C27.5639 40.4292 27.5421 40.226 27.5296 40.0167H23.0695Z" fill="#00B4AA"/>
<path d="M26.2291 46.5339C26.2299 46.6554 26.2059 46.7756 26.1587 46.8874C26.1114 46.9992 26.0418 47.1001 25.9542 47.184C25.8666 47.2678 25.7629 47.3328 25.6493 47.375C25.5357 47.4172 25.4147 47.4357 25.2938 47.4293C25.0527 47.4253 24.8231 47.3256 24.6554 47.152C24.4878 46.9783 24.3958 46.7451 24.3997 46.5035C24.4036 46.2619 24.5032 46.0317 24.6764 45.8637C24.8496 45.6956 25.0823 45.6034 25.3234 45.6074C25.4446 45.6049 25.565 45.6274 25.6772 45.6733C25.7895 45.7192 25.8911 45.7877 25.976 45.8745C26.0608 45.9613 26.127 46.0646 26.1706 46.178C26.2141 46.2914 26.234 46.4125 26.2291 46.5339Z" fill="#00B4AA"/>
</svg>
