<svg width="55" height="60" viewBox="0 0 55 60" fill="none" xmlns="http://www.w3.org/2000/svg">
<path d="M28.0746 26.9212C27.8285 27.8399 27.5672 28.7538 27.2766 29.7979C28.3804 29.3467 29.3611 28.8944 30.377 28.5476C31.0531 28.3133 31.4152 27.9477 31.6026 27.247C31.9096 26.101 32.3338 24.9878 32.7064 23.8676C32.6736 23.8254 32.6502 23.7703 32.6303 23.7715C32.1077 23.809 31.687 23.6543 31.5487 23.1048C31.4105 22.5552 31.7456 22.2506 32.1827 21.9869C34.771 20.425 37.3477 18.8431 39.936 17.2811C40.8641 16.721 41.5249 15.9688 41.8038 14.9107C41.8553 14.7103 41.8682 14.4994 41.9139 14.1935C41.6526 14.3236 41.4816 14.4033 41.3163 14.4923C37.8726 16.3672 34.4359 18.249 30.9793 20.0969C30.254 20.4835 29.79 21.0179 29.5591 21.7842C29.4021 22.3068 29.2533 22.8318 29.0904 23.352L28.0746 26.9212ZM27.4149 22.8575C27.7383 21.8217 28.098 20.7964 28.4694 19.6938C27.4945 18.9122 27.1067 17.6127 26.5103 16.4457C26.1869 15.8106 26.2759 15.138 26.4658 14.4537C26.8173 13.1764 29.285 11.8676 30.6301 12.3445C31.3414 12.5964 31.9249 12.9948 32.2764 13.6662C32.7732 14.613 33.2407 15.575 33.7516 16.5956C34.4429 16.223 35.1882 15.8235 35.931 15.4239C37.4051 14.6236 38.8709 13.808 40.3567 13.0323C40.7434 12.8308 40.8629 12.5941 40.8605 12.1687C40.8441 8.55737 40.8605 4.94483 40.8441 1.33229C40.8406 0.78508 40.9262 0.323406 41.3949 0H42.0979C42.3264 0.39957 42.5537 0.799141 42.8548 1.3276H43.3681C46.5317 1.3276 49.6954 1.3276 52.8591 1.3276C53.5294 1.3276 54.1105 1.45533 54.3953 2.14784C54.6378 2.73372 54.4515 3.21765 53.7719 3.81642C53.0279 4.47261 52.2826 5.12645 51.5023 5.80842C52.2838 6.49741 53.0349 7.14891 53.7719 7.81447C54.0002 7.99617 54.1956 8.21575 54.3496 8.46363C54.8183 9.34831 54.1387 10.2857 53.0325 10.2892C49.8103 10.2986 46.588 10.2892 43.3657 10.2892H42.6908C42.4951 11.3075 42.5525 11.454 43.245 12.1359C43.3864 12.2951 43.4833 12.4887 43.5262 12.6972C43.8871 14.1525 43.6223 15.5094 42.9029 16.8148C42.7321 17.112 42.6353 17.446 42.6205 17.7885C42.6029 22.4955 42.6088 27.2013 42.6088 31.907V32.5749C44.0969 32.5749 45.5006 32.5749 46.9055 32.5749C47.4129 32.5749 47.9285 32.541 48.4288 32.6206C49.9907 32.8714 50.9316 34.1041 50.9328 35.8652C50.9328 43.0708 50.9328 50.2763 50.9328 57.4819V58.2365C51.753 58.2365 52.4783 58.2201 53.1989 58.2424C53.8153 58.2611 54.2148 58.738 54.0531 59.2969C53.9793 59.5536 53.7461 59.7656 53.5844 60H1.08712C0.688727 59.7106 0.360641 59.379 0.559836 58.8282C0.759031 58.2775 1.20429 58.2178 1.71048 58.2365C2.27409 58.2529 2.84003 58.2365 3.49504 58.2365C3.49504 57.5897 3.49504 56.9733 3.49504 56.3558C3.49504 55.8098 3.48215 55.2602 3.5337 54.7154C3.66259 53.3549 4.7734 52.1703 6.1373 52.1375C8.77136 52.0707 11.4101 52.1141 14.0418 52.1269C14.309 52.1269 14.575 52.2265 14.9136 52.2945C14.9136 51.527 14.9136 50.7712 14.9136 50.0236C14.9206 48.0809 16.1428 46.8458 18.0902 46.82C18.812 46.8107 19.5349 46.8048 20.2567 46.82C20.586 46.8294 20.7817 46.745 20.934 46.4193C22.1163 43.8953 23.3243 41.3807 24.5125 38.8603C24.619 38.6314 24.6814 38.3846 24.6964 38.1326C24.8078 36.1055 24.8136 34.0678 25.0316 32.0523C25.1768 30.7095 25.6104 29.3971 25.9303 28.0754C26.0639 27.527 26.2279 26.9845 26.3931 26.4443L27.4149 22.8575ZM39.5201 53.062C39.533 54.1553 39.5201 55.2485 39.5201 56.3429V58.2072H49.1389C49.1517 58.0279 49.1717 57.8768 49.1717 57.7256C49.1717 50.424 49.1717 43.1227 49.1717 35.8219C49.1717 34.7673 48.7264 34.3326 47.6695 34.3314C45.5018 34.3267 43.3349 34.3267 41.1687 34.3314C39.9185 34.3314 39.5212 34.7286 39.5212 35.9719C39.5212 40.0902 39.5212 44.2094 39.5212 48.3293L39.5201 53.062ZM37.7625 48.3222C37.7625 47.0931 37.7625 45.8615 37.7625 44.6324C37.7625 43.293 37.3699 42.9075 36.0049 42.9075H29.7947C28.4823 42.9075 28.0898 43.3012 28.0886 44.623C28.0886 48.9374 28.0886 53.2518 28.0886 57.5663V58.192H37.7625C37.7625 56.4496 37.7554 54.7529 37.7625 53.0562V48.3222ZM26.29 58.2166C26.3089 58.1249 26.3222 58.0322 26.3298 57.9389C26.3298 55.2673 26.3427 52.5956 26.3298 49.9229C26.3298 49.0054 25.8459 48.5835 24.8617 48.58C22.6385 48.5722 20.4153 48.5722 18.1921 48.58C17.1048 48.58 16.6806 49.0241 16.6794 50.1185C16.6794 52.6339 16.6794 55.1497 16.6794 57.6659V58.2166H26.29ZM40.8148 18.8653C40.7293 18.8918 40.6459 18.9247 40.5653 18.9638C38.817 20.0219 37.0594 21.0765 35.3217 22.1557C35.1483 22.2635 35.0218 22.5072 34.9515 22.7087C34.3398 24.5167 33.7563 26.3341 33.1376 28.1398C33.0205 28.5007 33.065 28.7351 33.3122 29.0257C34.4769 30.3908 35.6205 31.7746 36.7559 33.1632C37.036 33.4908 37.2413 33.8755 37.3574 34.2906C37.4736 34.7057 37.4979 35.1411 37.4285 35.5665C37.302 36.4148 37.2141 37.269 37.1122 38.1209C36.995 39.1192 36.8778 40.1129 36.7513 41.1347L37.7601 41.369V40.6929C37.7601 38.9751 37.7402 37.2585 37.7683 35.5372C37.7894 34.2424 38.435 33.3108 39.6197 32.8034C39.9853 32.6441 40.3977 32.5925 40.8148 32.4859V18.8653ZM51.8046 3.18719C51.6874 3.12626 51.6522 3.09462 51.6194 3.09462C48.7534 3.09462 45.8873 3.09462 43.0212 3.08056C42.6697 3.08056 42.6029 3.23875 42.6053 3.54926C42.6146 4.85578 42.6053 6.16112 42.6053 7.46763V8.50112H51.8725C51.2292 7.9293 50.682 7.44654 50.1372 6.95674C49.2513 6.16698 49.2537 5.45923 50.1477 4.65892C50.6856 4.17498 51.2257 3.70042 51.8046 3.18719ZM14.9136 58.2037C14.9136 57.1995 14.9136 56.2293 14.9136 55.2579C14.9054 54.3205 14.4519 53.867 13.5075 53.8518C12.5912 53.8389 11.6749 53.8518 10.7586 53.8518C9.37481 53.8518 7.98982 53.8424 6.606 53.8576C5.84202 53.8658 5.3288 54.2467 5.29717 54.9122C5.24795 55.9961 5.28428 57.0847 5.28428 58.2037H14.9136ZM22.7525 46.7204L22.8814 46.8704C23.0771 46.7216 23.3196 46.6068 23.4673 46.4181C25.2624 44.057 27.0563 41.6948 28.8139 39.3067C29.1172 38.8827 29.3291 38.4003 29.4361 37.89C29.756 36.3843 30.0032 34.8634 30.2774 33.3483C30.459 32.3453 30.6395 31.3434 30.8387 30.2431C29.5603 30.7704 28.3956 31.2684 27.2168 31.7196C26.8653 31.8555 26.7599 32.0406 26.7481 32.398C26.6638 34.2892 26.5864 36.1805 26.4365 38.067C26.3819 38.7047 26.219 39.3284 25.9549 39.9113C24.9987 42.0205 23.9828 44.1086 22.9892 46.2049C22.9025 46.3759 22.831 46.5517 22.7537 46.7251L22.7525 46.7204ZM34.9386 41.1124C34.9726 40.9472 35.0147 40.7995 35.0323 40.6437C35.2456 38.9048 35.4834 37.1682 35.6428 35.4247C35.6686 34.9889 35.5518 34.5566 35.31 34.1931C34.7933 33.442 34.1699 32.7648 33.5852 32.0605C33.256 31.6645 32.9185 31.2743 32.5307 30.815C32.3678 31.7149 32.2565 32.5058 32.0713 33.2757C31.9378 33.8381 31.9987 34.2224 32.5869 34.4791C33.5055 34.8798 33.8582 35.6332 33.9203 36.6222C34.0153 38.1127 34.2074 39.5973 34.3597 41.103L34.9386 41.1124ZM30.1263 18.5619C30.6887 18.2103 31.2453 17.9643 31.6683 17.5706C31.8534 17.3995 31.8897 16.8886 31.7854 16.6144C31.4847 15.8971 31.1363 15.2007 30.7426 14.5298C30.4625 14.0283 29.9704 13.8783 29.4361 14.0963C29.1294 14.22 28.8351 14.3726 28.5573 14.5521C28.1003 14.8556 27.9058 15.2915 28.1495 15.8129C28.4757 16.5383 28.843 17.2445 29.2498 17.9279C29.4092 18.1904 29.7759 18.3205 30.1263 18.5619ZM32.5811 41.1124C32.4287 39.5446 32.2963 38.0506 32.1217 36.5613C32.0959 36.3468 31.8616 36.157 31.7233 35.9566C31.2242 37.8209 31.2078 39.7133 29.5896 41.1124H32.5811ZM25.3889 46.8107L26.2888 47.0064V45.626L25.3889 46.8107Z" fill="#00B4AA"/>
</svg>
