<svg width="61" height="62" viewBox="0 0 61 62" fill="none" xmlns="http://www.w3.org/2000/svg">
<mask id="path-1-outside-1_102_3542" maskUnits="userSpaceOnUse" x="-0.500076" y="0" width="62" height="51" fill="black">
<rect fill="white" x="-0.500076" width="62" height="51"/>
<path d="M33.6654 1C33.8701 1.27032 34.1451 1.51251 34.2716 1.8172C34.7841 3.05785 35.2372 4.32506 35.7528 5.56727C35.81 5.68865 35.8913 5.79712 35.9917 5.88604C36.0922 5.97496 36.2097 6.04248 36.3372 6.08446C39.0504 6.73863 41.6432 7.81759 44.0196 9.28139C44.1339 9.33649 44.2582 9.36781 44.3849 9.37345C44.5117 9.37909 44.6383 9.35893 44.757 9.31421C46.0142 8.79336 47.2611 8.24283 48.4974 7.66261C49.0427 7.40948 49.4349 7.50636 49.8552 7.92199C51.0692 9.16264 52.2941 10.3939 53.5394 11.6017C53.9972 12.0471 54.0971 12.4721 53.8206 13.058C53.2519 14.2549 52.741 15.4768 52.1894 16.6815C52.1142 16.8146 52.0784 16.9664 52.0861 17.1191C52.0938 17.2718 52.1449 17.4192 52.2332 17.544C53.7043 19.8705 54.767 22.4314 55.3752 25.116C55.3996 25.2759 55.4694 25.4254 55.5763 25.5468C55.6832 25.6681 55.8228 25.7561 55.9783 25.8004C57.2282 26.2536 58.4578 26.727 59.6812 27.2333C59.9859 27.3583 60.2281 27.6333 60.4999 27.8395V34.1678C60.2281 34.3756 59.9859 34.6521 59.6812 34.7787C58.4391 35.2912 57.1704 35.7428 55.9314 36.26C55.8098 36.3185 55.7013 36.4009 55.6125 36.5024C55.5236 36.6039 55.4562 36.7224 55.4143 36.8506C54.7645 39.5482 53.6953 42.127 52.2457 44.4929C52.185 44.6145 52.1497 44.7472 52.1419 44.8828C52.1341 45.0185 52.154 45.1543 52.2004 45.282C52.7222 46.543 53.2941 47.7821 53.844 49.0321C54.1065 49.6321 54.0003 50.0868 53.5659 50.3008C53.0972 50.5274 52.6472 50.3008 52.3754 49.6993C51.7207 48.2414 51.0801 46.7758 50.4208 45.3242C50.3274 45.1419 50.2866 44.9372 50.3029 44.733C50.3192 44.5288 50.3919 44.3332 50.513 44.1679C52.1855 41.6397 53.3527 38.8116 53.9503 35.8397C53.983 35.6375 54.0718 35.4486 54.2066 35.2945C54.3414 35.1404 54.5168 35.0272 54.7127 34.9678C55.9627 34.5115 57.186 34.0162 58.4297 33.5615C58.7422 33.4427 58.8844 33.2896 58.8766 32.9271C58.8516 31.6583 58.8563 30.388 58.8766 29.1192C58.8766 28.7755 58.7813 28.6005 58.4469 28.477C57.197 28.0208 55.9752 27.5176 54.7299 27.0708C54.526 27.0069 54.3444 26.8866 54.2061 26.7237C54.0678 26.5608 53.9786 26.362 53.9487 26.1504C53.3591 23.216 52.2049 20.4241 50.5505 17.93C50.4117 17.7418 50.3292 17.5182 50.3127 17.285C50.2961 17.0518 50.346 16.8187 50.4567 16.6128C50.9973 15.4456 51.502 14.269 52.0426 13.0924C52.1988 12.769 52.1988 12.5486 51.9113 12.2814C51.0218 11.4314 50.1515 10.5616 49.3005 9.67202C49.0162 9.37514 48.7881 9.30795 48.399 9.4939C47.2553 10.0408 46.0835 10.5267 44.9351 11.0564C44.7208 11.171 44.4782 11.2222 44.2358 11.2039C43.9934 11.1856 43.7612 11.0987 43.5665 10.9533C41.0887 9.30403 38.3139 8.15242 35.3966 7.56261C35.1751 7.53077 34.9673 7.43615 34.7978 7.28995C34.6284 7.14375 34.5043 6.95207 34.4404 6.7376C34.0013 5.5282 33.5029 4.34068 33.0717 3.12816C32.9264 2.71565 32.7077 2.61565 32.3014 2.62503C31.1109 2.64847 29.9187 2.65472 28.7282 2.62503C28.2907 2.61409 28.0735 2.7344 27.922 3.16097C27.4892 4.3735 26.9923 5.56102 26.5502 6.76885C26.4869 6.97254 26.3672 7.15409 26.2048 7.29239C26.0425 7.4307 25.8442 7.52007 25.633 7.55011C22.6997 8.14177 19.9088 9.29642 17.4147 10.9502C17.2267 11.0893 17.003 11.172 16.7698 11.1886C16.5365 11.2052 16.3034 11.155 16.0976 11.0439C14.9305 10.5017 13.743 10.0048 12.5775 9.45796C12.2166 9.28764 11.9978 9.33921 11.7228 9.62671C10.8895 10.5038 10.0339 11.3606 9.15578 12.1971C8.86205 12.4783 8.78393 12.7033 8.97142 13.0971C9.52608 14.2612 10.026 15.4502 10.5588 16.6253C10.6645 16.823 10.7122 17.0465 10.6964 17.2701C10.6807 17.4938 10.6021 17.7084 10.4698 17.8894C8.80735 20.3979 7.64841 23.2058 7.05746 26.1567C7.0271 26.3594 6.94041 26.5495 6.80726 26.7053C6.67411 26.8611 6.49986 26.9764 6.30437 27.0379C5.07787 27.4895 3.87169 27.9911 2.6405 28.4286C2.23271 28.5739 2.12178 28.7849 2.13116 29.1942C2.15615 30.4052 2.16084 31.6177 2.13116 32.8271C2.11866 33.2599 2.27802 33.4365 2.6655 33.5756C3.85606 34.0068 5.02631 34.4959 6.21844 34.9256C6.44204 34.9916 6.64193 35.1205 6.79429 35.297C6.94666 35.4735 7.04506 35.6901 7.07777 35.9209C7.66219 38.8164 8.80072 41.5717 10.4307 44.0351C10.5826 44.2368 10.6735 44.4778 10.6926 44.7295C10.7117 44.9812 10.6582 45.2332 10.5385 45.4555C9.89012 46.8524 9.28859 48.268 8.65425 49.6743C8.37457 50.2993 7.94803 50.5212 7.47306 50.3102C6.99808 50.0993 6.90434 49.6352 7.18245 49.0024C7.72617 47.7711 8.2652 46.5383 8.82611 45.3148C8.89988 45.1811 8.93405 45.0291 8.92465 44.8766C8.91524 44.7242 8.86264 44.5775 8.77299 44.4539C7.30181 42.1231 6.23971 39.558 5.63253 36.8694C5.60438 36.7088 5.53041 36.5598 5.41953 36.4403C5.30864 36.3208 5.16558 36.236 5.00757 36.1959C3.74513 35.7272 2.49832 35.2271 1.23745 34.76C0.729668 34.5725 0.495305 34.2599 0.499993 33.7084C0.515617 31.9115 0.515617 30.1146 0.499993 28.3177C0.499993 27.7411 0.73748 27.4255 1.2687 27.2239C2.53113 26.7551 3.76857 26.2504 5.03725 25.7832C5.18465 25.7447 5.31782 25.6645 5.42089 25.5523C5.52395 25.4401 5.59254 25.3006 5.61847 25.1504C6.23914 22.4482 7.30069 19.8667 8.76049 17.5097C8.81993 17.389 8.85431 17.2576 8.86156 17.1233C8.86881 16.9891 8.84878 16.8547 8.80268 16.7284C8.28239 15.4674 7.72773 14.219 7.1512 12.9783C6.90746 12.4549 6.99496 12.0658 7.40275 11.6705C8.67143 10.4205 9.92814 9.16368 11.1729 7.90012C11.5697 7.49386 11.9541 7.41574 12.4822 7.65793C13.7196 8.23137 14.968 8.78763 16.232 9.30795C16.3587 9.35292 16.4933 9.37181 16.6275 9.36349C16.7618 9.35517 16.8929 9.3198 17.0132 9.25952C19.378 7.80827 21.9577 6.74086 24.6565 6.09696C24.7849 6.05481 24.9033 5.98675 25.0044 5.89698C25.1054 5.80721 25.187 5.69765 25.244 5.57508C25.7612 4.33287 26.2127 3.06566 26.7267 1.82501C26.8533 1.52188 27.1283 1.27813 27.3345 1.00781L33.6654 1Z"/>
</mask>
<path d="M33.6654 1C33.8701 1.27032 34.1451 1.51251 34.2716 1.8172C34.7841 3.05785 35.2372 4.32506 35.7528 5.56727C35.81 5.68865 35.8913 5.79712 35.9917 5.88604C36.0922 5.97496 36.2097 6.04248 36.3372 6.08446C39.0504 6.73863 41.6432 7.81759 44.0196 9.28139C44.1339 9.33649 44.2582 9.36781 44.3849 9.37345C44.5117 9.37909 44.6383 9.35893 44.757 9.31421C46.0142 8.79336 47.2611 8.24283 48.4974 7.66261C49.0427 7.40948 49.4349 7.50636 49.8552 7.92199C51.0692 9.16264 52.2941 10.3939 53.5394 11.6017C53.9972 12.0471 54.0971 12.4721 53.8206 13.058C53.2519 14.2549 52.741 15.4768 52.1894 16.6815C52.1142 16.8146 52.0784 16.9664 52.0861 17.1191C52.0938 17.2718 52.1449 17.4192 52.2332 17.544C53.7043 19.8705 54.767 22.4314 55.3752 25.116C55.3996 25.2759 55.4694 25.4254 55.5763 25.5468C55.6832 25.6681 55.8228 25.7561 55.9783 25.8004C57.2282 26.2536 58.4578 26.727 59.6812 27.2333C59.9859 27.3583 60.2281 27.6333 60.4999 27.8395V34.1678C60.2281 34.3756 59.9859 34.6521 59.6812 34.7787C58.4391 35.2912 57.1704 35.7428 55.9314 36.26C55.8098 36.3185 55.7013 36.4009 55.6125 36.5024C55.5236 36.6039 55.4562 36.7224 55.4143 36.8506C54.7645 39.5482 53.6953 42.127 52.2457 44.4929C52.185 44.6145 52.1497 44.7472 52.1419 44.8828C52.1341 45.0185 52.154 45.1543 52.2004 45.282C52.7222 46.543 53.2941 47.7821 53.844 49.0321C54.1065 49.6321 54.0003 50.0868 53.5659 50.3008C53.0972 50.5274 52.6472 50.3008 52.3754 49.6993C51.7207 48.2414 51.0801 46.7758 50.4208 45.3242C50.3274 45.1419 50.2866 44.9372 50.3029 44.733C50.3192 44.5288 50.3919 44.3332 50.513 44.1679C52.1855 41.6397 53.3527 38.8116 53.9503 35.8397C53.983 35.6375 54.0718 35.4486 54.2066 35.2945C54.3414 35.1404 54.5168 35.0272 54.7127 34.9678C55.9627 34.5115 57.186 34.0162 58.4297 33.5615C58.7422 33.4427 58.8844 33.2896 58.8766 32.9271C58.8516 31.6583 58.8563 30.388 58.8766 29.1192C58.8766 28.7755 58.7813 28.6005 58.4469 28.477C57.197 28.0208 55.9752 27.5176 54.7299 27.0708C54.526 27.0069 54.3444 26.8866 54.2061 26.7237C54.0678 26.5608 53.9786 26.362 53.9487 26.1504C53.3591 23.216 52.2049 20.4241 50.5505 17.93C50.4117 17.7418 50.3292 17.5182 50.3127 17.285C50.2961 17.0518 50.346 16.8187 50.4567 16.6128C50.9973 15.4456 51.502 14.269 52.0426 13.0924C52.1988 12.769 52.1988 12.5486 51.9113 12.2814C51.0218 11.4314 50.1515 10.5616 49.3005 9.67202C49.0162 9.37514 48.7881 9.30795 48.399 9.4939C47.2553 10.0408 46.0835 10.5267 44.9351 11.0564C44.7208 11.171 44.4782 11.2222 44.2358 11.2039C43.9934 11.1856 43.7612 11.0987 43.5665 10.9533C41.0887 9.30403 38.3139 8.15242 35.3966 7.56261C35.1751 7.53077 34.9673 7.43615 34.7978 7.28995C34.6284 7.14375 34.5043 6.95207 34.4404 6.7376C34.0013 5.5282 33.5029 4.34068 33.0717 3.12816C32.9264 2.71565 32.7077 2.61565 32.3014 2.62503C31.1109 2.64847 29.9187 2.65472 28.7282 2.62503C28.2907 2.61409 28.0735 2.7344 27.922 3.16097C27.4892 4.3735 26.9923 5.56102 26.5502 6.76885C26.4869 6.97254 26.3672 7.15409 26.2048 7.29239C26.0425 7.4307 25.8442 7.52007 25.633 7.55011C22.6997 8.14177 19.9088 9.29642 17.4147 10.9502C17.2267 11.0893 17.003 11.172 16.7698 11.1886C16.5365 11.2052 16.3034 11.155 16.0976 11.0439C14.9305 10.5017 13.743 10.0048 12.5775 9.45796C12.2166 9.28764 11.9978 9.33921 11.7228 9.62671C10.8895 10.5038 10.0339 11.3606 9.15578 12.1971C8.86205 12.4783 8.78393 12.7033 8.97142 13.0971C9.52608 14.2612 10.026 15.4502 10.5588 16.6253C10.6645 16.823 10.7122 17.0465 10.6964 17.2701C10.6807 17.4938 10.6021 17.7084 10.4698 17.8894C8.80735 20.3979 7.64841 23.2058 7.05746 26.1567C7.0271 26.3594 6.94041 26.5495 6.80726 26.7053C6.67411 26.8611 6.49986 26.9764 6.30437 27.0379C5.07787 27.4895 3.87169 27.9911 2.6405 28.4286C2.23271 28.5739 2.12178 28.7849 2.13116 29.1942C2.15615 30.4052 2.16084 31.6177 2.13116 32.8271C2.11866 33.2599 2.27802 33.4365 2.6655 33.5756C3.85606 34.0068 5.02631 34.4959 6.21844 34.9256C6.44204 34.9916 6.64193 35.1205 6.79429 35.297C6.94666 35.4735 7.04506 35.6901 7.07777 35.9209C7.66219 38.8164 8.80072 41.5717 10.4307 44.0351C10.5826 44.2368 10.6735 44.4778 10.6926 44.7295C10.7117 44.9812 10.6582 45.2332 10.5385 45.4555C9.89012 46.8524 9.28859 48.268 8.65425 49.6743C8.37457 50.2993 7.94803 50.5212 7.47306 50.3102C6.99808 50.0993 6.90434 49.6352 7.18245 49.0024C7.72617 47.7711 8.2652 46.5383 8.82611 45.3148C8.89988 45.1811 8.93405 45.0291 8.92465 44.8766C8.91524 44.7242 8.86264 44.5775 8.77299 44.4539C7.30181 42.1231 6.23971 39.558 5.63253 36.8694C5.60438 36.7088 5.53041 36.5598 5.41953 36.4403C5.30864 36.3208 5.16558 36.236 5.00757 36.1959C3.74513 35.7272 2.49832 35.2271 1.23745 34.76C0.729668 34.5725 0.495305 34.2599 0.499993 33.7084C0.515617 31.9115 0.515617 30.1146 0.499993 28.3177C0.499993 27.7411 0.73748 27.4255 1.2687 27.2239C2.53113 26.7551 3.76857 26.2504 5.03725 25.7832C5.18465 25.7447 5.31782 25.6645 5.42089 25.5523C5.52395 25.4401 5.59254 25.3006 5.61847 25.1504C6.23914 22.4482 7.30069 19.8667 8.76049 17.5097C8.81993 17.389 8.85431 17.2576 8.86156 17.1233C8.86881 16.9891 8.84878 16.8547 8.80268 16.7284C8.28239 15.4674 7.72773 14.219 7.1512 12.9783C6.90746 12.4549 6.99496 12.0658 7.40275 11.6705C8.67143 10.4205 9.92814 9.16368 11.1729 7.90012C11.5697 7.49386 11.9541 7.41574 12.4822 7.65793C13.7196 8.23137 14.968 8.78763 16.232 9.30795C16.3587 9.35292 16.4933 9.37181 16.6275 9.36349C16.7618 9.35517 16.8929 9.3198 17.0132 9.25952C19.378 7.80827 21.9577 6.74086 24.6565 6.09696C24.7849 6.05481 24.9033 5.98675 25.0044 5.89698C25.1054 5.80721 25.187 5.69765 25.244 5.57508C25.7612 4.33287 26.2127 3.06566 26.7267 1.82501C26.8533 1.52188 27.1283 1.27813 27.3345 1.00781L33.6654 1Z" fill="#00B4AA"/>
<path d="M33.6654 1C33.8701 1.27032 34.1451 1.51251 34.2716 1.8172C34.7841 3.05785 35.2372 4.32506 35.7528 5.56727C35.81 5.68865 35.8913 5.79712 35.9917 5.88604C36.0922 5.97496 36.2097 6.04248 36.3372 6.08446C39.0504 6.73863 41.6432 7.81759 44.0196 9.28139C44.1339 9.33649 44.2582 9.36781 44.3849 9.37345C44.5117 9.37909 44.6383 9.35893 44.757 9.31421C46.0142 8.79336 47.2611 8.24283 48.4974 7.66261C49.0427 7.40948 49.4349 7.50636 49.8552 7.92199C51.0692 9.16264 52.2941 10.3939 53.5394 11.6017C53.9972 12.0471 54.0971 12.4721 53.8206 13.058C53.2519 14.2549 52.741 15.4768 52.1894 16.6815C52.1142 16.8146 52.0784 16.9664 52.0861 17.1191C52.0938 17.2718 52.1449 17.4192 52.2332 17.544C53.7043 19.8705 54.767 22.4314 55.3752 25.116C55.3996 25.2759 55.4694 25.4254 55.5763 25.5468C55.6832 25.6681 55.8228 25.7561 55.9783 25.8004C57.2282 26.2536 58.4578 26.727 59.6812 27.2333C59.9859 27.3583 60.2281 27.6333 60.4999 27.8395V34.1678C60.2281 34.3756 59.9859 34.6521 59.6812 34.7787C58.4391 35.2912 57.1704 35.7428 55.9314 36.26C55.8098 36.3185 55.7013 36.4009 55.6125 36.5024C55.5236 36.6039 55.4562 36.7224 55.4143 36.8506C54.7645 39.5482 53.6953 42.127 52.2457 44.4929C52.185 44.6145 52.1497 44.7472 52.1419 44.8828C52.1341 45.0185 52.154 45.1543 52.2004 45.282C52.7222 46.543 53.2941 47.7821 53.844 49.0321C54.1065 49.6321 54.0003 50.0868 53.5659 50.3008C53.0972 50.5274 52.6472 50.3008 52.3754 49.6993C51.7207 48.2414 51.0801 46.7758 50.4208 45.3242C50.3274 45.1419 50.2866 44.9372 50.3029 44.733C50.3192 44.5288 50.3919 44.3332 50.513 44.1679C52.1855 41.6397 53.3527 38.8116 53.9503 35.8397C53.983 35.6375 54.0718 35.4486 54.2066 35.2945C54.3414 35.1404 54.5168 35.0272 54.7127 34.9678C55.9627 34.5115 57.186 34.0162 58.4297 33.5615C58.7422 33.4427 58.8844 33.2896 58.8766 32.9271C58.8516 31.6583 58.8563 30.388 58.8766 29.1192C58.8766 28.7755 58.7813 28.6005 58.4469 28.477C57.197 28.0208 55.9752 27.5176 54.7299 27.0708C54.526 27.0069 54.3444 26.8866 54.2061 26.7237C54.0678 26.5608 53.9786 26.362 53.9487 26.1504C53.3591 23.216 52.2049 20.4241 50.5505 17.93C50.4117 17.7418 50.3292 17.5182 50.3127 17.285C50.2961 17.0518 50.346 16.8187 50.4567 16.6128C50.9973 15.4456 51.502 14.269 52.0426 13.0924C52.1988 12.769 52.1988 12.5486 51.9113 12.2814C51.0218 11.4314 50.1515 10.5616 49.3005 9.67202C49.0162 9.37514 48.7881 9.30795 48.399 9.4939C47.2553 10.0408 46.0835 10.5267 44.9351 11.0564C44.7208 11.171 44.4782 11.2222 44.2358 11.2039C43.9934 11.1856 43.7612 11.0987 43.5665 10.9533C41.0887 9.30403 38.3139 8.15242 35.3966 7.56261C35.1751 7.53077 34.9673 7.43615 34.7978 7.28995C34.6284 7.14375 34.5043 6.95207 34.4404 6.7376C34.0013 5.5282 33.5029 4.34068 33.0717 3.12816C32.9264 2.71565 32.7077 2.61565 32.3014 2.62503C31.1109 2.64847 29.9187 2.65472 28.7282 2.62503C28.2907 2.61409 28.0735 2.7344 27.922 3.16097C27.4892 4.3735 26.9923 5.56102 26.5502 6.76885C26.4869 6.97254 26.3672 7.15409 26.2048 7.29239C26.0425 7.4307 25.8442 7.52007 25.633 7.55011C22.6997 8.14177 19.9088 9.29642 17.4147 10.9502C17.2267 11.0893 17.003 11.172 16.7698 11.1886C16.5365 11.2052 16.3034 11.155 16.0976 11.0439C14.9305 10.5017 13.743 10.0048 12.5775 9.45796C12.2166 9.28764 11.9978 9.33921 11.7228 9.62671C10.8895 10.5038 10.0339 11.3606 9.15578 12.1971C8.86205 12.4783 8.78393 12.7033 8.97142 13.0971C9.52608 14.2612 10.026 15.4502 10.5588 16.6253C10.6645 16.823 10.7122 17.0465 10.6964 17.2701C10.6807 17.4938 10.6021 17.7084 10.4698 17.8894C8.80735 20.3979 7.64841 23.2058 7.05746 26.1567C7.0271 26.3594 6.94041 26.5495 6.80726 26.7053C6.67411 26.8611 6.49986 26.9764 6.30437 27.0379C5.07787 27.4895 3.87169 27.9911 2.6405 28.4286C2.23271 28.5739 2.12178 28.7849 2.13116 29.1942C2.15615 30.4052 2.16084 31.6177 2.13116 32.8271C2.11866 33.2599 2.27802 33.4365 2.6655 33.5756C3.85606 34.0068 5.02631 34.4959 6.21844 34.9256C6.44204 34.9916 6.64193 35.1205 6.79429 35.297C6.94666 35.4735 7.04506 35.6901 7.07777 35.9209C7.66219 38.8164 8.80072 41.5717 10.4307 44.0351C10.5826 44.2368 10.6735 44.4778 10.6926 44.7295C10.7117 44.9812 10.6582 45.2332 10.5385 45.4555C9.89012 46.8524 9.28859 48.268 8.65425 49.6743C8.37457 50.2993 7.94803 50.5212 7.47306 50.3102C6.99808 50.0993 6.90434 49.6352 7.18245 49.0024C7.72617 47.7711 8.2652 46.5383 8.82611 45.3148C8.89988 45.1811 8.93405 45.0291 8.92465 44.8766C8.91524 44.7242 8.86264 44.5775 8.77299 44.4539C7.30181 42.1231 6.23971 39.558 5.63253 36.8694C5.60438 36.7088 5.53041 36.5598 5.41953 36.4403C5.30864 36.3208 5.16558 36.236 5.00757 36.1959C3.74513 35.7272 2.49832 35.2271 1.23745 34.76C0.729668 34.5725 0.495305 34.2599 0.499993 33.7084C0.515617 31.9115 0.515617 30.1146 0.499993 28.3177C0.499993 27.7411 0.73748 27.4255 1.2687 27.2239C2.53113 26.7551 3.76857 26.2504 5.03725 25.7832C5.18465 25.7447 5.31782 25.6645 5.42089 25.5523C5.52395 25.4401 5.59254 25.3006 5.61847 25.1504C6.23914 22.4482 7.30069 19.8667 8.76049 17.5097C8.81993 17.389 8.85431 17.2576 8.86156 17.1233C8.86881 16.9891 8.84878 16.8547 8.80268 16.7284C8.28239 15.4674 7.72773 14.219 7.1512 12.9783C6.90746 12.4549 6.99496 12.0658 7.40275 11.6705C8.67143 10.4205 9.92814 9.16368 11.1729 7.90012C11.5697 7.49386 11.9541 7.41574 12.4822 7.65793C13.7196 8.23137 14.968 8.78763 16.232 9.30795C16.3587 9.35292 16.4933 9.37181 16.6275 9.36349C16.7618 9.35517 16.8929 9.3198 17.0132 9.25952C19.378 7.80827 21.9577 6.74086 24.6565 6.09696C24.7849 6.05481 24.9033 5.98675 25.0044 5.89698C25.1054 5.80721 25.187 5.69765 25.244 5.57508C25.7612 4.33287 26.2127 3.06566 26.7267 1.82501C26.8533 1.52188 27.1283 1.27813 27.3345 1.00781L33.6654 1Z" stroke="#00B4AA" stroke-width="0.4" mask="url(#path-1-outside-1_102_3542)"/>
<path d="M39.5429 38.4295L39.5433 38.4296C40.9152 38.7389 42.2032 39.3434 43.3178 40.2009C44.9796 41.4684 45.8712 43.1128 45.8569 45.2498M39.5429 38.4295L45.8485 54.002C45.8457 51.0845 45.8429 48.1671 45.8569 45.2498M39.5429 38.4295C38.0386 38.0977 36.5217 37.8126 35.0209 37.5305C34.4804 37.429 33.942 37.3278 33.407 37.2249M39.5429 38.4295L33.407 37.2249M45.8569 45.2498L45.7569 45.2492L45.8569 45.2497C45.8569 45.2497 45.8569 45.2498 45.8569 45.2498ZM15.1602 60.275C15.1635 60.3865 15.1888 60.4964 15.2349 60.598C15.2814 60.7005 15.3478 60.7927 15.4305 60.869C15.5131 60.9454 15.6102 61.0044 15.716 61.0426C15.8198 61.0801 15.9299 61.0968 16.0401 61.0918C16.2513 61.1066 16.4603 61.0401 16.6241 60.9057C16.7893 60.7703 16.8958 60.5764 16.9216 60.3645C16.9573 60.1278 16.9707 59.8883 16.9616 59.6491C16.9624 58.4591 16.9644 57.2688 16.9665 56.0785C16.9726 52.5046 16.9788 48.9296 16.9506 45.3546L16.9506 45.3544C16.9343 43.675 17.6075 42.4129 18.9725 41.5541L18.9735 41.5534C19.8311 40.9998 20.7592 40.5639 21.7328 40.2572C26.0657 38.9634 30.4928 38.7233 34.9624 39.3465L34.9625 39.3466L15.2601 60.2697M15.1602 60.275C15.1602 60.2741 15.1602 60.2732 15.1601 60.2723L15.2601 60.2697M15.1602 60.275C15.1603 60.2758 15.1603 60.2766 15.1604 60.2775L15.2601 60.2697M15.1602 60.275C15.145 60.0777 15.1408 59.8798 15.1476 59.6821M15.2601 60.2697C15.245 60.0748 15.2408 59.8792 15.2476 59.6838M15.1476 59.6821V59.6838H15.2476M15.1476 59.6821V45.9711C15.1476 44.1774 15.4739 42.7751 16.2269 41.6479C16.9799 40.5206 18.1516 39.6806 19.8187 38.9956C22.2198 38.0087 24.7563 37.6186 27.3051 37.348M15.1476 59.6821C15.1476 59.6815 15.1476 59.6809 15.1477 59.6803L15.2476 59.6838M15.2476 59.6838L27.3051 37.348M33.407 37.2249C33.4616 37.1892 33.5179 37.1527 33.5753 37.1155C33.8931 36.9097 34.2482 36.6798 34.5596 36.4053L34.5596 36.4052C37.0113 34.2409 37.9294 31.4336 37.898 28.2619V28.2619C37.8791 26.4885 37.4835 24.8011 36.3302 23.3871C34.4015 21.0217 31.7928 20.5783 28.9834 20.959L28.9834 20.959C26.1224 21.3476 24.0072 23.3433 23.3653 26.1342C23.0295 27.5795 22.9962 29.0786 23.2676 30.5374C23.7978 33.4055 25.0882 35.8077 27.7486 37.2935M33.407 37.2249L27.7486 37.2935M27.7486 37.2935C27.7483 37.2933 27.748 37.2932 27.7478 37.293L27.7985 37.2068L27.7498 37.2942C27.7494 37.2939 27.749 37.2937 27.7486 37.2935ZM27.3051 37.348C27.3051 37.348 27.3051 37.348 27.3052 37.348L27.3157 37.4475L27.3051 37.348ZM45.8491 59.8386C45.8491 59.8386 45.8491 59.8385 45.8491 59.8385H45.7491L45.8491 59.8386ZM27.848 37.404C27.8875 37.401 27.9287 37.3978 27.9719 37.3943C27.9405 37.3596 27.9162 37.3297 27.8954 37.3041C27.8944 37.3028 27.8933 37.3016 27.8923 37.3003C27.8492 37.3036 27.808 37.3067 27.7683 37.3097C27.7754 37.3168 27.7842 37.3265 27.7956 37.3401C27.8017 37.3474 27.8085 37.3558 27.8162 37.3653C27.8256 37.3768 27.8362 37.3898 27.848 37.404ZM36.092 28.4231L36.0941 28.4526C36.0424 30.7091 35.5179 32.6605 34.1342 34.3001L34.1342 34.3002C33.1082 35.5186 31.8359 36.1486 30.5695 36.1781C29.3037 36.2076 28.0302 35.6376 26.9996 34.4294L26.9996 34.4294C24.8441 31.9044 24.3508 28.9367 25.3904 25.8038C25.7427 24.7439 26.3536 24.002 27.1399 23.5064C27.928 23.0098 28.8978 22.7573 29.9704 22.6876C30.6622 22.6442 31.3567 22.6909 32.0365 22.8265L32.0367 22.8266C34.3226 23.2783 35.7914 24.991 36.0188 27.402L36.0188 27.4022C36.0456 27.6792 36.0627 27.9564 36.0766 28.1827C36.0821 28.2717 36.0871 28.3529 36.092 28.4231ZM41.015 40.8007L40.9716 40.8908C40.9717 40.8908 40.9717 40.8908 40.9717 40.8908L41.015 40.8007Z" fill="#00B4AA" stroke="#00B4AA" stroke-width="0.2"/>
<path d="M11.0476 31.0388L11.0467 31.0388L11.0484 31.0521C11.0987 31.4497 11.1412 31.851 11.1839 32.2535C11.2833 33.1912 11.3833 34.1353 11.5842 35.0531C11.803 36.0602 12.1523 37.0421 12.4978 38.0137C12.5768 38.2358 12.6557 38.4574 12.7327 38.6787C12.8367 38.9814 13.0116 39.1991 13.2289 39.318C13.4471 39.4375 13.6985 39.4521 13.942 39.3651L13.9433 39.3647C14.2073 39.2663 14.3909 39.0856 14.4743 38.8449C14.5568 38.607 14.5372 38.3229 14.4221 38.0212L14.4219 38.0208C14.3877 37.9323 14.3495 37.8424 14.3119 37.754C14.2878 37.6971 14.2639 37.6409 14.2416 37.5862L14.2414 37.5859C12.9273 34.4061 12.6025 30.9039 13.3094 27.5366L13.3096 27.5358C13.8206 24.9969 14.8875 22.6027 16.4338 20.5252C17.9801 18.4477 19.9673 16.7385 22.2526 15.5205C24.538 14.3024 27.0647 13.6057 29.6514 13.4804C32.238 13.3551 34.8202 13.8043 37.2126 14.7957L37.2131 14.7959C44.746 17.8674 49.2726 26.0684 47.7568 34.0021C47.5647 35.0044 47.2418 35.9803 46.9167 36.9628C46.7947 37.3317 46.6723 37.7015 46.5565 38.074L46.5564 38.0741C46.4563 38.3969 46.4663 38.7104 46.5856 38.9559C46.7066 39.2048 46.9358 39.3739 47.2477 39.4063C47.5328 39.4364 47.7514 39.3611 47.9223 39.2129C48.0885 39.0687 48.2023 38.8617 48.2954 38.6413C49.7611 35.2516 50.2133 31.5097 49.5973 27.8684C47.887 17.4508 38.0983 10.2822 27.7148 11.8294L27.7147 11.8294C23.1036 12.5202 18.8907 14.835 15.8349 18.3568C12.7792 21.8787 11.0815 26.3761 11.0476 31.0388Z" fill="#00B4AA" stroke="#00B4AA" stroke-width="0.2"/>
<path d="M21.7127 54.0962L21.7127 54.0963L21.7142 57.3135C21.7142 57.3135 21.7142 57.3135 21.7142 57.3135C21.7142 57.6308 21.713 57.9488 21.7118 58.267C21.7094 58.9044 21.7069 59.543 21.7142 60.1803L21.7142 60.1804C21.7176 60.4404 21.7909 60.661 21.939 60.8214C22.0875 60.9822 22.3004 61.0707 22.5596 61.0868C22.8212 61.103 23.0396 61.0343 23.2033 60.8884C23.3655 60.7438 23.4635 60.5328 23.5051 60.2831L23.5052 60.2831L23.5058 60.2784C23.5292 60.0804 23.5368 59.8809 23.5283 59.6817V52.6634C23.5283 52.2817 23.5298 51.8995 23.5312 51.5171C23.5351 50.4565 23.5391 49.3939 23.5127 48.3327L23.5127 48.3327C23.5036 47.971 23.3712 47.6233 23.1375 47.3471L23.1375 47.3471L23.1344 47.3437C23.0839 47.2893 23.0119 47.2512 22.9387 47.225C22.8638 47.1982 22.7791 47.1808 22.6947 47.1727C22.6102 47.1647 22.5232 47.1657 22.4433 47.1775C22.365 47.189 22.2862 47.2121 22.2242 47.2536L22.2242 47.2535L22.2199 47.2567C22.0833 47.3592 21.9696 47.4889 21.8859 47.6376C21.8021 47.7863 21.7502 47.9508 21.7335 48.1207L21.7332 48.1206L21.733 48.1287C21.7054 49.6551 21.7082 51.1827 21.711 52.7093C21.7118 53.1717 21.7127 53.6341 21.7127 54.0962Z" fill="#00B4AA" stroke="#00B4AA" stroke-width="0.2"/>
<path d="M38.7704 47.2152L38.7703 47.2152C38.4323 47.0539 38.1005 47.0949 37.8549 47.3023C37.6137 47.5061 37.471 47.8572 37.471 48.2898V48.3126V48.3353V48.358V48.3808V48.4035V48.4262V48.449V48.4717V48.4945V48.5172V48.5399V48.5627V48.5854V48.6081V48.6309V48.6536V48.6763V48.6991V48.7218V48.7445V48.7673V48.79V48.8128V48.8355V48.8582V48.881V48.9037V48.9264V48.9492V48.9719V48.9946V49.0174V49.0401V49.0629V49.0856V49.1083V49.1311V49.1538V49.1765V49.1993V49.222V49.2447V49.2675V49.2902V49.3129V49.3357V49.3584V49.3812V49.4039V49.4266V49.4494V49.4721V49.4948V49.5176V49.5403V49.563V49.5858V49.6085V49.6312V49.654V49.6767V49.6995V49.7222V49.7449V49.7677V49.7904V49.8131V49.8359V49.8586V49.8813V49.9041V49.9268V49.9496V49.9723V49.995V50.0178V50.0405V50.0632V50.086V50.1087V50.1314V50.1542V50.1769V50.1996V50.2224V50.2451V50.2679V50.2906V50.3133V50.3361V50.3588V50.3815V50.4043V50.427V50.4497V50.4725V50.4952V50.518V50.5407V50.5634V50.5862V50.6089V50.6316V50.6544V50.6771V50.6998V50.7226V50.7453V50.768V50.7908V50.8135V50.8363V50.859V50.8817V50.9045V50.9272V50.9499V50.9727V50.9954V51.0181V51.0409V51.0636V51.0864V51.1091V51.1318V51.1546V51.1773V51.2V51.2228V51.2455V51.2682V51.291V51.3137V51.3364V51.3592V51.3819V51.4047V51.4274V51.4501V51.4729V51.4956V51.5183V51.5411V51.5638V51.5865V51.6093V51.632V51.6548V51.6775V51.7002V51.723V51.7457V51.7684V51.7912V51.8139V51.8366V51.8594V51.8821V51.9048V51.9276V51.9503V51.9731V51.9958V52.0185V52.0413V52.064V52.0867V52.1095V52.1322V52.1549V52.1777V52.2004V52.2232V52.2459V52.2686V52.2914V52.3141V52.3368V52.3596V52.3823V52.405V52.4278V52.4505V52.4732V52.496V52.5187V52.5415V52.5642V52.5869V52.6097V52.6324V52.6551V52.6779V52.7006V52.7233V52.7461V52.7688V52.7916V52.8143V52.837V52.8598V52.8825V52.9052V52.928V52.9507V52.9734V52.9962V53.0189V53.0416V53.0644V53.0871V53.1099V53.1326V53.1553V53.1781V53.2008V53.2235V53.2463V53.269V53.2917V53.3145V53.3372V53.36V53.3827V53.4054V53.4282V53.4509V53.4736V53.4964V53.5191V53.5418V53.5646V53.5873V53.61V53.6328V53.6555V53.6783V53.701V53.7237V53.7465V53.7692V53.7919V53.8147V53.8374V53.8601V53.8829V53.9056V53.9284V53.9511V53.9738V53.9966V54.0193V54.042V54.0648V54.0875V54.1102V54.133V54.1557V54.1784V54.2012V54.2239V54.2467V54.2694V54.2921V54.3149V54.3376V54.3603V54.3831V54.4058V54.4285V54.4513V54.474V54.4968V54.5195V54.5422V54.565V54.5877V54.6104V54.6332V54.6559V54.6786V54.7014V54.7241V54.7468V54.7696V54.7923V54.8151V54.8378V54.8605V54.8833V54.906V54.9287V54.9515V54.9742V54.9969V55.0197V55.0424V55.0652V55.0879V55.1106V55.1334V55.1561V55.1788V55.2016V55.2243V55.247V55.2698V55.2925V55.3152V55.338V55.3607V55.3835V55.4062V55.4289V55.4517V55.4744V55.4971V55.5199V55.5426V55.5653V55.5881V55.6108V55.6336V55.6563V55.679V55.7018V55.7245V55.7472V55.77V55.7927V55.8154V55.8382V55.8609V55.8836V55.9064V55.9291V55.9519V55.9746V55.9973V56.0201V56.0428V56.0655V56.0883V56.111V56.1337V56.1565V56.1792V56.202V56.2247V56.2474V56.2702V56.2929V56.3156V56.3384V56.3611V56.3838V56.4066V56.4293V56.452V56.4748V56.4975V56.5203V56.543V56.5657V56.5885V56.6112V56.6339V56.6567V56.6794V56.7021V56.7249V56.7476V56.7704V56.7931V56.8158V56.8386V56.8613V56.884V56.9068V56.9295V56.9522V56.975V56.9977V57.0204V57.0432V57.0659V57.0887V57.1114V57.1341V57.1569V57.1796V57.2023V57.2251V57.2478V57.2705V57.2933V57.316V57.3387V57.3615V57.3842V57.407V57.4297V57.4524V57.4752V57.4979V57.5206V57.5434V57.5661V57.5888V57.6116V57.6343V57.6571V57.6798V57.7025V57.7253V57.748V57.7707V57.7935V57.8162V57.8389V57.8617V57.8844V57.9072V57.9299V57.9526V57.9754V57.9981V58.0208V58.0436V58.0663V58.089V58.1118V58.1345V58.1572V58.18V58.2027V58.2255V58.2482V58.2709V58.2937V58.3164V58.3391V58.3619V58.3846V58.4073V58.4301V58.4528V58.4755V58.4983V58.521V58.5438V58.5665V58.5892V58.612V58.6347V58.6574V58.6802V58.7029V58.7256V58.7484V58.7711V58.7939V58.8166V58.8393V58.8621V58.8848V58.9075V58.9303V58.953V58.9757V58.9985V59.0212V59.0439V59.0667V59.0894V59.1122V59.1349V59.1576V59.1804V59.2031V59.2258V59.2486V59.2713V59.294V59.3168V59.3395V59.3623V59.385V59.4077V59.4305V59.4532V59.4759V59.4987V59.5214V59.5441V59.5669V59.5896V59.6123V59.6351V59.6578V59.6806V59.7033V59.726V59.7488V59.7715V59.7942V59.817V59.8397V59.8624V59.8852V59.9079V59.9307C37.471 60.2858 37.5495 60.5765 37.7076 60.7807C37.8684 60.9886 38.1029 61.0954 38.3863 61.0963C38.6698 61.0972 38.9016 60.9923 39.0593 60.7842C39.2138 60.5804 39.2882 60.2894 39.2882 59.9322V59.9209V59.9096V59.8983V59.887V59.8756V59.8643V59.853V59.8417V59.8304V59.8191V59.8077V59.7964V59.7851V59.7738V59.7625V59.7512V59.7398V59.7285V59.7172V59.7059V59.6946V59.6833V59.672V59.6606V59.6493V59.638V59.6267V59.6154V59.6041V59.5927V59.5814V59.5701V59.5588V59.5475V59.5362V59.5249V59.5135V59.5022V59.4909V59.4796V59.4683V59.457V59.4456V59.4343V59.423V59.4117V59.4004V59.3891V59.3778V59.3664V59.3551V59.3438V59.3325V59.3212V59.3099V59.2986V59.2872V59.2759V59.2646V59.2533V59.242V59.2307V59.2193V59.208V59.1967V59.1854V59.1741V59.1628V59.1515V59.1401V59.1288V59.1175V59.1062V59.0949V59.0836V59.0723V59.0609V59.0496V59.0383V59.027V59.0157V59.0044V58.9931V58.9817V58.9704V58.9591V58.9478V58.9365V58.9252V58.9139V58.9025V58.8912V58.8799V58.8686V58.8573V58.846V58.8347V58.8234V58.812V58.8007V58.7894V58.7781V58.7668V58.7555V58.7442V58.7328V58.7215V58.7102V58.6989V58.6876V58.6763V58.665V58.6536V58.6423V58.631V58.6197V58.6084V58.5971V58.5858V58.5745V58.5631V58.5518V58.5405V58.5292V58.5179V58.5066V58.4953V58.4839V58.4726V58.4613V58.45V58.4387V58.4274V58.4161V58.4048V58.3934V58.3821V58.3708V58.3595V58.3482V58.3369V58.3256V58.3143V58.3029V58.2916V58.2803V58.269V58.2577V58.2464V58.2351V58.2238V58.2124V58.2011V58.1898V58.1785V58.1672V58.1559V58.1446V58.1333V58.1219V58.1106V58.0993V58.088V58.0767V58.0654V58.0541V58.0428V58.0314V58.0201V58.0088V57.9975V57.9862V57.9749V57.9636V57.9523V57.941V57.9296V57.9183V57.907V57.8957V57.8844V57.8731V57.8618V57.8505V57.8391V57.8278V57.8165V57.8052V57.7939V57.7826V57.7713V57.76V57.7487V57.7373V57.726V57.7147V57.7034V57.6921V57.6808V57.6695V57.6582V57.6468V57.6355V57.6242V57.6129V57.6016V57.5903V57.579V57.5677V57.5564V57.545V57.5337V57.5224V57.5111V57.4998V57.4885V57.4772V57.4659V57.4546V57.4432V57.4319V57.4206V57.4093V57.398V57.3867V57.3754V57.3641V57.3528V57.3415V57.3301V57.3188V57.3075V57.2962V57.2849V57.2736V57.2623V57.251V57.2397V57.2283V57.217V57.2057V57.1944V57.1831V57.1718V57.1605V57.1492V57.1379V57.1266V57.1152V57.1039V57.0926V57.0813V57.07V57.0587V57.0474V57.0361V57.0248V57.0135V57.0021V56.9908V56.9795V56.9682V56.9569V56.9456V56.9343V56.923V56.9117V56.9004V56.889V56.8777V56.8664V56.8551V56.8438V56.8325V56.8212V56.8099V56.7986V56.7873V56.7759V56.7646V56.7533V56.742V56.7307V56.7194V56.7081V56.6968V56.6855V56.6742V56.6629V56.6515V56.6402V56.6289V56.6176V56.6063V56.595V56.5837V56.5724V56.5611V56.5498V56.5385V56.5271V56.5158V56.5045V56.4932V56.4819V56.4706V56.4593V56.448V56.4367V56.4254V56.4141V56.4028V56.3914V56.3801V56.3688V56.3575V56.3462V56.3349V56.3236V56.3123V56.301V56.2897V56.2784V56.267V56.2557V56.2444V56.2331V56.2218V56.2105V56.1992V56.1879V56.1766V56.1653V56.154V56.1427V56.1313V56.12V56.1087V56.0974V56.0861V56.0748V56.0635V56.0522V56.0409V56.0296V56.0183V56.007V55.9957V55.9843V55.973V55.9617V55.9504V55.9391V55.9278V55.9165V55.9052V55.8939V55.8826V55.8713V55.86V55.8487V55.8373V55.826V55.8147V55.8034V55.7921V55.7808V55.7695V55.7582V55.7469V55.7356V55.7243V55.713V55.7017V55.6904V55.679V55.6677V55.6564V55.6451V55.6338V55.6225V55.6112V55.5999V55.5886V55.5773V55.566V55.5547V55.5434V55.5321V55.5207V55.5094V55.4981V55.4868V55.4755V55.4642V55.4529V55.4416V55.4303V55.419V55.4077V55.3964V55.3851V55.3738V55.3625V55.3511V55.3398V55.3285V55.3172V55.3059V55.2946V55.2833V55.272V55.2607V55.2494V55.2381V55.2268V55.2155V55.2042V55.1929V55.1816V55.1702V55.1589V55.1476V55.1363V55.125V55.1137V55.1024V55.0911V55.0798V55.0685V55.0572V55.0459V55.0346V55.0233V55.012V55.0007V54.9894V54.978V54.9667V54.9554V54.9441V54.9328V54.9215V54.9102V54.8989V54.8876V54.8763V54.865V54.8537V54.8424V54.8311V54.8198V54.8085V54.7972V54.7859V54.7745V54.7632V54.7519V54.7406V54.7293V54.718V54.7067V54.6954V54.6841V54.6728V54.6615V54.6502V54.6389V54.6276V54.6163V54.605V54.5937V54.5824V54.5711V54.5598V54.5484V54.5371V54.5258V54.5145V54.5032V54.4919V54.4806V54.4693V54.458V54.4467V54.4354V54.4241V54.4128V54.4015V54.3902V54.3789V54.3676V54.3563V54.345V54.3337V54.3224V54.3111V54.2997V54.2884V54.2771V54.2658V54.2545V54.2432V54.2319V54.2206V54.2093V54.198V54.1867V54.1754V54.1641V54.1528V54.1415C39.2882 53.7196 39.288 53.2976 39.2878 52.8756C39.287 51.3283 39.2862 49.7808 39.296 48.2342H39.296V48.2336C39.296 48.0294 39.2759 47.8278 39.1994 47.6502C39.1212 47.469 38.9867 47.3186 38.7704 47.2152Z" fill="#00B4AA" stroke="#00B4AA" stroke-width="0.2"/>
</svg>
