<svg width="61" height="61" viewBox="0 0 61 61" fill="none" xmlns="http://www.w3.org/2000/svg">
<path d="M0.5 6.12692V4.9478C0.537512 4.79901 0.580025 4.65146 0.611284 4.50141C1.19522 1.68929 4.09361 -0.101262 6.7857 0.686482C10.6531 1.82058 11.7535 6.397 8.82008 9.18911C8.57 9.42794 8.55875 9.59799 8.69504 9.88558C9.48153 11.5036 10.253 13.1291 11.0195 14.7408C11.1008 14.9121 11.1921 15.0797 11.2896 15.271C14.1305 14.2569 16.9388 14.2357 19.7335 15.2948C22.5493 16.3613 24.6362 18.2757 26.1104 20.9077L37.1138 16.2463C36.3668 14.0025 36.3149 11.5854 36.965 9.31165L33.7603 8.12754C33.6778 8.22882 33.6153 8.30259 33.5577 8.37761C31.4546 11.151 27.6809 11.201 25.5215 8.48265C24.3086 6.95842 24.1948 4.75149 25.2352 2.92843C26.1629 1.30292 28.1961 0.302613 30.0466 0.552691C32.7825 0.927807 34.5831 3.06597 34.4868 5.82057C34.4868 5.98687 34.5405 6.26821 34.6443 6.30947C35.6321 6.70334 36.6349 7.05971 37.6252 7.41982C40.9475 0.97032 47.7371 -0.797727 53.13 1.42421C58.5492 3.6599 61.5489 9.69802 60.1635 15.4085C58.8756 20.7227 53.0113 25.9931 45.3776 24.1175C43.7621 28.5964 42.1466 33.0803 40.5086 37.6217C42.2526 38.4357 43.7818 39.6467 44.9738 41.1578L50.3904 37.6367C50.4717 37.5842 50.5993 37.5466 50.6255 37.4741C50.6905 37.2966 50.7843 37.0777 50.7343 36.9165C49.8203 33.973 51.9034 30.8846 54.9619 30.5395C56.8474 30.3294 58.8606 31.306 59.8034 32.9777C60.8312 34.8033 60.6936 36.9915 59.4545 38.5257C57.6052 40.8152 54.5917 41.1378 52.2885 39.2759C52.0385 39.0696 51.8609 39.0259 51.5846 39.2272C51.1119 39.5723 50.6093 39.8736 50.1179 40.1937L46.0816 42.8195C46.2067 43.0859 46.3042 43.3197 46.4092 43.541C49.3101 49.8104 46.1904 57.3553 39.6934 59.7148C38.7318 60.0636 37.709 60.2424 36.715 60.5H34.373C34.2676 60.4563 34.1583 60.4224 34.0466 60.3987C30.8144 59.9811 28.1448 58.5231 26.1579 55.9486C25.3102 54.852 24.6962 53.5729 23.926 52.3C24.0098 52.3 23.926 52.285 23.8585 52.3C22.5106 52.6138 21.1589 52.9177 19.821 53.2703C19.6697 53.3103 19.5084 53.6191 19.4896 53.8167C19.1995 56.8101 16.7475 58.7907 13.7691 58.4144C10.5606 58.018 8.55499 54.3919 9.95168 51.4722C10.8269 49.6504 12.2861 48.6188 14.328 48.5388C16.2961 48.4613 17.7854 49.339 18.7957 51.0096C18.987 51.3247 19.1533 51.3847 19.4959 51.2884C20.2661 51.0758 21.0514 50.9195 21.8279 50.7332C22.4268 50.5907 23.0232 50.4381 23.6384 50.2843C23.1558 46.4582 24.2223 43.1671 26.7269 40.3288L22.8107 36.0249C18.9907 38.747 14.922 39.2109 10.5731 37.4516C10.0267 38.4282 9.51029 39.3872 8.95762 40.3275C8.76881 40.6464 8.83258 40.8377 9.07015 41.0852C9.349 41.3836 9.59739 41.7091 9.81163 42.0568C11.132 44.2062 10.4931 47.0583 8.35868 48.6001C6.38557 50.028 3.3984 49.6741 1.8054 47.8498C1.08643 47.0308 0.716317 46.073 0.5 45.034V43.9786C0.53376 43.8536 0.573773 43.7286 0.600031 43.596C0.92013 42.0318 1.77289 40.8589 3.18208 40.0949C4.3912 39.4435 5.6641 39.3622 7.00201 39.7411L8.81007 36.4801C1.76414 31.7449 1.58159 20.7252 9.44527 16.0988L6.70817 10.347C4.47248 10.7221 2.73194 10.1319 1.51907 8.43638C1.03767 7.76742 0.831353 6.89841 0.5 6.12692ZM38.6256 36.9365C40.2698 32.3688 41.8878 27.8837 43.5133 23.3898C41.1288 22.2776 39.1643 20.4293 37.9091 18.1169C37.7953 18.1506 37.7378 18.1606 37.6853 18.1831C34.2217 19.6486 30.7619 21.1228 27.2908 22.5733C26.8894 22.7396 26.9607 22.9484 27.0407 23.2535C27.916 26.5045 27.5534 29.5954 25.8554 32.5063C25.409 33.2716 24.855 33.9705 24.3274 34.7195L28.2136 38.9871C31.3846 36.6764 34.8256 35.9824 38.6256 36.9302V36.9365ZM43.0369 55.0171C46.7506 50.8908 46.1629 44.2637 41.839 40.7714C37.3377 37.1303 30.8769 37.963 27.4296 42.6307C24.2486 46.9396 25.464 52.555 27.9898 54.9058C28.7588 53.0752 30.0879 51.7961 31.8922 50.9896C29.6878 48.4363 30.383 45.4266 32.071 43.8736C34.0404 42.063 36.8738 42.0555 38.8719 43.8461C40.5111 45.3153 41.3539 48.3562 39.0832 50.9946C40.9175 51.8011 42.2367 53.1215 43.0369 55.0171ZM56.0409 18.9621C59.2532 15.4986 59.5808 9.3029 55.4533 5.33292C51.2832 1.31668 44.825 1.58176 40.9863 5.93186C37.2639 10.1494 38.1392 16.06 40.8913 18.8509C41.4427 18.1006 41.9216 17.2579 42.5805 16.6002C43.2395 15.9425 44.071 15.4611 44.825 14.9034C42.7056 12.4101 43.432 9.49796 45.0025 7.95248C46.7218 6.26071 49.5039 6.04064 51.3933 7.43732C52.4211 8.19881 53.11 9.18786 53.3751 10.4495C53.7365 12.165 53.2501 13.6693 52.0847 15.0009C53.9741 15.8087 55.2557 17.1391 56.0447 18.9634L56.0409 18.9621ZM23.0532 32.954C26.223 29.5779 26.5893 23.3472 22.4781 19.3535C18.3068 15.3023 11.781 15.5823 7.9298 19.9925C4.27117 24.1825 5.14894 30.1056 7.97231 32.934C8.74005 31.1022 10.0517 29.808 11.8673 29.004C9.55155 26.1844 10.5706 23.2972 12.0036 21.9243C13.7416 20.2663 16.3974 20.0425 18.3055 21.3904C19.3196 22.0784 20.0368 23.1237 20.3136 24.3175C20.7263 26.0681 20.2561 27.6198 19.0908 28.969C21.3289 30.2456 21.3289 30.2456 23.0532 32.954ZM21.3515 34.537C20.7438 32.235 19.207 30.772 17.0276 30.5645C15.9213 30.4448 14.8045 30.459 13.7016 30.607C11.6685 30.9108 10.3656 32.1637 9.7191 34.1081C9.61532 34.4182 9.65659 34.5895 9.93292 34.787C13.2177 37.1365 18.1392 37.0427 21.3515 34.537ZM35.4296 52.5338C35.0369 52.5338 34.5868 52.5138 34.1392 52.5338C32.1385 52.6413 30.3217 54.1105 29.7428 56.0199C29.6178 56.43 29.709 56.6451 30.0592 56.8739C33.3739 59.0721 37.8366 59.0383 41.0726 56.7488C41.1457 56.6774 41.2009 56.5895 41.2335 56.4926C41.2661 56.3956 41.2752 56.2923 41.2601 56.1912C40.9897 55.1454 40.3758 54.2207 39.5171 53.5654C38.3267 52.6188 36.945 52.42 35.4296 52.5338ZM48.5586 16.5451C48.051 16.5451 47.5433 16.5176 47.0382 16.5451C45.0851 16.6702 43.232 18.2344 42.7318 20.1375C42.6493 20.4501 42.7131 20.6214 42.9819 20.8102C46.1879 23.0371 50.9006 23.0296 54.0666 20.7902C54.3167 20.6127 54.3792 20.4539 54.2967 20.165C53.9978 19.1052 53.3612 18.1718 52.4836 17.5067C51.3195 16.6114 49.9691 16.4301 48.5536 16.5451H48.5586ZM29.5015 8.4814C30.0945 8.48312 30.6746 8.30868 31.1683 7.98021C31.6621 7.65173 32.0471 7.18401 32.2746 6.63638C32.5021 6.08876 32.5618 5.4859 32.4462 4.90428C32.3305 4.32267 32.0448 3.7885 31.6251 3.36953C31.2054 2.95057 30.6708 2.66569 30.089 2.55104C29.5072 2.43638 28.9044 2.49712 28.3572 2.72554C27.8099 2.95395 27.3428 3.33976 27.0152 3.83402C26.6875 4.32829 26.5141 4.90873 26.5168 5.50172C26.5204 6.29173 26.8362 7.04827 27.3953 7.60643C27.9544 8.16458 28.7115 8.47909 29.5015 8.4814ZM51.4945 11.4823C51.4925 10.8898 51.3146 10.3113 50.9833 9.82007C50.652 9.32885 50.1822 8.94711 49.6336 8.72326C49.085 8.4994 48.4823 8.44353 47.9019 8.56272C47.3216 8.68192 46.7897 8.9708 46.3737 9.39274C45.9577 9.81468 45.6765 10.3507 45.5656 10.9327C45.4547 11.5147 45.5191 12.1166 45.7508 12.6619C45.9824 13.2072 46.3708 13.6715 46.8667 13.9957C47.3626 14.32 47.9437 14.4897 48.5361 14.4833C48.9276 14.4811 49.3148 14.4017 49.6756 14.2497C50.0363 14.0976 50.3635 13.8758 50.6383 13.597C50.9132 13.3182 51.1303 12.9879 51.2772 12.625C51.4242 12.2621 51.498 11.8738 51.4945 11.4823ZM5.51155 41.5129C4.91911 41.5099 4.33912 41.6829 3.84516 42.0101C3.3512 42.3372 2.96552 42.8036 2.73702 43.3502C2.50853 43.8969 2.44752 44.499 2.56173 45.0804C2.67594 45.6617 2.96023 46.196 3.37855 46.6156C3.79686 47.0351 4.33034 47.321 4.91135 47.4369C5.49235 47.5528 6.09469 47.4936 6.64197 47.2667C7.18926 47.0398 7.65683 46.6555 7.98539 46.1625C8.31396 45.6695 8.4887 45.09 8.48747 44.4975C8.48002 43.7098 8.16436 42.9563 7.60812 42.3984C7.05188 41.8405 6.29929 41.5226 5.51155 41.5129ZM11.5134 53.5078C11.5104 54.3011 11.8227 55.063 12.3815 55.626C12.9403 56.1891 13.6998 56.507 14.4931 56.51C15.2863 56.513 16.0483 56.2007 16.6113 55.6419C17.1743 55.0832 17.4923 54.3236 17.4953 53.5303C17.4967 53.1376 17.4208 52.7484 17.2719 52.3849C17.123 52.0215 16.9039 51.6909 16.6272 51.4121C16.3505 51.1334 16.0216 50.9118 15.6593 50.7601C15.297 50.6085 14.9084 50.5296 14.5156 50.5282C14.1228 50.5267 13.7336 50.6026 13.3702 50.7515C13.0067 50.9005 12.6762 51.1195 12.3974 51.3962C12.1186 51.6729 11.8971 52.0018 11.7454 52.3641C11.5937 52.7264 11.5149 53.1151 11.5134 53.5078ZM8.48622 5.49297C8.482 4.70329 8.16745 3.94693 7.61046 3.38714C7.05347 2.82734 6.2987 2.50899 5.50905 2.50079C4.71978 2.50777 3.96425 2.82185 3.40264 3.37646C2.84103 3.93106 2.51749 4.68259 2.50062 5.47171C2.49147 5.86981 2.56185 6.26574 2.70762 6.6363C2.85339 7.00687 3.07164 7.34462 3.34957 7.62979C3.62751 7.91495 3.95954 8.1418 4.32624 8.29705C4.69294 8.45229 5.08692 8.53281 5.48513 8.53389C5.88333 8.53497 6.27775 8.45659 6.64528 8.30334C7.01282 8.15009 7.34608 7.92505 7.62556 7.6414C7.90504 7.35775 8.12511 7.02118 8.2729 6.65142C8.42068 6.28165 8.49321 5.88611 8.48622 5.48797V5.49297ZM55.5008 38.4907C56.0938 38.4939 56.6744 38.3208 57.1688 37.9935C57.6633 37.6661 58.0493 37.1992 58.2779 36.652C58.5065 36.1048 58.5674 35.502 58.4528 34.9202C58.3381 34.3383 58.0532 33.8037 57.6341 33.3841C57.2151 32.9645 56.6808 32.6789 56.0991 32.5635C55.5174 32.4482 54.9145 32.5083 54.3671 32.7362C53.8196 32.9641 53.3522 33.3495 53.0242 33.8436C52.6962 34.3376 52.5224 34.918 52.5249 35.511C52.5317 36.2989 52.8482 37.0525 53.4059 37.609C53.9636 38.1656 54.7179 38.4805 55.5058 38.4857L55.5008 38.4907ZM35.4833 44.5138C34.89 44.5136 34.31 44.6896 33.8169 45.0195C33.3238 45.3494 32.9398 45.8184 32.7136 46.3669C32.4875 46.9154 32.4293 47.5187 32.5465 48.1003C32.6638 48.6819 32.9511 49.2155 33.3722 49.6336C33.7932 50.0516 34.3289 50.3351 34.9113 50.4482C35.4937 50.5613 36.0966 50.4989 36.6435 50.2688C37.1904 50.0387 37.6566 49.6514 37.983 49.1559C38.3093 48.6605 38.4812 48.0793 38.4768 47.486C38.4711 46.6958 38.1533 45.9398 37.5925 45.383C37.0318 44.8262 36.2736 44.5138 35.4833 44.5138ZM18.4668 25.4854C18.4665 25.0942 18.389 24.707 18.2388 24.3458C18.0886 23.9846 17.8687 23.6566 17.5916 23.3805C17.3145 23.1044 16.9856 22.8857 16.6239 22.7369C16.2621 22.5881 15.8746 22.5121 15.4834 22.5132C14.694 22.5168 13.9374 22.8298 13.3763 23.3851C12.8152 23.9403 12.4942 24.6936 12.4825 25.4829C12.465 27.1084 13.8754 28.5163 15.5121 28.4976C16.302 28.4854 17.0551 28.1623 17.6082 27.5984C18.1614 27.0345 18.4699 26.2753 18.4668 25.4854Z" fill="#00B4AA"/>
</svg>
