<svg width="24" height="24" viewBox="0 0 24 24" fill="none" xmlns="http://www.w3.org/2000/svg">
<g clip-path="url(#clip0_389_1902)">
<path d="M8.99991 15L14.9999 9.00002M3.98891 14.66L2.46891 13.14C1.84891 12.52 1.84891 11.5 2.46891 10.88L3.98891 9.36002C4.24891 9.10002 4.45891 8.59002 4.45891 8.23002V6.08002C4.45891 5.20002 5.17891 4.48002 6.05891 4.48002H8.20891C8.56891 4.48002 9.07891 4.27002 9.33891 4.01002L10.8589 2.49002C11.4789 1.87002 12.4989 1.87002 13.1189 2.49002L14.6389 4.01002C14.8989 4.27002 15.4089 4.48002 15.7689 4.48002H17.9189C18.7989 4.48002 19.5189 5.20002 19.5189 6.08002V8.23002C19.5189 8.59002 19.7289 9.10002 19.9889 9.36002L21.5089 10.88C22.1289 11.5 22.1289 12.52 21.5089 13.14L19.9889 14.66C19.7289 14.92 19.5189 15.43 19.5189 15.79V17.94C19.5189 18.82 18.7989 19.54 17.9189 19.54H15.7689C15.4089 19.54 14.8989 19.75 14.6389 20.01L13.1189 21.53C12.4989 22.15 11.4789 22.15 10.8589 21.53L9.33891 20.01C9.07891 19.75 8.56891 19.54 8.20891 19.54H6.05891C5.17891 19.54 4.45891 18.82 4.45891 17.94V15.79C4.45891 15.42 4.24891 14.91 3.98891 14.66V14.66Z" stroke="#00B4AA" stroke-width="2" stroke-linecap="round" stroke-linejoin="round"/>
<path d="M14.4951 14.5H14.5041M9.49512 9.5H9.50312" stroke="#00B4AA" stroke-width="2" stroke-linecap="round" stroke-linejoin="round"/>
</g>
<defs>
<clipPath id="clip0_389_1902">
<rect width="24" height="24" fill="white"/>
</clipPath>
</defs>
</svg>
