<svg width="22" height="18" viewBox="0 0 22 18" fill="none" xmlns="http://www.w3.org/2000/svg">
<path d="M1 9.00039H5.16667M16.8333 15.4004H21H16.8333ZM1 15.4004H13.5H1ZM16.8333 2.60039H21H16.8333ZM1 2.60039H13.5H1ZM8.5 9.00039H21H8.5Z" stroke="#F7FAFF" stroke-width="1.625" stroke-linecap="round" stroke-linejoin="round"/>
<path d="M15.1667 13.8C16.0871 13.8 16.8333 14.5163 16.8333 15.4C16.8333 16.2837 16.0871 17 15.1667 17C14.2462 17 13.5 16.2837 13.5 15.4C13.5 14.5163 14.2462 13.8 15.1667 13.8Z" stroke="#F7FAFF" stroke-width="1.625" stroke-linecap="round" stroke-linejoin="round"/>
<path d="M6.83268 7.39961C7.75316 7.39961 8.49935 8.11595 8.49935 8.99961C8.49935 9.88327 7.75316 10.5996 6.83268 10.5996C5.91221 10.5996 5.16602 9.88327 5.16602 8.99961C5.16602 8.11595 5.91221 7.39961 6.83268 7.39961Z" stroke="#F7FAFF" stroke-width="1.625" stroke-linecap="round" stroke-linejoin="round"/>
<path d="M15.1667 1.0002C16.0871 1.0002 16.8333 1.71654 16.8333 2.6002C16.8333 3.48385 16.0871 4.2002 15.1667 4.2002C14.2462 4.2002 13.5 3.48385 13.5 2.6002C13.5 1.71654 14.2462 1.0002 15.1667 1.0002Z" stroke="#F7FAFF" stroke-width="1.625" stroke-linecap="round" stroke-linejoin="round"/>
</svg>
