<svg width="34" height="32" viewBox="0 0 34 32" fill="none" xmlns="http://www.w3.org/2000/svg">
<path fill-rule="evenodd" clip-rule="evenodd" d="M6.64746 10.5215H23.5886H6.64746ZM8.49405 16.0842L10.3764 16.0512C10.8375 16.0426 11.2858 16.1989 11.6363 16.4905C11.9867 16.7822 12.2149 17.1888 12.2776 17.6333L12.2945 17.8805V19.6822C12.2946 20.1619 12.1012 20.6224 11.7559 20.9648C11.4106 21.3072 10.9409 21.5041 10.4479 21.5132L8.56558 21.5462C8.10447 21.5548 7.65615 21.3985 7.30569 21.1069C6.95524 20.8153 6.72704 20.4086 6.6644 19.9642L6.64746 19.7152V17.9152C6.64737 17.4356 6.84077 16.975 7.18609 16.6326C7.5314 16.2902 8.00104 16.0933 8.49405 16.0842V16.0842Z" stroke="#42B4E4" stroke-width="2" stroke-linecap="round" stroke-linejoin="round"/>
<path d="M16.0588 21.5069H23.5882M4.76471 5H25.4706C26.469 5 27.4266 5.38583 28.1326 6.0726C28.8387 6.75938 29.2353 7.69084 29.2353 8.66209V27H4.76471C3.76624 27 2.80868 26.6142 2.10266 25.9274C1.39664 25.2406 1 24.3092 1 23.3379V8.66392C1 7.69267 1.39664 6.76121 2.10266 6.07443C2.80868 5.38766 3.76624 5.00183 4.76471 5.00183V5ZM16.0588 16.0137H23.5882H16.0588Z" stroke="#42B4E4" stroke-width="2" stroke-linecap="round" stroke-linejoin="round"/>
<path d="M28.2939 27.0009C29.542 27.0009 30.739 26.5186 31.6215 25.6601C32.504 24.8017 32.9998 23.6373 32.9998 22.4233V10.5215H29.2351" stroke="#42B4E4" stroke-width="2" stroke-linecap="round" stroke-linejoin="round"/>
</svg>
