<svg width="32" height="32" viewBox="0 0 32 32" fill="none" xmlns="http://www.w3.org/2000/svg">
<path fill-rule="evenodd" clip-rule="evenodd" d="M17.0425 3.05C17.0425 2.77152 16.9326 2.50445 16.7368 2.30754C16.5411 2.11062 16.2757 2 15.9989 2C15.7221 2 15.4566 2.11062 15.2609 2.30754C15.0652 2.50445 14.9553 2.77152 14.9553 3.05V5.5H12.2084C11.7196 5.49978 11.242 5.64759 10.8378 5.9242L8.4792 7.5398C8.4213 7.57925 8.35292 7.60023 8.28299 7.6H2.57504C2.29825 7.6 2.0328 7.71062 1.83708 7.90754C1.64137 8.10445 1.53141 8.37152 1.53141 8.65C1.53141 8.92848 1.64137 9.19555 1.83708 9.39246C2.0328 9.58938 2.29825 9.7 2.57504 9.7H4.76944L0.0842482 20.452C-0.00424999 20.6618 -0.0236257 20.8946 0.0289607 21.1164C0.081547 21.3381 0.20333 21.537 0.376464 21.684C0.487785 21.7736 0.600496 21.859 0.806439 21.9934C1.06526 22.1628 1.4354 22.3826 1.90851 22.5996C2.85473 23.035 4.22119 23.4676 5.91048 23.4676C7.29089 23.4703 8.65573 23.1742 9.91245 22.5996C10.3856 22.3826 10.7557 22.1628 11.0145 21.9934C11.2232 21.8576 11.3346 21.7722 11.4459 21.6812C11.6204 21.5358 11.7432 21.3373 11.7956 21.1155C11.8481 20.8938 11.8274 20.6609 11.7367 20.452L7.05012 9.7H8.28299C8.77141 9.7 9.2487 9.5516 9.65224 9.2758L12.0122 7.6602C12.0697 7.62102 12.1376 7.60005 12.207 7.6H14.9553V27.9H8.71158C8.43479 27.9 8.16934 28.0106 7.97362 28.2075C7.7779 28.4044 7.66795 28.6715 7.66795 28.95C7.66795 29.2285 7.7779 29.4955 7.97362 29.6925C8.16934 29.8894 8.43479 30 8.71158 30H23.2862C23.563 30 23.8284 29.8894 24.0242 29.6925C24.2199 29.4955 24.3298 29.2285 24.3298 28.95C24.3298 28.6715 24.2199 28.4044 24.0242 28.2075C23.8284 28.0106 23.563 27.9 23.2862 27.9H17.0425V7.6H19.7893C19.8589 7.6 19.9285 7.621 19.9842 7.6602L22.3455 9.2758C22.7491 9.5516 23.2264 9.7 23.7148 9.7H24.9477L20.2611 20.452C20.1674 20.667 20.148 20.9074 20.206 21.1348C20.264 21.3621 20.3961 21.5634 20.5811 21.7064C20.5978 21.719 20.5811 21.7064 20.5839 21.7064C20.7219 21.811 20.866 21.9073 21.0153 21.9948C21.2727 22.1516 21.6414 22.3532 22.1146 22.5548C23.3728 23.0839 24.7236 23.3543 26.0873 23.35C27.4516 23.3541 28.8029 23.0832 30.0614 22.5534C30.5318 22.3532 30.9019 22.1516 31.1607 21.9948C31.3095 21.9064 31.4535 21.8102 31.5921 21.7064C31.7771 21.5634 31.9092 21.3621 31.9672 21.1348C32.0252 20.9074 32.0058 20.667 31.9121 20.452L27.2283 9.7H29.4241C29.7009 9.7 29.9664 9.58938 30.1621 9.39246C30.3578 9.19555 30.4678 8.92848 30.4678 8.65C30.4678 8.37152 30.3578 8.10445 30.1621 7.90754C29.9664 7.71062 29.7009 7.6 29.4241 7.6H23.7162C23.6467 7.59995 23.5789 7.57898 23.5214 7.5398L21.16 5.9242C20.7562 5.64786 20.2791 5.50006 19.7907 5.5H17.0425V3.05ZM2.3524 20.4772C3.44766 21.0636 4.66982 21.3689 5.91048 21.3662C7.15114 21.3689 8.3733 21.0636 9.46856 20.4772L5.91048 12.3152L2.3524 20.4772ZM22.5431 20.4436C22.6572 20.4996 22.7853 20.5598 22.9258 20.62C23.6633 20.9322 24.7417 21.25 26.0873 21.25C27.314 21.2535 28.5256 20.9778 29.6315 20.4436L26.0873 12.3138L22.5431 20.4436Z" fill="#0E4287"/>
</svg>
