<svg width="32" height="32" viewBox="0 0 32 32" fill="none" xmlns="http://www.w3.org/2000/svg">
<path fill-rule="evenodd" clip-rule="evenodd" d="M5.08674 0.206557C5.27407 0.18533 5.46357 0.21747 5.63341 0.299268C5.80317 0.38087 5.94655 0.508805 6.0468 0.668213C6.14704 0.82762 6.20021 1.01211 6.2002 1.20039C6.2002 2.59271 6.7312 3.40095 7.35898 4.33515L7.40611 4.40339C7.93765 5.19408 8.6002 6.18331 8.6002 7.59869C8.6002 9.04295 7.87206 10.3163 6.76125 11.0724L6.5426 11.2212L6.74538 11.3911C7.03327 11.6321 7.28999 11.9306 7.51333 12.2915C8.24453 13.4741 8.6002 15.3097 8.6002 18.0039C8.6002 20.7276 8.23381 24.0015 7.6372 26.6132C7.34104 27.9121 6.97546 29.0997 6.54514 29.9835L6.54343 29.9872C6.34475 30.4173 6.08173 30.8147 5.76341 31.1656C5.45274 31.4829 4.99479 31.8002 4.4002 31.8002C3.80536 31.8002 3.34737 31.4827 3.03856 31.1656C2.71941 30.8155 2.45641 30.4182 2.25882 29.9877L2.25675 29.9834C1.82495 29.0982 1.45949 27.9125 1.16339 26.6124C0.542448 23.7837 0.219624 20.8977 0.200197 18.0016C0.200256 15.3078 0.555929 13.4739 1.28711 12.2915L1.28791 12.2901C1.49405 11.9509 1.7534 11.6471 2.05603 11.3902L2.25656 11.22L2.03892 11.0722C1.47198 10.6874 1.00797 10.1697 0.68744 9.56416C0.366911 8.95867 0.199623 8.28347 0.200197 7.59842C0.200197 7.01904 0.200199 6.04207 0.79408 4.77557C1.37742 3.53144 2.49488 2.08425 4.57471 0.419237C4.72192 0.301515 4.89942 0.227785 5.08674 0.206557ZM5.68019 5.42107L5.69896 5.44922C6.26658 6.29328 6.6002 6.82739 6.6002 7.59869C6.6002 8.18204 6.3684 8.74149 5.95581 9.15397C5.54323 9.56644 4.98365 9.79816 4.4002 9.79816C3.81674 9.79816 3.25716 9.56644 2.84458 9.15397C2.43199 8.74149 2.2002 8.18204 2.2002 7.59869V7.59549C2.2002 7.11108 2.20033 6.48851 2.60636 5.62298C2.88797 5.02328 3.38225 4.27247 4.26404 3.3763L4.48458 3.15216L4.59408 3.44693C4.89203 4.24902 5.31341 4.87665 5.68019 5.42107ZM3.11243 26.1679C3.39533 27.4053 3.71929 28.4218 4.05375 29.1073C4.11551 29.2357 4.17421 29.3431 4.22815 29.4341L4.4002 29.7243L4.57224 29.4341C4.62617 29.3431 4.68485 29.2358 4.74659 29.1074C5.08109 28.4219 5.40506 27.4037 5.68796 26.168C6.25138 23.7057 6.6002 20.5811 6.6002 18.0039C6.6002 15.4039 6.24049 14.0391 5.81447 13.3457C5.67575 13.0967 5.46726 12.8934 5.21435 12.7618L5.20164 12.7563C4.94791 12.6458 4.67249 12.5942 4.39601 12.6053C4.0584 12.6057 3.79818 12.6582 3.59048 12.7601L3.58627 12.7623C3.33336 12.8939 3.12464 13.0967 2.98592 13.3457C2.55991 14.0391 2.2002 15.4039 2.2002 18.0039C2.2002 20.5796 2.55066 23.7042 3.11243 26.1679ZM12.8333 20.4668C12.2907 20.3758 11.7577 20.2371 11.2406 20.0526C10.821 19.9029 10.571 19.4844 10.5835 19.0391V19.0391C10.6018 18.3871 11.3288 17.9638 11.9443 18.1798C12.2083 18.2724 12.4792 18.3506 12.756 18.4133L13.0002 18.4687V13.5971C13.0002 13.0138 13.232 12.4544 13.6445 12.0419C14.0571 11.6295 14.6167 11.3977 15.2002 11.3977H21.8002L21.8002 11.1977C21.8001 9.81787 21.414 8.46555 20.6856 7.29354C19.9572 6.12154 18.9154 5.17656 17.678 4.56537C16.4406 3.95419 15.0569 3.70115 13.6832 3.83485C12.6929 3.93124 11.7363 4.22583 10.8687 4.69684C10.4718 4.9123 9.95495 4.76238 9.73869 4.36596C9.71763 4.32737 9.69654 4.2894 9.67544 4.25205C9.40402 3.77156 9.5136 3.15094 10.0013 2.89275C11.1624 2.27811 12.4436 1.91149 13.7631 1.82188C15.4814 1.7052 17.1986 2.06266 18.7275 2.85524C20.2563 3.64782 21.5379 4.84505 22.4325 6.31625C23.3271 7.78744 23.8002 9.47604 23.8002 11.1977V11.3977H29.6002C30.1837 11.3977 30.7433 11.6295 31.1558 12.0419C31.5684 12.4544 31.8002 13.0138 31.8002 13.5971V27.9933C31.8002 28.5766 31.5684 29.136 31.1558 29.5484C30.7433 29.9609 30.1837 30.1926 29.6002 30.1926H15.2002C14.6167 30.1926 14.0571 29.9609 13.6445 29.5484C13.232 29.136 13.0002 28.5766 13.0002 27.9933V20.6624V20.4961L12.8333 20.4668ZM15.1834 20.5655L15.0002 20.5809V28.1949H29.8002V13.3987H23.5413L23.5026 13.5486C23.0145 15.436 21.9517 17.1251 20.4613 18.3822C18.9709 19.6392 17.1266 20.4022 15.1834 20.5655ZM21.3791 13.6654L21.4736 13.3987H15.0002V18.5779L15.2225 18.553C16.6041 18.3981 17.9142 17.8576 19.003 16.9933C20.0917 16.129 20.9152 14.9757 21.3791 13.6654Z" fill="#42B4E4"/>
</svg>
