<svg width="32" height="32" viewBox="0 0 32 32" fill="none" xmlns="http://www.w3.org/2000/svg">
<path d="M1.45455 29C1.04242 29 0.697212 28.8613 0.418909 28.584C0.139636 28.3076 0 27.9648 0 27.5556C0 27.1463 0.139636 26.8035 0.418909 26.5271C0.697212 26.2498 1.04242 26.1111 1.45455 26.1111H30.5455C30.9576 26.1111 31.3028 26.2498 31.5811 26.5271C31.8604 26.8035 32 27.1463 32 27.5556C32 27.9648 31.8604 28.3076 31.5811 28.584C31.3028 28.8613 30.9576 29 30.5455 29H1.45455ZM4.36364 24.6667C3.56364 24.6667 2.87903 24.384 2.30982 23.8188C1.73964 23.2526 1.45455 22.5722 1.45455 21.7778V5.88889C1.45455 5.09444 1.73964 4.41411 2.30982 3.84789C2.87903 3.28263 3.56364 3 4.36364 3H27.6364C28.4364 3 29.1215 3.28263 29.6916 3.84789C30.2608 4.41411 30.5455 5.09444 30.5455 5.88889V21.7778C30.5455 22.5722 30.2608 23.2526 29.6916 23.8188C29.1215 24.384 28.4364 24.6667 27.6364 24.6667H4.36364ZM4.36364 21.7778H27.6364V5.88889H4.36364V21.7778Z" fill="#0E4287"/>
</svg>
