<svg width="32" height="32" viewBox="0 0 32 32" fill="none" xmlns="http://www.w3.org/2000/svg">
<path d="M29.8039 2.5H2.19608C1.61364 2.5 1.05506 2.73154 0.643217 3.14368C0.231372 3.55583 0 4.11481 0 4.69767V27.3023C0 27.8852 0.231372 28.4442 0.643217 28.8563C1.05506 29.2685 1.61364 29.5 2.19608 29.5H4.29804C4.4751 29.4998 4.64851 29.4496 4.79835 29.3552C4.94819 29.2608 5.06837 29.126 5.1451 28.9663C5.7803 27.6222 6.78393 26.4863 8.03915 25.6908C9.29437 24.8954 10.7496 24.4731 12.2353 24.4731C13.721 24.4731 15.1762 24.8954 16.4314 25.6908C17.6867 26.4863 18.6903 27.6222 19.3255 28.9663C19.4022 29.126 19.5224 29.2608 19.6722 29.3552C19.8221 29.4496 19.9955 29.4998 20.1726 29.5H29.8039C30.3864 29.5 30.9449 29.2685 31.3568 28.8563C31.7686 28.4442 32 27.8852 32 27.3023V4.69767C32 4.11481 31.7686 3.55583 31.3568 3.14368C30.9449 2.73154 30.3864 2.5 29.8039 2.5ZM8.15686 18.5116C8.15686 17.7044 8.39606 16.9153 8.8442 16.2441C9.29235 15.5729 9.92931 15.0498 10.6745 14.7409C11.4198 14.432 12.2398 14.3512 13.031 14.5087C13.8221 14.6661 14.5488 15.0549 15.1192 15.6256C15.6896 16.1964 16.078 16.9237 16.2354 17.7154C16.3927 18.5071 16.312 19.3277 16.0033 20.0735C15.6946 20.8193 15.1718 21.4567 14.5011 21.9052C13.8305 22.3537 13.0419 22.593 12.2353 22.593C11.1549 22.5889 10.1199 22.1576 9.35597 21.393C8.59201 20.6285 8.16099 19.5928 8.15686 18.5116ZM30.1176 27.3023C30.1176 27.3856 30.0846 27.4654 30.0258 27.5243C29.9669 27.5832 29.8871 27.6163 29.8039 27.6163H20.7529C19.6548 25.6447 17.9091 24.114 15.8118 23.2837C16.8126 22.5325 17.5519 21.4853 17.9249 20.2902C18.298 19.0952 18.2858 17.813 17.8902 16.6253C17.4946 15.4376 16.7355 14.4045 15.7206 13.6725C14.7057 12.9404 13.4864 12.5465 12.2353 12.5465C10.9842 12.5465 9.76488 12.9404 8.74996 13.6725C7.73505 14.4045 6.97602 15.4376 6.5804 16.6253C6.18478 17.813 6.17262 19.0952 6.54564 20.2902C6.91867 21.4853 7.65797 22.5325 8.65882 23.2837C6.56151 24.114 4.81575 25.6447 3.71765 27.6163H2.19608C2.1141 27.6125 2.03651 27.5782 1.97848 27.5201C1.92045 27.462 1.88617 27.3844 1.88235 27.3023V4.69767C1.88235 4.61441 1.91541 4.53455 1.97424 4.47568C2.03308 4.4168 2.11287 4.38372 2.19608 4.38372H29.8039C29.8871 4.38372 29.9669 4.4168 30.0258 4.47568C30.0846 4.53455 30.1176 4.61441 30.1176 4.69767V27.3023ZM26.9804 8.46512V23.5349C26.9804 23.7847 26.8812 24.0242 26.7047 24.2009C26.5282 24.3775 26.2888 24.4767 26.0392 24.4767H23.5294C23.2798 24.4767 23.0404 24.3775 22.8639 24.2009C22.6874 24.0242 22.5882 23.7847 22.5882 23.5349C22.5882 23.2851 22.6874 23.0455 22.8639 22.8689C23.0404 22.6923 23.2798 22.593 23.5294 22.593H25.098V9.40698H6.90196V10.9767C6.90196 11.2265 6.8028 11.4661 6.6263 11.6427C6.44979 11.8194 6.2104 11.9186 5.96078 11.9186C5.71117 11.9186 5.47178 11.8194 5.29527 11.6427C5.11877 11.4661 5.01961 11.2265 5.01961 10.9767V8.46512C5.01961 8.21532 5.11877 7.97575 5.29527 7.79912C5.47178 7.62249 5.71117 7.52326 5.96078 7.52326H26.0392C26.2888 7.52326 26.5282 7.62249 26.7047 7.79912C26.8812 7.97575 26.9804 8.21532 26.9804 8.46512Z" fill="#42B4E4"/>
</svg>
