<svg width="34" height="33" viewBox="0 0 34 33" fill="none" xmlns="http://www.w3.org/2000/svg">
<path d="M30.4737 10.1055H3.52632C2.13107 10.1055 1 11.2365 1 12.6318V29.4739C1 30.8691 2.13107 32.0002 3.52632 32.0002H30.4737C31.8689 32.0002 33 30.8691 33 29.4739V12.6318C33 11.2365 31.8689 10.1055 30.4737 10.1055Z" stroke="#42B4E4" stroke-width="2" stroke-linejoin="round"/>
<path d="M12.7896 3.36842H21.2107V0H12.7896V3.36842ZM22.0528 4.21053V10.1053H25.4212V4.21053H22.0528ZM11.9475 10.1053V4.21053H8.5791V10.1053H11.9475ZM21.2107 3.36842C21.434 3.36842 21.6482 3.45714 21.8061 3.61507C21.9641 3.77299 22.0528 3.98719 22.0528 4.21053H25.4212C25.4212 3.09383 24.9776 2.02286 24.188 1.23323C23.3983 0.443608 22.3274 0 21.2107 0V3.36842ZM12.7896 0C11.6729 0 10.602 0.443608 9.81234 1.23323C9.02271 2.02286 8.5791 3.09383 8.5791 4.21053H11.9475C11.9475 3.98719 12.0362 3.77299 12.1942 3.61507C12.3521 3.45714 12.5663 3.36842 12.7896 3.36842V0Z" fill="#42B4E4"/>
<path d="M16.9999 16V26.1053M11.9473 21.0526H22.0525H11.9473Z" stroke="#42B4E4" stroke-width="2" stroke-linecap="round" stroke-linejoin="round"/>
</svg>
