<svg width="50" height="50" viewBox="0 0 50 50" fill="none" xmlns="http://www.w3.org/2000/svg">
<path d="M45.1172 3.90625H29.4076C28.8684 3.90625 28.4311 4.34346 28.4311 4.88281C28.4311 5.42217 28.8684 5.85938 29.4076 5.85938H45.1172C46.7326 5.85938 48.0469 7.17363 48.0469 8.78906V32.4219H1.95312V8.78906C1.95312 7.17363 3.26738 5.85938 4.88281 5.85938H20.6186C21.1578 5.85938 21.5951 5.42217 21.5951 4.88281C21.5951 4.34346 21.1578 3.90625 20.6186 3.90625H4.88281C2.19043 3.90625 0 6.09668 0 8.78906V41.2109C0 43.9033 2.19043 46.0938 4.88281 46.0938H45.1172C47.8096 46.0938 50 43.9033 50 41.2109V8.78906C50 6.09668 47.8096 3.90625 45.1172 3.90625ZM45.1172 44.1406H4.88281C3.26738 44.1406 1.95312 42.8264 1.95312 41.2109V34.375H48.0469V41.2109C48.0469 42.8264 46.7326 44.1406 45.1172 44.1406Z" fill="#00B4AA"/>
<path d="M9.7583 36.3281C8.14287 36.3281 6.82861 37.6424 6.82861 39.2578C6.82861 40.8732 8.14287 42.1875 9.7583 42.1875C11.3737 42.1875 12.688 40.8732 12.688 39.2578C12.688 37.6424 11.3737 36.3281 9.7583 36.3281ZM9.7583 40.2344C9.21982 40.2344 8.78174 39.7963 8.78174 39.2578C8.78174 38.7193 9.21982 38.2812 9.7583 38.2812C10.2968 38.2812 10.7349 38.7193 10.7349 39.2578C10.7349 39.7963 10.2967 40.2344 9.7583 40.2344ZM42.1948 38.2812H17.87C17.3307 38.2812 16.8935 38.7185 16.8935 39.2578C16.8935 39.7972 17.3307 40.2344 17.87 40.2344H42.1948C42.7341 40.2344 43.1714 39.7972 43.1714 39.2578C43.1714 38.7185 42.7342 38.2812 42.1948 38.2812ZM20.0083 16.1794V22.1019C20.0083 23.1088 20.5289 24.0105 21.4009 24.5139C21.8369 24.7656 22.3152 24.8915 22.7936 24.8915C23.2718 24.8915 23.7501 24.7656 24.1861 24.5139L29.315 21.5526C30.187 21.0492 30.7076 20.1475 30.7076 19.1406C30.7076 18.1338 30.187 17.232 29.315 16.7286L24.1861 13.7674C23.3143 13.264 22.2731 13.264 21.401 13.7674C20.5289 14.2708 20.0083 15.1726 20.0083 16.1794ZM21.9614 16.1794C21.9614 15.7458 22.2524 15.5311 22.3774 15.4588C22.4535 15.4149 22.6057 15.3443 22.7978 15.3443C22.9217 15.3443 23.0623 15.3738 23.2096 15.4588L28.3385 18.42C28.714 18.6368 28.7545 18.9962 28.7545 19.1406C28.7545 19.2851 28.714 19.6444 28.3385 19.8612L23.2096 22.8225C22.834 23.0391 22.5026 22.8946 22.3775 22.8225C22.2525 22.7502 21.9615 22.5354 21.9615 22.1019V16.1794H21.9614ZM25.0127 5.85938C25.2695 5.85938 25.5215 5.75488 25.7031 5.57324C25.8847 5.3916 25.9893 5.13965 25.9893 4.88281C25.9893 4.62598 25.8848 4.37402 25.7031 4.19238C25.5215 4.01074 25.2695 3.90625 25.0127 3.90625C24.7559 3.90625 24.5039 4.01074 24.3213 4.19238C24.1397 4.37402 24.0361 4.62598 24.0361 4.88281C24.0361 5.13965 24.1397 5.3916 24.3213 5.57324C24.5039 5.75488 24.7559 5.85938 25.0127 5.85938Z" fill="#00B4AA"/>
</svg>
