<svg width="34" height="32" viewBox="0 0 34 32" fill="none" xmlns="http://www.w3.org/2000/svg">
<path fill-rule="evenodd" clip-rule="evenodd" d="M6.64746 10.521H23.5886H6.64746ZM8.49405 16.0837L10.3764 16.0508C10.8375 16.0421 11.2858 16.1984 11.6363 16.4901C11.9867 16.7817 12.2149 17.1883 12.2776 17.6328L12.2945 17.88V19.6817C12.2946 20.1614 12.1012 20.6219 11.7559 20.9643C11.4106 21.3067 10.9409 21.5036 10.4479 21.5128L8.56558 21.5457C8.10447 21.5544 7.65615 21.398 7.30569 21.1064C6.95524 20.8148 6.72704 20.4082 6.6644 19.9637L6.64746 19.7147V17.9148C6.64737 17.4351 6.84077 16.9746 7.18609 16.6322C7.5314 16.2898 8.00104 16.0928 8.49405 16.0837V16.0837Z" stroke="#0E4287" stroke-width="2" stroke-linecap="round" stroke-linejoin="round"/>
<path d="M16.0588 21.5064H23.5882M4.76471 4.99951H25.4706C26.469 4.99951 27.4266 5.38534 28.1326 6.07211C28.8387 6.75889 29.2353 7.69035 29.2353 8.6616V26.9995H4.76471C3.76624 26.9995 2.80868 26.6137 2.10266 25.9269C1.39664 25.2401 1 24.3087 1 23.3374V8.66343C1 7.69218 1.39664 6.76072 2.10266 6.07394C2.80868 5.38717 3.76624 5.00134 4.76471 5.00134V4.99951ZM16.0588 16.0132H23.5882H16.0588Z" stroke="#0E4287" stroke-width="2" stroke-linecap="round" stroke-linejoin="round"/>
<path d="M28.2939 27.0004C29.542 27.0004 30.739 26.5181 31.6215 25.6596C32.504 24.8012 32.9998 23.6368 32.9998 22.4228V10.521H29.2351" stroke="#0E4287" stroke-width="2" stroke-linecap="round" stroke-linejoin="round"/>
</svg>
