<svg width="50" height="50" viewBox="0 0 50 50" fill="none" xmlns="http://www.w3.org/2000/svg">
<g clip-path="url(#clip0_365_1855)">
<path d="M47.5586 40.8252H47.104C46.2928 40.0663 45.8326 39.0033 45.834 37.8925C45.8326 36.7816 46.2928 35.7187 47.1039 34.9598H47.5586C48.2102 34.9598 48.8232 34.7057 49.2846 34.2443C49.746 33.7829 50 33.1701 50 32.5185C50 31.1723 48.9048 30.0771 47.5586 30.0771H45.3145C45.5724 29.8808 45.8168 29.6676 46.0463 29.4387C47.4082 28.0767 48.1549 26.2658 48.1485 24.3393C48.1363 20.6267 45.245 17.5664 41.5718 17.2183C41.6816 16.9459 41.7378 16.6549 41.7374 16.3612C41.7374 15.0996 40.7114 14.0731 39.4502 14.0731H39.0624C38.349 13.396 37.9451 12.454 37.9462 11.4703C37.9451 10.4864 38.3492 9.54421 39.0629 8.86707H39.4502C40.0599 8.86707 40.6341 8.62957 41.0687 8.19656C41.4999 7.76384 41.7374 7.18933 41.7374 6.57898C41.7374 5.31785 40.7114 4.29187 39.4502 4.29187H12.2364C8.23714 4.29187 4.97386 7.50164 4.96205 11.4467C4.9557 13.3731 5.70228 15.1841 7.0642 16.546C7.29369 16.7748 7.53812 16.9881 7.79603 17.1844H4.79798C3.53627 17.1844 2.5098 18.2103 2.5098 19.4715C2.5098 20.0827 2.74769 20.6572 3.17943 21.089C3.61195 21.5215 4.18666 21.7595 4.79789 21.7595H5.1847C5.89847 22.4368 6.30267 23.379 6.3015 24.3629C6.30267 25.3469 5.89837 26.2893 5.18431 26.9666H4.79798C3.53627 26.9666 2.5098 27.9926 2.5098 29.2537C2.5098 29.864 2.7473 30.4385 3.18031 30.8731C3.33968 31.0322 3.52152 31.1672 3.72005 31.2734C1.49584 32.6538 0.00901905 35.0925 3.46726e-05 37.867C-0.00611767 39.9646 0.806675 41.9361 2.2888 43.4182C3.76537 44.8948 5.72816 45.708 7.81556 45.708H47.5586C48.2102 45.708 48.8231 45.4539 49.2846 44.9925C49.746 44.531 50 43.9181 50 43.2666C50 41.9204 48.9048 40.8252 47.5586 40.8252ZM48.5352 32.5185C48.5357 32.7775 48.4325 33.0262 48.2487 33.2087C48.0662 33.3924 47.8175 33.4956 47.5586 33.4951H41.7018V31.542H47.5586C48.0971 31.542 48.5352 31.9801 48.5352 32.5185ZM8.10013 15.5103C7.01605 14.4263 6.42181 12.9849 6.42689 11.4513C6.43636 8.3114 9.04242 5.75681 12.2364 5.75681H39.4502C39.9037 5.75681 40.2726 6.12566 40.2726 6.57908C40.2733 6.79705 40.187 7.00652 40.0329 7.16082C39.8787 7.3157 39.6688 7.40261 39.4502 7.40232H16.0391C15.6345 7.40232 15.3067 7.73025 15.3067 8.13474C15.3067 8.53923 15.6345 8.86716 16.0391 8.86716H37.2017C36.7295 9.6533 36.4805 10.5535 36.4813 11.4705C36.4813 12.4013 36.7352 13.2969 37.2014 14.0732H12.1408C11.4348 14.0732 10.7735 13.7941 10.2786 13.2873C9.78412 12.7807 9.52103 12.1128 9.53802 11.4063C9.57171 10.0062 10.7673 8.86716 12.2032 8.86716H13.1094C13.514 8.86716 13.8418 8.53923 13.8418 8.13474C13.8418 7.73025 13.514 7.40232 13.1094 7.40232H12.2032C9.97894 7.40232 8.1263 9.18259 8.07347 11.3711C8.04701 12.4754 8.45794 13.5193 9.23041 14.3105C10.0033 15.1021 11.0369 15.5381 12.1408 15.5381H39.4502C39.9037 15.5381 40.2726 15.9074 40.2726 16.3613C40.2733 16.5795 40.1867 16.789 40.0321 16.9429C39.8782 17.0978 39.6686 17.1849 39.4502 17.1845H12.1408C10.6146 17.1845 9.17953 16.5899 8.10013 15.5103ZM4.21527 20.0533C4.06068 19.8994 3.97396 19.6897 3.97464 19.4716C3.97464 19.0181 4.34398 18.6493 4.79798 18.6493H40.8731C44.0667 18.6493 46.6734 21.204 46.6836 24.3441C46.6887 25.8774 46.0945 27.3188 45.0104 28.4028C44.1055 29.3078 42.9505 29.8703 41.7018 30.0291V28.3648C42.5245 28.2159 43.2798 27.8174 43.8785 27.2042C44.6513 26.4126 45.0623 25.3682 45.036 24.2637C44.9844 22.0752 43.1323 20.2947 40.9074 20.2947H4.79798C4.57933 20.2954 4.36937 20.2084 4.21527 20.0533ZM7.04603 21.7597H40.9074C42.3434 21.7597 43.5385 22.8986 43.5715 24.2987C43.5885 25.0056 43.3253 25.6741 42.8303 26.181C42.5121 26.5069 42.125 26.7381 41.7018 26.8619V25.3301C41.7018 24.9283 41.3711 24.5976 40.9694 24.5976H26.4826C26.078 24.5976 25.7501 24.9256 25.7501 25.3301C25.7501 25.7345 26.078 26.0625 26.4826 26.0625H31.4261V26.9668H7.04574C7.518 26.1805 7.76722 25.2802 7.76644 24.3631C7.76722 23.4461 7.5181 22.5459 7.04603 21.7597ZM32.891 26.0625H40.237V36.4464L36.9008 34.7181C36.6898 34.6088 36.4381 34.6089 36.2271 34.7182L32.891 36.4464V26.0625H32.891ZM4.79798 28.4315H31.4261V30.077H4.79798C4.7973 30.077 4.79671 30.077 4.79603 30.077C4.34544 30.077 3.97464 29.7062 3.97464 29.2556C3.97464 29.2551 3.97464 29.2544 3.97464 29.2538C3.97474 28.8005 4.34408 28.4315 4.79798 28.4315ZM48.2487 43.9567C48.0662 44.1404 47.8175 44.2436 47.5586 44.2431H7.81556C6.11947 44.2431 4.52455 43.5823 3.32474 42.3825C2.12035 41.1782 1.4599 39.576 1.46488 37.8715C1.47611 34.3814 4.3723 31.542 7.92093 31.542H31.426V33.4951H7.88392C5.47865 33.4951 3.47582 35.4196 3.41918 37.7853C3.39095 38.9795 3.83539 40.1082 4.67074 40.9636C5.50609 41.8189 6.62289 42.29 7.81546 42.29H34.5127C34.9173 42.29 35.2452 41.9621 35.2452 41.5576C35.2452 41.1531 34.9173 40.8252 34.5127 40.8252H7.81556C7.02084 40.8252 6.27611 40.5108 5.71878 39.9401C5.16136 39.3693 4.86478 38.6164 4.88363 37.8202C4.92142 36.243 6.26732 34.9599 7.88392 34.9599H31.4261V37.6506C31.4261 38.0524 31.7568 38.383 32.1585 38.383C32.2758 38.383 32.3914 38.3549 32.4955 38.3009L36.564 36.1932L40.6327 38.3009C40.8594 38.4185 41.1319 38.4092 41.35 38.2763C41.5682 38.1436 41.7019 37.9059 41.7019 37.6506V34.9598H45.2187C44.6631 35.8369 44.3684 36.8542 44.3692 37.8925C44.3684 38.9307 44.6631 39.9481 45.2188 40.8252H37.4424C37.0378 40.8252 36.71 41.1531 36.71 41.5576C36.71 41.9621 37.0378 42.29 37.4424 42.29H47.5586C48.0971 42.29 48.5352 42.7281 48.5352 43.2666C48.5357 43.5256 48.4325 43.7743 48.2487 43.9567Z" fill="#00B4AA"/>
</g>
<defs>
<clipPath id="clip0_365_1855">
<rect width="50" height="50" fill="white"/>
</clipPath>
</defs>
</svg>
