<svg width="14" height="14" viewBox="0 0 14 14" fill="none" xmlns="http://www.w3.org/2000/svg">
<path d="M12.8333 8.94449C12.8333 9.23671 12.7036 9.51698 12.4726 9.72361C12.2417 9.93025 11.9285 10.0463 11.6019 10.0463H4.21296L1.75 12.25V3.43523C1.75 3.143 1.87974 2.86274 2.11069 2.6561C2.34164 2.44946 2.65487 2.33337 2.98148 2.33337H11.6019C11.9285 2.33337 12.2417 2.44946 12.4726 2.6561C12.7036 2.86274 12.8333 3.143 12.8333 3.43523V8.94449Z" stroke="#00B4AA" stroke-linecap="round" stroke-linejoin="round"/>
<path d="M7.29167 6.41667C7.45275 6.41667 7.58333 6.28608 7.58333 6.125C7.58333 5.96392 7.45275 5.83333 7.29167 5.83333C7.13058 5.83333 7 5.96392 7 6.125C7 6.28608 7.13058 6.41667 7.29167 6.41667Z" stroke="#00B4AA" stroke-linecap="round" stroke-linejoin="round"/>
<path d="M10.2082 6.41667C10.3693 6.41667 10.4998 6.28608 10.4998 6.125C10.4998 5.96392 10.3693 5.83333 10.2082 5.83333C10.0471 5.83333 9.9165 5.96392 9.9165 6.125C9.9165 6.28608 10.0471 6.41667 10.2082 6.41667Z" stroke="#00B4AA" stroke-linecap="round" stroke-linejoin="round"/>
<path d="M4.37516 6.41667C4.53625 6.41667 4.66683 6.28608 4.66683 6.125C4.66683 5.96392 4.53625 5.83333 4.37516 5.83333C4.21408 5.83333 4.0835 5.96392 4.0835 6.125C4.0835 6.28608 4.21408 6.41667 4.37516 6.41667Z" stroke="#00B4AA" stroke-linecap="round" stroke-linejoin="round"/>
</svg>
