<svg width="50" height="50" viewBox="0 0 50 50" fill="none" xmlns="http://www.w3.org/2000/svg">
<g clip-path="url(#clip0_365_1860)">
<path d="M45.0508 10.0643C44.728 9.63217 44.1162 9.5436 43.684 9.86626C43.2519 10.189 43.1632 10.8009 43.4859 11.2331C50.2804 20.3305 49.3393 33.2557 41.2967 41.2983C32.3106 50.2842 17.6894 50.2842 8.70352 41.2983C-0.282519 32.3123 -0.282519 17.6911 8.70352 8.70512C16.7552 0.653366 29.6895 -0.281205 38.7896 6.53139C39.2214 6.85463 39.8334 6.76655 40.1566 6.33481C40.4799 5.90307 40.3919 5.29106 39.9601 4.96782C35.193 1.39917 29.2792 -0.343998 23.3073 0.0586392C17.2775 0.465475 11.6007 3.04565 7.32227 7.32397C2.60049 12.0458 0 18.3239 0 25.0016C0 31.6793 2.60049 37.9574 7.32227 42.6793C12.0441 47.4012 18.3222 50.0016 25 50.0016C31.6777 50.0016 37.9558 47.4011 42.6777 42.6793C46.9524 38.4045 49.5323 32.7324 49.9421 26.7078C50.3479 20.7416 48.6106 14.8309 45.0508 10.0643Z" fill="#00B4AA"/>
<path d="M42.6886 7.33318L42.6701 7.31462C42.2897 6.9323 41.6714 6.93074 41.2891 7.31101C40.9066 7.69138 40.9051 8.30974 41.2854 8.69207L41.3039 8.71072C41.4869 8.89519 41.7363 8.9989 41.9962 8.99851C42.2453 8.99851 42.4944 8.90378 42.685 8.71423C43.0674 8.33386 43.0689 7.7155 42.6886 7.33318ZM25 4.49207C13.692 4.49207 4.49219 13.6919 4.49219 24.9999C4.49219 36.3079 13.692 45.5077 25 45.5077C36.308 45.5077 45.5078 36.3079 45.5078 24.9999C45.5078 13.6919 36.308 4.49207 25 4.49207ZM25 43.5546C14.7688 43.5546 6.44531 35.231 6.44531 24.9999C6.44531 14.7687 14.7688 6.44519 25 6.44519C35.2312 6.44519 43.5547 14.7687 43.5547 24.9999C43.5547 35.231 35.2312 43.5546 25 43.5546Z" fill="#00B4AA"/>
<path d="M25 21.7772C24.4852 21.7768 23.9777 21.9007 23.5209 22.1382L15.4049 14.0221C15.0235 13.6408 14.4052 13.6408 14.0237 14.0221C13.6423 14.4035 13.6424 15.0219 14.0237 15.4033L22.1393 23.5188C21.9012 23.9761 21.777 24.4843 21.7773 24.9999C21.7773 26.4397 22.7266 27.6618 24.032 28.0738V33.0617C24.032 33.6011 24.4692 34.0383 25.0086 34.0383C25.548 34.0383 25.9852 33.6011 25.9852 33.0617V28.0679C27.2817 27.6507 28.2227 26.4334 28.2227 24.9999C28.2227 23.2229 26.777 21.7772 25 21.7772ZM25 26.2694C24.3 26.2694 23.7305 25.6999 23.7305 24.9999C23.7305 24.2999 24.3 23.7303 25 23.7303C25.7 23.7303 26.2695 24.2999 26.2695 24.9999C26.2695 25.7 25.7 26.2694 25 26.2694ZM41.0156 24.0417H39.6279C39.0886 24.0417 38.6514 24.4789 38.6514 25.0182C38.6514 25.5576 39.0886 25.9948 39.6279 25.9948H41.0156C41.555 25.9948 41.9922 25.5576 41.9922 25.0182C41.9922 24.4789 41.555 24.0417 41.0156 24.0417ZM10.3721 24.0051H8.98438C8.44502 24.0051 8.00781 24.4423 8.00781 24.9816C8.00781 25.521 8.44502 25.9582 8.98438 25.9582H10.3721C10.9114 25.9582 11.3486 25.521 11.3486 24.9816C11.3486 24.4423 10.9114 24.0051 10.3721 24.0051ZM25.0183 8.00769C24.4789 8.00769 24.0417 8.4449 24.0417 8.98425V10.3719C24.0417 10.9113 24.479 11.3485 25.0183 11.3485C25.5576 11.3485 25.9948 10.9113 25.9948 10.3719V8.98425C25.9948 8.4449 25.5576 8.00769 25.0183 8.00769ZM24.9816 38.6512C24.4423 38.6512 24.0051 39.0885 24.0051 39.6278V41.0155C24.0051 41.5549 24.4423 41.9921 24.9816 41.9921C25.521 41.9921 25.9582 41.5549 25.9582 41.0155V39.6278C25.9582 39.0885 25.521 38.6512 24.9816 38.6512ZM11.3064 29.2882L11.3032 29.2779C11.141 28.7642 10.5944 28.4823 10.0807 28.6437C9.5667 28.8051 9.28154 29.3556 9.44199 29.8699L9.44658 29.8846C9.57861 30.2989 9.96035 30.5608 10.3728 30.5608C10.4708 30.5608 10.5706 30.5461 10.6692 30.5149C11.1826 30.3532 11.4667 29.802 11.3064 29.2882ZM19.3406 38.1858C16.5569 36.9894 14.1745 34.8894 12.6322 32.2727C12.3583 31.8081 11.7595 31.6534 11.2951 31.9273C10.8305 32.2011 10.6758 32.7999 10.9497 33.2644C12.7013 36.2361 15.4073 38.6212 18.5694 39.9803C18.6911 40.0327 18.8222 40.0597 18.9546 40.0598C19.3331 40.0598 19.6934 39.8385 19.8522 39.4686C20.0652 38.9731 19.8362 38.3988 19.3406 38.1858Z" fill="#00B4AA"/>
</g>
<defs>
<clipPath id="clip0_365_1860">
<rect width="50" height="50" fill="white"/>
</clipPath>
</defs>
</svg>
