<svg width="34" height="34" viewBox="0 0 34 34" fill="none" xmlns="http://www.w3.org/2000/svg">
<path d="M17.4687 12.2381C16.4902 12.1412 15.5058 12.35 14.6502 12.8361C13.7947 13.3222 13.1097 14.0618 12.6892 14.9536C12.2687 15.8453 12.1332 16.8457 12.3012 17.8178C12.4693 18.7898 12.9326 19.686 13.6279 20.3835C14.3231 21.0811 15.2162 21.5461 16.185 21.7147C17.1538 21.8833 18.1508 21.7473 19.0395 21.3254C19.9283 20.9034 20.6654 20.2162 21.1498 19.3577C21.6343 18.4992 21.8424 17.5115 21.7458 16.5297C21.6356 15.4291 21.1496 14.4006 20.3701 13.6185C19.5906 12.8363 18.5656 12.3487 17.4687 12.2381V12.2381ZM28.9513 17C28.9483 17.5201 28.9102 18.0394 28.8373 18.5544L32.2061 21.2056C32.3528 21.3276 32.4516 21.4979 32.4851 21.6861C32.5185 21.8743 32.4843 22.0683 32.3887 22.2336L29.2017 27.7664C29.1049 27.9301 28.9536 28.0543 28.7745 28.1171C28.5954 28.1799 28.3999 28.1772 28.2226 28.1095L24.8769 26.7578C24.6924 26.684 24.4925 26.6574 24.2953 26.6803C24.098 26.7031 23.9094 26.7747 23.7465 26.8886C23.2359 27.2414 22.6993 27.5548 22.1415 27.8262C21.9661 27.9117 21.8144 28.0392 21.6998 28.1975C21.5851 28.3558 21.5111 28.54 21.4843 28.7338L20.9828 32.3144C20.9498 32.5035 20.8525 32.6752 20.7073 32.8003C20.5622 32.9253 20.3782 32.9959 20.187 33H13.813C13.6249 32.9967 13.4435 32.9293 13.2987 32.8087C13.1539 32.6882 13.0544 32.5217 13.0165 32.3368L12.5157 28.7615C12.4876 28.5656 12.4117 28.3796 12.2947 28.2202C12.1777 28.0608 12.0233 27.9329 11.8451 27.8478C11.2879 27.578 10.7532 27.2637 10.246 26.908C10.0837 26.7947 9.89574 26.7236 9.69919 26.7013C9.50264 26.679 9.30364 26.7061 9.12013 26.7802L5.77519 28.1312C5.59793 28.1989 5.40253 28.2017 5.22342 28.1391C5.04431 28.0765 4.89297 27.9524 4.79607 27.7888L1.6091 22.2561C1.51329 22.0908 1.47905 21.8967 1.51248 21.7085C1.54591 21.5202 1.64484 21.35 1.79166 21.228L4.63885 18.985C4.79483 18.8608 4.91743 18.6994 4.9955 18.5156C5.07358 18.3318 5.10466 18.1313 5.08593 17.9323C5.05911 17.6206 5.04272 17.3095 5.04272 16.9978C5.04272 16.686 5.05836 16.3794 5.08593 16.0744C5.10261 15.8767 5.07001 15.6779 4.99105 15.4959C4.91209 15.314 4.78926 15.1546 4.63363 15.0321L1.78794 12.7892C1.6435 12.6666 1.54665 12.497 1.51436 12.31C1.48208 12.123 1.51641 11.9305 1.61134 11.7664L4.79831 6.23364C4.89509 6.0699 5.04638 5.94569 5.2255 5.88291C5.40462 5.82012 5.60008 5.8228 5.77743 5.89047L9.12311 7.24224C9.30761 7.31595 9.50745 7.34258 9.70473 7.31975C9.90201 7.29691 10.0906 7.22533 10.2535 7.1114C10.7641 6.7586 11.3007 6.44517 11.8585 6.17383C12.0339 6.0883 12.1856 5.96075 12.3002 5.80245C12.4149 5.64415 12.4889 5.45997 12.5157 5.26617L13.0172 1.68561C13.0502 1.49651 13.1475 1.32476 13.2927 1.19971C13.4378 1.07465 13.6218 1.00406 13.813 1H20.187C20.3751 1.00327 20.5565 1.07073 20.7013 1.19128C20.8461 1.31183 20.9456 1.47827 20.9835 1.66318L21.4843 5.2385C21.5124 5.43444 21.5883 5.62037 21.7053 5.77977C21.8223 5.93916 21.9767 6.06708 22.1549 6.15215C22.7121 6.42202 23.2468 6.7363 23.754 7.09196C23.9163 7.20532 24.1043 7.27636 24.3008 7.29868C24.4974 7.32099 24.6964 7.29389 24.8799 7.21981L28.2248 5.86879C28.4021 5.80105 28.5975 5.79826 28.7766 5.86091C28.9557 5.92355 29.107 6.0476 29.2039 6.21121L32.3909 11.7439C32.4867 11.9092 32.521 12.1033 32.4875 12.2915C32.4541 12.4798 32.3552 12.65 32.2083 12.772L29.3612 15.015C29.2045 15.1388 29.0812 15.3 29.0024 15.4838C28.9237 15.6677 28.892 15.8684 28.9103 16.0677C28.9349 16.3772 28.9513 16.6882 28.9513 17Z" stroke="#0E4287" stroke-width="2" stroke-linecap="round" stroke-linejoin="round"/>
</svg>
