<svg width="45" height="44" viewBox="0 0 45 44" fill="none" xmlns="http://www.w3.org/2000/svg">
<g clip-path="url(#clip0_248_2743)">
<path d="M39 12.8333H33.2543C34.525 11.6748 35.5319 10.2568 36.2069 8.67527C36.8819 7.09376 37.2092 5.38567 37.1667 3.66667H33.5C33.5 8.9485 29.8865 11.5628 25.888 12.4667C27.0886 10.325 27.8092 7.94785 28 5.5C28 4.04131 27.4205 2.64236 26.3891 1.61091C25.3576 0.579463 23.9587 0 22.5 0C21.0413 0 19.6424 0.579463 18.6109 1.61091C17.5795 2.64236 17 4.04131 17 5.5C17.1908 7.94785 17.9114 10.325 19.112 12.4667C15.1135 11.5628 11.5 8.9485 11.5 3.66667H7.83333C7.79079 5.38567 8.11809 7.09376 8.79308 8.67527C9.46807 10.2568 10.475 11.6748 11.7457 12.8333H6C4.54131 12.8333 3.14236 13.4128 2.11091 14.4442C1.07946 15.4757 0.5 16.8746 0.5 18.3333L0.5 25.6667H4.16667V44H40.8333V25.6667H44.5V18.3333C44.5 16.8746 43.9205 15.4757 42.8891 14.4442C41.8576 13.4128 40.4587 12.8333 39 12.8333ZM22.5 3.66667C22.9862 3.66667 23.4525 3.85982 23.7964 4.20364C24.1402 4.54745 24.3333 5.01377 24.3333 5.5C24.112 7.44852 23.4877 9.32967 22.5 11.0238C21.5123 9.32967 20.888 7.44852 20.6667 5.5C20.6667 5.01377 20.8598 4.54745 21.2036 4.20364C21.5475 3.85982 22.0138 3.66667 22.5 3.66667V3.66667ZM4.16667 18.3333C4.16667 17.8471 4.35982 17.3808 4.70364 17.037C5.04745 16.6932 5.51377 16.5 6 16.5H20.6667V22H4.16667V18.3333ZM7.83333 25.6667H20.6667V40.3333H7.83333V25.6667ZM37.1667 40.3333H24.3333V25.6667H37.1667V40.3333ZM40.8333 22H24.3333V16.5H39C39.4862 16.5 39.9525 16.6932 40.2964 17.037C40.6402 17.3808 40.8333 17.8471 40.8333 18.3333V22Z" fill="white"/>
</g>
<defs>
<clipPath id="clip0_248_2743">
<rect width="44" height="44" fill="white" transform="translate(0.5)"/>
</clipPath>
</defs>
</svg>
