<svg width="45" height="44" viewBox="0 0 45 44" fill="none" xmlns="http://www.w3.org/2000/svg">
<g clip-path="url(#clip0_248_2734)">
<path d="M26.3867 2.98214C25.229 2.2324 23.8792 1.8335 22.5 1.8335C21.1208 1.8335 19.771 2.2324 18.6133 2.98214L0.5 14.666L7.83333 19.396V37.425L8.3705 37.9621C8.54283 38.1326 12.6862 42.166 22.5 42.166C32.3138 42.166 36.4572 38.1326 36.6295 37.9621L37.1667 37.425V19.396L40.8333 17.031V36.666H44.5V14.666L26.3867 2.98214ZM33.5 35.7786C30.1869 37.7626 26.356 38.7101 22.5 38.4993C18.6442 38.7106 14.8134 37.7637 11.5 35.7805V21.761L18.6133 26.3443C19.7703 27.0958 21.1204 27.4958 22.5 27.4958C23.8796 27.4958 25.2297 27.0958 26.3867 26.3443L33.5 21.761V35.7786ZM24.3993 23.268C23.8341 23.6356 23.1743 23.8313 22.5 23.8313C21.8257 23.8313 21.1659 23.6356 20.6007 23.268L7.265 14.666L20.6007 6.06397C21.1659 5.6963 21.8257 5.50059 22.5 5.50059C23.1743 5.50059 23.8341 5.6963 24.3993 6.06397L37.735 14.666L24.3993 23.268Z" fill="white"/>
</g>
<defs>
<clipPath id="clip0_248_2734">
<rect width="44" height="44" fill="white" transform="translate(0.5)"/>
</clipPath>
</defs>
</svg>
