<svg width="45" height="44" viewBox="0 0 45 44" fill="none" xmlns="http://www.w3.org/2000/svg">
<g clip-path="url(#clip0_248_2752)">
<path d="M39 7.33386H6C4.54131 7.33386 3.14236 7.91333 2.11091 8.94478C1.07946 9.97623 0.5 11.3752 0.5 12.8339L0.5 36.6672H44.5V12.8339C44.5 11.3752 43.9205 9.97623 42.8891 8.94478C41.8576 7.91333 40.4587 7.33386 39 7.33386ZM40.8333 33.0005H4.16667V12.8339C4.16667 12.3476 4.35982 11.8813 4.70364 11.5375C5.04745 11.1937 5.51377 11.0005 6 11.0005H39C39.4862 11.0005 39.9525 11.1937 40.2964 11.5375C40.6402 11.8813 40.8333 12.3476 40.8333 12.8339V33.0005ZM22.5 14.6672C21.0496 14.6672 19.6318 15.0973 18.4258 15.9031C17.2199 16.7089 16.2799 17.8542 15.7249 19.1942C15.1698 20.5342 15.0246 22.0087 15.3076 23.4312C15.5905 24.8537 16.289 26.1604 17.3146 27.186C18.3401 28.2116 19.6468 28.91 21.0693 29.193C22.4919 29.4759 23.9664 29.3307 25.3063 28.7756C26.6463 28.2206 27.7916 27.2807 28.5974 26.0747C29.4032 24.8687 29.8333 23.4509 29.8333 22.0005C29.8333 20.0556 29.0607 18.1903 27.6855 16.8151C26.3102 15.4398 24.4449 14.6672 22.5 14.6672ZM22.5 25.6672C21.7748 25.6672 21.0659 25.4521 20.4629 25.0492C19.8599 24.6464 19.39 24.0737 19.1124 23.4037C18.8349 22.7337 18.7623 21.9965 18.9038 21.2852C19.0453 20.5739 19.3945 19.9206 19.9073 19.4078C20.4201 18.895 21.0734 18.5458 21.7847 18.4043C22.4959 18.2628 23.2332 18.3354 23.9032 18.613C24.5732 18.8905 25.1458 19.3605 25.5487 19.9634C25.9516 20.5664 26.1667 21.2753 26.1667 22.0005C26.1667 22.973 25.7804 23.9056 25.0927 24.5933C24.4051 25.2809 23.4725 25.6672 22.5 25.6672ZM11.5 16.5005C11.5 16.8631 11.3925 17.2176 11.191 17.5191C10.9896 17.8206 10.7033 18.0555 10.3683 18.1943C10.0333 18.3331 9.66463 18.3694 9.309 18.2986C8.95337 18.2279 8.6267 18.0533 8.3703 17.7969C8.11391 17.5405 7.9393 17.2138 7.86856 16.8582C7.79782 16.5026 7.83413 16.1339 7.97289 15.7989C8.11165 15.4639 8.34663 15.1776 8.64812 14.9762C8.94961 14.7747 9.30407 14.6672 9.66667 14.6672C10.1529 14.6672 10.6192 14.8603 10.963 15.2042C11.3068 15.548 11.5 16.0143 11.5 16.5005ZM37.1667 16.5005C37.1667 16.8631 37.0591 17.2176 36.8577 17.5191C36.6562 17.8206 36.3699 18.0555 36.0349 18.1943C35.6999 18.3331 35.3313 18.3694 34.9757 18.2986C34.62 18.2279 34.2934 18.0533 34.037 17.7969C33.7806 17.5405 33.606 17.2138 33.5352 16.8582C33.4645 16.5026 33.5008 16.1339 33.6396 15.7989C33.7783 15.4639 34.0133 15.1776 34.3148 14.9762C34.6163 14.7747 34.9707 14.6672 35.3333 14.6672C35.8196 14.6672 36.2859 14.8603 36.6297 15.2042C36.9735 15.548 37.1667 16.0143 37.1667 16.5005ZM11.5 27.5005C11.5 27.8631 11.3925 28.2176 11.191 28.5191C10.9896 28.8206 10.7033 29.0555 10.3683 29.1943C10.0333 29.3331 9.66463 29.3694 9.309 29.2986C8.95337 29.2279 8.6267 29.0533 8.3703 28.7969C8.11391 28.5405 7.9393 28.2138 7.86856 27.8582C7.79782 27.5026 7.83413 27.1339 7.97289 26.7989C8.11165 26.4639 8.34663 26.1776 8.64812 25.9762C8.94961 25.7747 9.30407 25.6672 9.66667 25.6672C10.1529 25.6672 10.6192 25.8603 10.963 26.2042C11.3068 26.548 11.5 27.0143 11.5 27.5005ZM37.1667 27.5005C37.1667 27.8631 37.0591 28.2176 36.8577 28.5191C36.6562 28.8206 36.3699 29.0555 36.0349 29.1943C35.6999 29.3331 35.3313 29.3694 34.9757 29.2986C34.62 29.2279 34.2934 29.0533 34.037 28.7969C33.7806 28.5405 33.606 28.2138 33.5352 27.8582C33.4645 27.5026 33.5008 27.1339 33.6396 26.7989C33.7783 26.4639 34.0133 26.1776 34.3148 25.9762C34.6163 25.7747 34.9707 25.6672 35.3333 25.6672C35.8196 25.6672 36.2859 25.8603 36.6297 26.2042C36.9735 26.548 37.1667 27.0143 37.1667 27.5005Z" fill="white"/>
</g>
<defs>
<clipPath id="clip0_248_2752">
<rect width="44" height="44" fill="white" transform="translate(0.5)"/>
</clipPath>
</defs>
</svg>
