<svg width="20" height="20" viewBox="0 0 20 20" fill="none" xmlns="http://www.w3.org/2000/svg">
<path d="M8.34007 2.45544C8.84522 2.15703 9.41757 2 10.0001 2C10.5826 2 11.155 2.15703 11.6601 2.45544L19.7213 7.21708C19.806 7.26716 19.8764 7.33934 19.9253 7.42633C19.9742 7.51332 20 7.61205 20 7.71256C20 7.81306 19.9742 7.91179 19.9253 7.99878C19.8764 8.08578 19.806 8.15796 19.7213 8.20804L16.6668 10.0117V15.1413C16.6669 15.2164 16.6527 15.2908 16.6248 15.3602C16.597 15.4297 16.5561 15.4928 16.5046 15.5459L16.5024 15.5471L16.5001 15.5505L16.4924 15.5574L16.4668 15.5825L16.3779 15.6671C16.2693 15.7651 16.1578 15.8597 16.0435 15.9506C15.6444 16.2658 15.2203 16.546 14.7757 16.7884C13.3052 17.5908 11.6647 18.007 10.0001 17.9999C8.3355 18.007 6.69501 17.5908 5.22449 16.7884C4.78025 16.546 4.35654 16.2657 3.95781 15.9506C3.81128 15.8342 3.66967 15.7114 3.53336 15.5825C3.47228 15.5271 3.42299 15.4593 3.38857 15.3834C3.35415 15.3075 3.33536 15.2251 3.33336 15.1413V10.0117L1.11112 8.69952V13.9984C1.11112 14.1499 1.05259 14.2953 0.948401 14.4025C0.844213 14.5096 0.702904 14.5698 0.55556 14.5698C0.408217 14.5698 0.266908 14.5096 0.16272 14.4025C0.0585322 14.2953 1.4863e-07 14.1499 1.4863e-07 13.9984V7.71199C-7.28068e-05 7.60937 0.0267133 7.50864 0.0775458 7.42035C0.128378 7.33206 0.201382 7.25947 0.288891 7.21022L8.34007 2.45544ZM11.6601 12.9685C11.155 13.2669 10.5826 13.424 10.0001 13.424C9.41757 13.424 8.84522 13.2669 8.34007 12.9685L4.44448 10.6677V14.8864C4.84907 15.2281 5.28567 15.5275 5.74783 15.7803C6.72561 16.3175 8.16451 16.8558 10.0001 16.8558C11.4819 16.8635 12.9426 16.4945 14.2523 15.7814C14.7146 15.5279 15.1512 15.2277 15.5557 14.8853V10.6677L11.6601 12.9674V12.9685ZM11.1068 3.44754C10.77 3.2486 10.3884 3.14392 10.0001 3.14392C9.61174 3.14392 9.23017 3.2486 8.89341 3.44754L1.67113 7.71199L8.89341 11.9776C9.23017 12.1765 9.61174 12.2812 10.0001 12.2812C10.3884 12.2812 10.77 12.1765 11.1068 11.9776L18.329 7.71199L11.1068 3.4464V3.44754Z" fill="#D9006E"/>
</svg>
