<svg width="20" height="20" viewBox="0 0 20 20" fill="none" xmlns="http://www.w3.org/2000/svg">
<path d="M2.00111 1H3.00167C4.05626 1 4.92074 1.816 4.99778 2.85L5.00278 3V17C5.00246 17.5043 4.81159 17.9899 4.46838 18.3597C4.12517 18.7294 3.65493 18.9559 3.15175 18.994L3.00167 19H2.00111C1.49632 18.9999 1.01019 18.8093 0.640055 18.4662C0.269918 18.1232 0.0430954 17.6531 0.0050029 17.15L0 17V3C0 1.946 0.816454 1.082 1.85103 1.005L2.00111 1H3.00167H2.00111ZM8.00445 1H9.00501C10.0596 1 10.9241 1.816 11.0011 2.85L11.0061 3V17C11.0058 17.5043 10.8149 17.9899 10.4717 18.3597C10.1285 18.7294 9.65827 18.9559 9.15509 18.994L9.00501 19H8.00445C7.49966 18.9999 7.01353 18.8093 6.64339 18.4662C6.27326 18.1232 6.04643 17.6531 6.00834 17.15L6.00334 17V3C6.00334 1.946 6.81979 1.082 7.85437 1.005L8.00445 1H9.00501H8.00445ZM14.9823 3C15.8228 3 16.5912 3.531 16.8734 4.346L16.9204 4.503L19.9371 16.248C20.0627 16.7367 19.9988 17.2547 19.7583 17.6983C19.5179 18.1419 19.1185 18.4783 18.6404 18.64L18.4963 18.683L17.5267 18.931C17.0401 19.0552 16.5245 18.9922 16.0821 18.7544C15.6398 18.5166 15.3029 18.1213 15.1384 17.647L15.0914 17.492L12.0737 5.747C11.9482 5.25808 12.0124 4.73982 12.2532 4.29619C12.4941 3.85255 12.8939 3.51634 13.3724 3.355L13.5155 3.312L14.4841 3.064C14.6468 3.02173 14.8142 3.00022 14.9823 3ZM3.00167 2.5H2.00111C1.88407 2.50016 1.77078 2.54124 1.68087 2.61612C1.59096 2.69101 1.5301 2.79497 1.50884 2.91L1.50083 3V17C1.50083 17.244 1.67793 17.45 1.91106 17.492L2.00111 17.5H3.00167C3.24681 17.5 3.45192 17.322 3.49394 17.09L3.50195 17V3C3.50179 2.88303 3.46069 2.7698 3.38576 2.67993C3.31084 2.59007 3.20681 2.52925 3.09172 2.508L3.00167 2.5ZM9.00501 2.5H8.00445C7.88741 2.50016 7.77412 2.54124 7.68421 2.61612C7.5943 2.69101 7.53344 2.79497 7.51218 2.91L7.50417 3V17C7.50417 17.244 7.68127 17.45 7.9144 17.492L8.00445 17.5H9.00501C9.25014 17.5 9.45526 17.322 9.49728 17.09L9.50529 17V3C9.50513 2.88303 9.46403 2.7698 9.3891 2.67993C9.31417 2.59007 9.21015 2.52925 9.09506 2.508L9.00501 2.5ZM14.9833 4.5L14.9203 4.504L14.8573 4.517L13.8887 4.764C13.7765 4.79215 13.6776 4.85844 13.609 4.95149C13.5404 5.04454 13.5062 5.15856 13.5125 5.274L13.5275 5.374L16.5452 17.119C16.5729 17.2261 16.6353 17.3211 16.7228 17.3889C16.8102 17.4568 16.9178 17.4938 17.0285 17.494L17.0915 17.491L17.1535 17.479L18.1241 17.229C18.2373 17.1998 18.3367 17.1319 18.4051 17.0371C18.4735 16.9423 18.5064 16.8266 18.4983 16.71L18.4833 16.622L15.4666 4.875C15.4388 4.76794 15.3763 4.6731 15.2888 4.60527C15.2014 4.53743 15.094 4.50042 14.9833 4.5Z" fill="#D9006E"/>
</svg>
