<svg width="20" height="20" viewBox="0 0 20 20" fill="none" xmlns="http://www.w3.org/2000/svg">
<path d="M3.57156 6C3.57156 5.3249 3.83496 4.67746 4.30382 4.20009C4.77267 3.72273 5.40858 3.45455 6.07165 3.45455C6.73471 3.45455 7.37062 3.72273 7.83947 4.20009C8.30833 4.67746 8.57173 5.3249 8.57173 6C8.57173 6.6751 8.30833 7.32254 7.83947 7.79991C7.37062 8.27727 6.73471 8.54545 6.07165 8.54545C5.40858 8.54545 4.77267 8.27727 4.30382 7.79991C3.83496 7.32254 3.57156 6.6751 3.57156 6ZM6.07165 2C5.02969 2 4.0304 2.42143 3.29363 3.17157C2.55685 3.92172 2.14293 4.93913 2.14293 6C2.14293 7.06087 2.55685 8.07828 3.29363 8.82843C4.0304 9.57857 5.02969 10 6.07165 10C7.1136 10 8.11289 9.57857 8.84966 8.82843C9.58644 8.07828 10.0004 7.06087 10.0004 6C10.0004 4.93913 9.58644 3.92172 8.84966 3.17157C8.11289 2.42143 7.1136 2 6.07165 2ZM13.5719 7.09091C13.5719 6.70514 13.7224 6.33517 13.9903 6.06239C14.2583 5.78961 14.6216 5.63636 15.0005 5.63636C15.3794 5.63636 15.7428 5.78961 16.0107 6.06239C16.2786 6.33517 16.4292 6.70514 16.4292 7.09091C16.4292 7.47668 16.2786 7.84665 16.0107 8.11943C15.7428 8.39221 15.3794 8.54545 15.0005 8.54545C14.6216 8.54545 14.2583 8.39221 13.9903 8.11943C13.7224 7.84665 13.5719 7.47668 13.5719 7.09091ZM15.0005 4.18182C14.2427 4.18182 13.516 4.48831 12.9802 5.03387C12.4443 5.57943 12.1433 6.31937 12.1433 7.09091C12.1433 7.86245 12.4443 8.60239 12.9802 9.14795C13.516 9.69351 14.2427 10 15.0005 10C15.7583 10 16.4851 9.69351 17.0209 9.14795C17.5567 8.60239 17.8578 7.86245 17.8578 7.09091C17.8578 6.31937 17.5567 5.57943 17.0209 5.03387C16.4851 4.48831 15.7583 4.18182 15.0005 4.18182ZM0 13.6364C0 13.0577 0.225773 12.5028 0.627651 12.0936C1.02953 11.6844 1.57459 11.4545 2.14293 11.4545H10.0004C10.5687 11.4545 11.1138 11.6844 11.5156 12.0936C11.9175 12.5028 12.1433 13.0577 12.1433 13.6364V13.8007C12.1419 13.8686 12.1371 13.9363 12.129 14.0036C12.1147 14.1295 12.0883 14.3004 12.0361 14.5025C11.8989 15.0359 11.6561 15.5351 11.3225 15.9695C10.4868 17.0618 8.9146 18 6.07165 18C3.22869 18 1.6572 17.0618 0.820744 15.9695C0.486953 15.5352 0.243874 15.036 0.106432 14.5025C0.0518718 14.2886 0.0169585 14.07 0.00214295 13.8495C0.00145237 13.8332 0.000976056 13.817 0.000714259 13.8007V13.784L0 13.7782V13.6364ZM1.42862 13.7658V13.7745C1.43852 13.8968 1.45884 14.018 1.48934 14.1367C1.55363 14.3898 1.68435 14.7316 1.94721 15.0756C2.4508 15.7331 3.55727 16.5455 6.07165 16.5455C8.58602 16.5455 9.6932 15.7331 10.1961 15.0764C10.4096 14.7981 10.5652 14.4783 10.6532 14.1367C10.684 14.018 10.7045 13.8969 10.7147 13.7745L10.7154 13.7658V13.6364C10.7154 13.4435 10.6401 13.2585 10.5062 13.1221C10.3722 12.9857 10.1905 12.9091 10.0011 12.9091H2.14293C1.95349 12.9091 1.7718 12.9857 1.63784 13.1221C1.50388 13.2585 1.42862 13.4435 1.42862 13.6364V13.7658ZM12.484 16.176C13.1483 16.4058 13.9748 16.5455 15.0005 16.5455C17.287 16.5455 18.5864 15.8524 19.2957 15C19.6407 14.5855 19.8171 14.1651 19.9064 13.8422C19.9546 13.6691 19.9854 13.4914 19.9986 13.312L19.9993 13.2858L20 13.2698V13.2422C20.0001 13.0074 19.9547 12.7749 19.8665 12.558C19.7783 12.341 19.649 12.1439 19.486 11.9779C19.3229 11.8119 19.1293 11.6802 18.9162 11.5904C18.7032 11.5006 18.4748 11.4545 18.2442 11.4545H12.3947C12.7519 11.8611 13.0112 12.3585 13.134 12.9091H18.2442C18.4228 12.9091 18.5671 13.0538 18.5714 13.2335C18.5644 13.3058 18.551 13.3774 18.5314 13.4473C18.4871 13.6073 18.3957 13.8313 18.2049 14.0604C17.8435 14.496 16.9999 15.0909 15.0005 15.0909C14.1684 15.0909 13.5369 14.9876 13.0569 14.8364C12.9298 15.3085 12.7369 15.7596 12.484 16.176Z" fill="#D9006E"/>
</svg>
