<svg width="21" height="21" viewBox="0 0 21 21" fill="none" xmlns="http://www.w3.org/2000/svg">
<g clip-path="url(#clip0_2_2529)">
<path d="M20.9947 20.999V20.9981H21V13.2963C21 9.52859 20.1888 6.62622 15.784 6.62622C13.6665 6.62622 12.2455 7.78822 11.6654 8.88985H11.6041V6.97797H7.42773V20.9981H11.7765V14.0558C11.7765 12.228 12.123 10.4605 14.3867 10.4605C16.617 10.4605 16.6503 12.5465 16.6503 14.1731V20.999H20.9947Z" fill="white"/>
<path d="M0.348633 6.979H4.70266V20.9991H0.348633V6.979Z" fill="white"/>
<path d="M2.52174 -0.000976562C1.12962 -0.000976562 0 1.12864 0 2.52075C0 3.91286 1.12962 5.0661 2.52174 5.0661C3.91386 5.0661 5.04348 3.91286 5.04348 2.52075C5.0426 1.12864 3.91298 -0.000976562 2.52174 -0.000976562V-0.000976562Z" fill="white"/>
</g>
<defs>
<clipPath id="clip0_2_2529">
<rect width="21" height="21" fill="white" transform="translate(0 -0.000976562)"/>
</clipPath>
</defs>
</svg>
