<svg width="21" height="21" viewBox="0 0 21 21" fill="none" xmlns="http://www.w3.org/2000/svg">
<g clip-path="url(#clip0_2_2527)">
<path d="M20.5356 5.18691L20.5619 5.35841C20.3081 4.45804 19.623 3.76329 18.7524 3.51041L18.734 3.50604C17.0969 3.06154 10.509 3.06154 10.509 3.06154C10.509 3.06154 3.93776 3.05279 2.28401 3.50604C1.39676 3.76329 0.710758 4.45804 0.461383 5.34004L0.457008 5.35841C-0.154618 8.55303 -0.158993 12.3917 0.484133 15.812L0.457008 15.6388C0.710758 16.5392 1.39588 17.2339 2.26651 17.4868L2.28488 17.4912C3.92026 17.9365 10.5099 17.9365 10.5099 17.9365C10.5099 17.9365 17.0803 17.9365 18.7349 17.4912C19.623 17.2339 20.309 16.5392 20.5584 15.6572L20.5628 15.6388C20.841 14.153 21.0003 12.4433 21.0003 10.6968C21.0003 10.6329 21.0003 10.5682 20.9994 10.5034C21.0003 10.4439 21.0003 10.373 21.0003 10.3022C21.0003 8.55478 20.841 6.84503 20.5356 5.18691ZM8.40726 13.6937V7.31228L13.89 10.5078L8.40726 13.6937Z" fill="white"/>
</g>
<defs>
<clipPath id="clip0_2_2527">
<rect width="21" height="21" fill="white" transform="translate(0 -0.000976562)"/>
</clipPath>
</defs>
</svg>
