<svg width="21" height="17" viewBox="0 0 21 17" fill="none" xmlns="http://www.w3.org/2000/svg">
<path d="M20.9999 2.01841C20.2276 2.35036 19.3872 2.58927 18.5216 2.68232C19.4203 2.15028 20.0933 1.30974 20.4144 0.318412C19.571 0.818325 18.6471 1.16887 17.6837 1.35451C17.281 0.925549 16.794 0.583823 16.253 0.35062C15.712 0.117418 15.1286 -0.00226359 14.5392 -0.000966125C12.1542 -0.000966125 10.2362 1.92536 10.2362 4.28927C10.2362 4.62122 10.2766 4.95317 10.3422 5.27255C6.77114 5.08646 3.58621 3.38646 1.46881 0.783649C1.08299 1.4403 0.880813 2.18797 0.883302 2.94888C0.883302 4.43764 1.64294 5.75036 2.80133 6.5224C2.11867 6.49561 1.452 6.30864 0.855541 5.97669V6.0295C0.855541 8.11427 2.33444 9.84193 4.30547 10.2393C3.93539 10.3351 3.55468 10.3841 3.17232 10.3851C2.89218 10.3851 2.62719 10.3575 2.35968 10.3197C2.9048 12.0197 4.49222 13.2545 6.38249 13.2947C4.90359 14.449 3.05118 15.128 1.03977 15.128C0.678881 15.128 0.34575 15.1154 0 15.0752C1.90793 16.2949 4.17171 16.999 6.60962 16.999C14.524 16.999 18.8547 10.4656 18.8547 4.79474C18.8547 4.60865 18.8547 4.42255 18.8421 4.23646C19.68 3.62536 20.4144 2.86841 20.9999 2.01841Z" fill="white"/>
</svg>
