<svg width="21" height="21" viewBox="0 0 21 21" fill="none" xmlns="http://www.w3.org/2000/svg">
<g clip-path="url(#clip0_2_2521)">
<path d="M10.5035 5.10718C7.52587 5.10718 5.11523 7.52043 5.11523 10.4954C5.11523 13.4731 7.5285 15.8837 10.5035 15.8837C13.4812 15.8837 15.8918 13.4704 15.8918 10.4954C15.8918 7.5178 13.4785 5.10718 10.5035 5.10718ZM10.5035 13.9928C8.57063 13.9928 7.00612 12.4274 7.00612 10.4954C7.00612 8.56343 8.57151 6.99805 10.5035 6.99805C12.4355 6.99805 14.0009 8.56343 14.0009 10.4954C14.0018 12.4274 12.4364 13.9928 10.5035 13.9928Z" fill="white"/>
<path d="M14.8288 0.0674282C12.8968 -0.0226969 8.11139 -0.0183218 6.17763 0.0674282C4.47837 0.147053 2.97949 0.557429 1.77111 1.7658C-0.248404 3.78531 0.00972235 6.50656 0.00972235 10.4974C0.00972235 14.5819 -0.217779 17.2402 1.77111 19.2291C3.79849 21.2556 6.55913 20.9904 10.5028 20.9904C14.5488 20.9904 15.9453 20.9931 17.3759 20.4392C19.3211 19.6841 20.7893 17.9454 20.9328 14.8226C21.0238 12.8897 21.0186 8.10519 20.9328 6.17143C20.7596 2.48506 18.7812 0.249428 14.8288 0.0674282ZM17.8869 17.8929C16.5631 19.2168 14.7264 19.0987 10.4774 19.0987C6.10238 19.0987 4.34799 19.1634 3.06786 17.8798C1.59348 16.4124 1.86036 14.0561 1.86036 10.4834C1.86036 5.64906 1.36423 2.16743 6.21613 1.91893C7.33088 1.87955 7.65901 1.86643 10.4651 1.86643L10.5045 1.89268C15.1674 1.89268 18.8258 1.40443 19.0454 6.25543C19.0953 7.36231 19.1067 7.69481 19.1067 10.4966C19.1058 14.8208 19.1881 16.5857 17.8869 17.8929Z" fill="white"/>
<path d="M16.1068 6.15374C16.8022 6.15374 17.3659 5.59001 17.3659 4.89462C17.3659 4.19923 16.8022 3.6355 16.1068 3.6355C15.4114 3.6355 14.8477 4.19923 14.8477 4.89462C14.8477 5.59001 15.4114 6.15374 16.1068 6.15374Z" fill="white"/>
</g>
<defs>
<clipPath id="clip0_2_2521">
<rect width="21.0001" height="21" fill="white" transform="translate(0 -0.000976562)"/>
</clipPath>
</defs>
</svg>
